<svg width="120" height="120" viewBox="0 0 120 120" fill="none" xmlns="http://www.w3.org/2000/svg">
<g clip-path="url(#clip0_94_449)">
<path d="M0 59.6057H9.43026" stroke="#E39D7B" stroke-miterlimit="10" stroke-linecap="round" stroke-linejoin="round"/>
<path d="M0.785889 50.3021L10.059 51.7213" stroke="#E39D7B" stroke-miterlimit="10" stroke-linecap="round" stroke-linejoin="round"/>
<path d="M2.98621 41.1562L11.9449 44.0735" stroke="#E39D7B" stroke-miterlimit="10" stroke-linecap="round" stroke-linejoin="round"/>
<path d="M6.6012 32.4834L15.0098 36.8198" stroke="#E39D7B" stroke-miterlimit="10" stroke-linecap="round" stroke-linejoin="round"/>
<path d="M11.4735 24.5203L19.0963 30.0393" stroke="#E39D7B" stroke-miterlimit="10" stroke-linecap="round" stroke-linejoin="round"/>
<path d="M17.6031 17.3455L24.2829 24.0472" stroke="#E39D7B" stroke-miterlimit="10" stroke-linecap="round" stroke-linejoin="round"/>
<path d="M24.7544 11.2745L30.2554 19.0012" stroke="#E39D7B" stroke-miterlimit="10" stroke-linecap="round" stroke-linejoin="round"/>
<path d="M32.6915 6.46509L37.0137 14.8225" stroke="#E39D7B" stroke-miterlimit="10" stroke-linecap="round" stroke-linejoin="round"/>
<path d="M41.3359 2.83826L44.3222 11.9053" stroke="#E39D7B" stroke-miterlimit="10" stroke-linecap="round" stroke-linejoin="round"/>
<path d="M50.4519 0.709473L51.945 10.013" stroke="#E39D7B" stroke-miterlimit="10" stroke-linecap="round" stroke-linejoin="round"/>
<path d="M59.8036 -0.00012207V9.46111" stroke="#E39D7B" stroke-miterlimit="10" stroke-linecap="round" stroke-linejoin="round"/>
<path d="M69.1552 0.78833L67.6621 10.0919" stroke="#E39D7B" stroke-miterlimit="10" stroke-linecap="round" stroke-linejoin="round"/>
<path d="M78.1926 2.99597L75.2849 11.9841" stroke="#E39D7B" stroke-miterlimit="10" stroke-linecap="round" stroke-linejoin="round"/>
<path d="M86.8369 6.6228L82.5933 15.0591" stroke="#E39D7B" stroke-miterlimit="10" stroke-linecap="round" stroke-linejoin="round"/>
<path d="M94.7741 11.511L89.2731 19.1588" stroke="#E39D7B" stroke-miterlimit="10" stroke-linecap="round" stroke-linejoin="round"/>
<path d="M101.925 17.6609L95.2456 24.3626" stroke="#E39D7B" stroke-miterlimit="10" stroke-linecap="round" stroke-linejoin="round"/>
<path d="M107.976 24.8356L100.354 30.3546" stroke="#E39D7B" stroke-miterlimit="10" stroke-linecap="round" stroke-linejoin="round"/>
<path d="M112.849 32.7988L104.44 37.1352" stroke="#E39D7B" stroke-miterlimit="10" stroke-linecap="round" stroke-linejoin="round"/>
<path d="M116.385 41.4717L107.426 44.4677" stroke="#E39D7B" stroke-miterlimit="10" stroke-linecap="round" stroke-linejoin="round"/>
<path d="M118.507 50.6174L109.234 52.1155" stroke="#E39D7B" stroke-miterlimit="10" stroke-linecap="round" stroke-linejoin="round"/>
<path d="M119.214 59.6057H109.784" stroke="#E39D7B" stroke-miterlimit="10" stroke-linecap="round" stroke-linejoin="round"/>
<path d="M0.785889 68.988L10.059 67.49" stroke="#E39D7B" stroke-miterlimit="10" stroke-linecap="round" stroke-linejoin="round"/>
<path d="M2.98621 78.055L11.9449 75.1378" stroke="#E39D7B" stroke-miterlimit="10" stroke-linecap="round" stroke-linejoin="round"/>
<path d="M6.6012 86.7279L15.0098 82.4703" stroke="#E39D7B" stroke-miterlimit="10" stroke-linecap="round" stroke-linejoin="round"/>
<path d="M11.4735 94.7699L19.0963 89.172" stroke="#E39D7B" stroke-miterlimit="10" stroke-linecap="round" stroke-linejoin="round"/>
<path d="M17.6031 101.866L24.2829 95.1642" stroke="#E39D7B" stroke-miterlimit="10" stroke-linecap="round" stroke-linejoin="round"/>
<path d="M24.7544 107.937L30.2554 100.289" stroke="#E39D7B" stroke-miterlimit="10" stroke-linecap="round" stroke-linejoin="round"/>
<path d="M32.6915 112.825L37.0137 104.389" stroke="#E39D7B" stroke-miterlimit="10" stroke-linecap="round" stroke-linejoin="round"/>
<path d="M41.3359 116.373L44.3222 107.385" stroke="#E39D7B" stroke-miterlimit="10" stroke-linecap="round" stroke-linejoin="round"/>
<path d="M50.4519 118.502L51.945 109.198" stroke="#E39D7B" stroke-miterlimit="10" stroke-linecap="round" stroke-linejoin="round"/>
<path d="M59.8036 119.211V109.75" stroke="#E39D7B" stroke-miterlimit="10" stroke-linecap="round" stroke-linejoin="round"/>
<path d="M69.1552 118.502L67.6621 109.12" stroke="#E39D7B" stroke-miterlimit="10" stroke-linecap="round" stroke-linejoin="round"/>
<path d="M78.1926 116.215L75.2849 107.227" stroke="#E39D7B" stroke-miterlimit="10" stroke-linecap="round" stroke-linejoin="round"/>
<path d="M86.8369 112.589L82.5933 104.231" stroke="#E39D7B" stroke-miterlimit="10" stroke-linecap="round" stroke-linejoin="round"/>
<path d="M94.7741 107.7L89.2731 100.052" stroke="#E39D7B" stroke-miterlimit="10" stroke-linecap="round" stroke-linejoin="round"/>
<path d="M101.925 101.55L95.2456 94.9276" stroke="#E39D7B" stroke-miterlimit="10" stroke-linecap="round" stroke-linejoin="round"/>
<path d="M107.976 94.4546L100.354 88.8567" stroke="#E39D7B" stroke-miterlimit="10" stroke-linecap="round" stroke-linejoin="round"/>
<path d="M112.849 86.4124L104.44 82.076" stroke="#E39D7B" stroke-miterlimit="10" stroke-linecap="round" stroke-linejoin="round"/>
<path d="M116.385 77.7397L107.426 74.8225" stroke="#E39D7B" stroke-miterlimit="10" stroke-linecap="round" stroke-linejoin="round"/>
<path d="M118.507 68.5939L109.234 67.0958" stroke="#E39D7B" stroke-miterlimit="10" stroke-linecap="round" stroke-linejoin="round"/>
<path d="M42.9166 73.3333C42.5555 73.3333 42.2569 73.2152 42.0208 72.9791C41.7847 72.743 41.6666 72.4444 41.6666 72.0833V66.6666C41.6666 65.8611 41.9513 65.1736 42.5208 64.6041C43.0902 64.0347 43.7777 63.75 44.5833 63.75H50.4583C50.9305 63.75 51.3819 63.868 51.8125 64.1041C52.243 64.3402 52.6111 64.6666 52.9166 65.0833C53.7222 66.25 54.75 67.1527 56 67.7916C57.25 68.4305 58.5833 68.75 60 68.75C61.4166 68.75 62.75 68.4305 64 67.7916C65.25 67.1527 66.2916 66.25 67.125 65.0833C67.4305 64.6666 67.7916 64.3402 68.2083 64.1041C68.625 63.868 69.0694 63.75 69.5416 63.75H75.4166C76.2222 63.75 76.9097 64.0347 77.4791 64.6041C78.0486 65.1736 78.3333 65.8611 78.3333 66.6666V72.0833C78.3333 72.4444 78.2152 72.743 77.9791 72.9791C77.743 73.2152 77.4444 73.3333 77.0833 73.3333H68.75C68.3888 73.3333 68.0902 73.2152 67.8541 72.9791C67.618 72.743 67.5 72.4444 67.5 72.0833V68.375C66.5 69.2916 65.3541 70 64.0625 70.5C62.7708 71 61.4166 71.25 60 71.25C58.5833 71.25 57.2361 71 55.9583 70.5C54.6805 70 53.5277 69.2916 52.5 68.375V72.0833C52.5 72.4444 52.3819 72.743 52.1458 72.9791C51.9097 73.2152 51.6111 73.3333 51.25 73.3333H42.9166ZM60 66.25C59.0277 66.25 58.0902 66.0208 57.1875 65.5625C56.2847 65.1041 55.5555 64.4722 55 63.6666C54.5555 63.0277 54.0208 62.5138 53.3958 62.125C52.7708 61.7361 52.0972 61.4722 51.375 61.3333C52.1805 60.5 53.4444 59.8611 55.1666 59.4166C56.8888 58.9722 58.5 58.75 60 58.75C61.5 58.75 63.118 58.9722 64.8541 59.4166C66.5902 59.8611 67.8611 60.5 68.6666 61.3333C67.9444 61.4722 67.2708 61.7361 66.6458 62.125C66.0208 62.5138 65.4861 63.0277 65.0416 63.6666C64.4861 64.4722 63.7569 65.1041 62.8541 65.5625C61.9513 66.0208 61 66.25 60 66.25ZM46.6666 60.8333C45.3888 60.8333 44.3055 60.3888 43.4166 59.5C42.5277 58.6111 42.0833 57.5277 42.0833 56.25C42.0833 54.9722 42.5277 53.8888 43.4166 53C44.3055 52.1111 45.3888 51.6666 46.6666 51.6666C47.9444 51.6666 49.0277 52.1111 49.9166 53C50.8055 53.8888 51.25 54.9722 51.25 56.25C51.25 57.5277 50.8055 58.6111 49.9166 59.5C49.0277 60.3888 47.9444 60.8333 46.6666 60.8333ZM73.3333 60.8333C72.0555 60.8333 70.9722 60.3888 70.0833 59.5C69.1944 58.6111 68.75 57.5277 68.75 56.25C68.75 54.9722 69.1944 53.8888 70.0833 53C70.9722 52.1111 72.0555 51.6666 73.3333 51.6666C74.6111 51.6666 75.6944 52.1111 76.5833 53C77.4722 53.8888 77.9166 54.9722 77.9166 56.25C77.9166 57.5277 77.4722 58.6111 76.5833 59.5C75.6944 60.3888 74.6111 60.8333 73.3333 60.8333ZM60 55.8333C58.7222 55.8333 57.6388 55.3888 56.75 54.5C55.8611 53.6111 55.4166 52.5277 55.4166 51.25C55.4166 49.9722 55.8611 48.8888 56.75 48C57.6388 47.1111 58.7222 46.6666 60 46.6666C61.2777 46.6666 62.3611 47.1111 63.25 48C64.1388 48.8888 64.5833 49.9722 64.5833 51.25C64.5833 52.5277 64.1388 53.6111 63.25 54.5C62.3611 55.3888 61.2777 55.8333 60 55.8333Z" fill="#E39D7B"/>
</g>
<defs>
<clipPath id="clip0_94_449">
<rect width="120" height="120" fill="white"/>
</clipPath>
</defs>
</svg>
