<svg width="120" height="120" viewBox="0 0 120 120" fill="none" xmlns="http://www.w3.org/2000/svg">
<g clip-path="url(#clip0_135_215)">
<path d="M0 59.6057H9.43026" stroke="#DBB380" stroke-miterlimit="10" stroke-linecap="round" stroke-linejoin="round"/>
<path d="M0.785828 50.3021L10.0589 51.7213" stroke="#DBB380" stroke-miterlimit="10" stroke-linecap="round" stroke-linejoin="round"/>
<path d="M2.98627 41.1562L11.945 44.0735" stroke="#DBB380" stroke-miterlimit="10" stroke-linecap="round" stroke-linejoin="round"/>
<path d="M6.6012 32.4834L15.0098 36.8198" stroke="#DBB380" stroke-miterlimit="10" stroke-linecap="round" stroke-linejoin="round"/>
<path d="M11.4734 24.5203L19.0962 30.0393" stroke="#DBB380" stroke-miterlimit="10" stroke-linecap="round" stroke-linejoin="round"/>
<path d="M17.6031 17.3455L24.2829 24.0472" stroke="#DBB380" stroke-miterlimit="10" stroke-linecap="round" stroke-linejoin="round"/>
<path d="M24.7544 11.2745L30.2554 19.0012" stroke="#DBB380" stroke-miterlimit="10" stroke-linecap="round" stroke-linejoin="round"/>
<path d="M32.6915 6.46509L37.0137 14.8225" stroke="#DBB380" stroke-miterlimit="10" stroke-linecap="round" stroke-linejoin="round"/>
<path d="M41.3359 2.83826L44.3222 11.9053" stroke="#DBB380" stroke-miterlimit="10" stroke-linecap="round" stroke-linejoin="round"/>
<path d="M50.4518 0.709473L51.945 10.013" stroke="#DBB380" stroke-miterlimit="10" stroke-linecap="round" stroke-linejoin="round"/>
<path d="M59.8035 -0.00012207V9.46111" stroke="#DBB380" stroke-miterlimit="10" stroke-linecap="round" stroke-linejoin="round"/>
<path d="M69.1552 0.78833L67.6621 10.0919" stroke="#DBB380" stroke-miterlimit="10" stroke-linecap="round" stroke-linejoin="round"/>
<path d="M78.1925 2.99597L75.2849 11.9841" stroke="#DBB380" stroke-miterlimit="10" stroke-linecap="round" stroke-linejoin="round"/>
<path d="M86.8369 6.6228L82.5933 15.0591" stroke="#DBB380" stroke-miterlimit="10" stroke-linecap="round" stroke-linejoin="round"/>
<path d="M94.7741 11.511L89.2731 19.1588" stroke="#DBB380" stroke-miterlimit="10" stroke-linecap="round" stroke-linejoin="round"/>
<path d="M101.925 17.6609L95.2456 24.3626" stroke="#DBB380" stroke-miterlimit="10" stroke-linecap="round" stroke-linejoin="round"/>
<path d="M107.976 24.8356L100.354 30.3546" stroke="#DBB380" stroke-miterlimit="10" stroke-linecap="round" stroke-linejoin="round"/>
<path d="M112.849 32.7988L104.44 37.1352" stroke="#DBB380" stroke-miterlimit="10" stroke-linecap="round" stroke-linejoin="round"/>
<path d="M116.385 41.4717L107.426 44.4677" stroke="#DBB380" stroke-miterlimit="10" stroke-linecap="round" stroke-linejoin="round"/>
<path d="M118.507 50.6174L109.234 52.1155" stroke="#DBB380" stroke-miterlimit="10" stroke-linecap="round" stroke-linejoin="round"/>
<path d="M119.214 59.6057H109.784" stroke="#DBB380" stroke-miterlimit="10" stroke-linecap="round" stroke-linejoin="round"/>
<path d="M0.785828 68.988L10.0589 67.49" stroke="#DBB380" stroke-miterlimit="10" stroke-linecap="round" stroke-linejoin="round"/>
<path d="M2.98627 78.055L11.945 75.1378" stroke="#DBB380" stroke-miterlimit="10" stroke-linecap="round" stroke-linejoin="round"/>
<path d="M6.6012 86.7279L15.0098 82.4703" stroke="#DBB380" stroke-miterlimit="10" stroke-linecap="round" stroke-linejoin="round"/>
<path d="M11.4734 94.7699L19.0962 89.172" stroke="#DBB380" stroke-miterlimit="10" stroke-linecap="round" stroke-linejoin="round"/>
<path d="M17.6031 101.866L24.2829 95.1642" stroke="#DBB380" stroke-miterlimit="10" stroke-linecap="round" stroke-linejoin="round"/>
<path d="M24.7544 107.937L30.2554 100.289" stroke="#DBB380" stroke-miterlimit="10" stroke-linecap="round" stroke-linejoin="round"/>
<path d="M32.6915 112.825L37.0137 104.389" stroke="#DBB380" stroke-miterlimit="10" stroke-linecap="round" stroke-linejoin="round"/>
<path d="M41.3359 116.373L44.3222 107.385" stroke="#DBB380" stroke-miterlimit="10" stroke-linecap="round" stroke-linejoin="round"/>
<path d="M50.4518 118.502L51.945 109.198" stroke="#DBB380" stroke-miterlimit="10" stroke-linecap="round" stroke-linejoin="round"/>
<path d="M59.8035 119.211V109.75" stroke="#DBB380" stroke-miterlimit="10" stroke-linecap="round" stroke-linejoin="round"/>
<path d="M69.1552 118.502L67.6621 109.12" stroke="#DBB380" stroke-miterlimit="10" stroke-linecap="round" stroke-linejoin="round"/>
<path d="M78.1925 116.215L75.2849 107.227" stroke="#DBB380" stroke-miterlimit="10" stroke-linecap="round" stroke-linejoin="round"/>
<path d="M86.8369 112.589L82.5933 104.231" stroke="#DBB380" stroke-miterlimit="10" stroke-linecap="round" stroke-linejoin="round"/>
<path d="M94.7741 107.7L89.2731 100.052" stroke="#DBB380" stroke-miterlimit="10" stroke-linecap="round" stroke-linejoin="round"/>
<path d="M101.925 101.55L95.2456 94.9276" stroke="#DBB380" stroke-miterlimit="10" stroke-linecap="round" stroke-linejoin="round"/>
<path d="M107.976 94.4546L100.354 88.8567" stroke="#DBB380" stroke-miterlimit="10" stroke-linecap="round" stroke-linejoin="round"/>
<path d="M112.849 86.4124L104.44 82.076" stroke="#DBB380" stroke-miterlimit="10" stroke-linecap="round" stroke-linejoin="round"/>
<path d="M116.385 77.7397L107.426 74.8225" stroke="#DBB380" stroke-miterlimit="10" stroke-linecap="round" stroke-linejoin="round"/>
<path d="M118.507 68.5939L109.234 67.0958" stroke="#DBB380" stroke-miterlimit="10" stroke-linecap="round" stroke-linejoin="round"/>
<path d="M62.0834 48.5833C61.25 48.5833 60.5347 48.2847 59.9375 47.6875C59.3403 47.0903 59.0417 46.375 59.0417 45.5417C59.0417 44.7083 59.3403 43.9931 59.9375 43.3958C60.5347 42.7986 61.25 42.5 62.0834 42.5C62.9167 42.5 63.632 42.7986 64.2292 43.3958C64.8264 43.9931 65.125 44.7083 65.125 45.5417C65.125 46.375 64.8264 47.0903 64.2292 47.6875C63.632 48.2847 62.9167 48.5833 62.0834 48.5833ZM53.375 78.3333C52.9306 78.3333 52.5764 78.1806 52.3125 77.875C52.0486 77.5694 51.9584 77.1944 52.0417 76.75L56.7917 52.5C56.9306 51.8333 57.25 51.3194 57.75 50.9583C58.25 50.5972 58.7778 50.4167 59.3334 50.4167C59.8889 50.4167 60.4097 50.5417 60.8959 50.7917C61.382 51.0417 61.7778 51.4028 62.0834 51.875L63.7084 54.5417C64.2361 55.4306 64.9653 56.2222 65.8959 56.9167C66.8264 57.6111 67.9167 58.1528 69.1667 58.5417V56.25C69.1667 56.0278 69.25 55.8333 69.4167 55.6667C69.5834 55.5 69.7778 55.4167 70 55.4167C70.2222 55.4167 70.4167 55.5 70.5834 55.6667C70.75 55.8333 70.8334 56.0278 70.8334 56.25V77.5C70.8334 77.7222 70.75 77.9167 70.5834 78.0833C70.4167 78.25 70.2222 78.3333 70 78.3333C69.7778 78.3333 69.5834 78.25 69.4167 78.0833C69.25 77.9167 69.1667 77.7222 69.1667 77.5V61.0833C67.75 60.7778 66.4167 60.2361 65.1667 59.4583C63.9167 58.6806 62.8056 57.7222 61.8334 56.5833L60.625 62.625L63.375 65.25C63.625 65.4722 63.8195 65.7431 63.9584 66.0625C64.0972 66.3819 64.1667 66.7222 64.1667 67.0833V77.0833C64.1667 77.4444 64.0486 77.7431 63.8125 77.9792C63.5764 78.2153 63.2778 78.3333 62.9167 78.3333C62.5556 78.3333 62.257 78.2153 62.0209 77.9792C61.7847 77.7431 61.6667 77.4444 61.6667 77.0833V68.1667L57.5 64.2083L54.625 77.3333C54.5695 77.6111 54.4236 77.8472 54.1875 78.0417C53.9514 78.2361 53.6806 78.3333 53.375 78.3333ZM52.4584 61.5417L54.5417 50.9583L53.0417 50.6667C52.2361 50.5278 51.5 50.6736 50.8334 51.1042C50.1667 51.5347 49.7639 52.1528 49.625 52.9583L48.375 59.5C48.3195 59.8056 48.3959 60.1111 48.6042 60.4167C48.8125 60.7222 49.0556 60.9028 49.3334 60.9583L52.4584 61.5417Z" fill="#DBB380"/>
</g>
<defs>
<clipPath id="clip0_135_215">
<rect width="120" height="120" fill="white"/>
</clipPath>
</defs>
</svg>
