<svg width="120" height="120" viewBox="0 0 120 120" fill="none" xmlns="http://www.w3.org/2000/svg">
<g clip-path="url(#clip0_135_1018)">
<path d="M-3.05176e-05 59.6057H9.43023" stroke="#7C8E74" stroke-miterlimit="10" stroke-linecap="round" stroke-linejoin="round"/>
<path d="M0.785828 50.3021L10.0589 51.7213" stroke="#7C8E74" stroke-miterlimit="10" stroke-linecap="round" stroke-linejoin="round"/>
<path d="M2.98621 41.1562L11.9449 44.0735" stroke="#7C8E74" stroke-miterlimit="10" stroke-linecap="round" stroke-linejoin="round"/>
<path d="M6.60114 32.4834L15.0098 36.8198" stroke="#7C8E74" stroke-miterlimit="10" stroke-linecap="round" stroke-linejoin="round"/>
<path d="M11.4734 24.5203L19.0962 30.0393" stroke="#7C8E74" stroke-miterlimit="10" stroke-linecap="round" stroke-linejoin="round"/>
<path d="M17.6031 17.3455L24.2829 24.0472" stroke="#7C8E74" stroke-miterlimit="10" stroke-linecap="round" stroke-linejoin="round"/>
<path d="M24.7544 11.2745L30.2554 19.0012" stroke="#7C8E74" stroke-miterlimit="10" stroke-linecap="round" stroke-linejoin="round"/>
<path d="M32.6915 6.46509L37.0137 14.8225" stroke="#7C8E74" stroke-miterlimit="10" stroke-linecap="round" stroke-linejoin="round"/>
<path d="M41.3359 2.83826L44.3222 11.9053" stroke="#7C8E74" stroke-miterlimit="10" stroke-linecap="round" stroke-linejoin="round"/>
<path d="M50.4518 0.709473L51.945 10.013" stroke="#7C8E74" stroke-miterlimit="10" stroke-linecap="round" stroke-linejoin="round"/>
<path d="M59.8035 -0.00012207V9.46111" stroke="#7C8E74" stroke-miterlimit="10" stroke-linecap="round" stroke-linejoin="round"/>
<path d="M69.1552 0.78833L67.662 10.0919" stroke="#7C8E74" stroke-miterlimit="10" stroke-linecap="round" stroke-linejoin="round"/>
<path d="M78.1925 2.99597L75.2849 11.9841" stroke="#7C8E74" stroke-miterlimit="10" stroke-linecap="round" stroke-linejoin="round"/>
<path d="M86.8369 6.6228L82.5933 15.0591" stroke="#7C8E74" stroke-miterlimit="10" stroke-linecap="round" stroke-linejoin="round"/>
<path d="M94.7741 11.511L89.2731 19.1588" stroke="#7C8E74" stroke-miterlimit="10" stroke-linecap="round" stroke-linejoin="round"/>
<path d="M101.925 17.6609L95.2455 24.3626" stroke="#7C8E74" stroke-miterlimit="10" stroke-linecap="round" stroke-linejoin="round"/>
<path d="M107.976 24.8356L100.354 30.3546" stroke="#7C8E74" stroke-miterlimit="10" stroke-linecap="round" stroke-linejoin="round"/>
<path d="M112.849 32.7988L104.44 37.1352" stroke="#7C8E74" stroke-miterlimit="10" stroke-linecap="round" stroke-linejoin="round"/>
<path d="M116.385 41.4717L107.426 44.4677" stroke="#7C8E74" stroke-miterlimit="10" stroke-linecap="round" stroke-linejoin="round"/>
<path d="M118.507 50.6174L109.234 52.1155" stroke="#7C8E74" stroke-miterlimit="10" stroke-linecap="round" stroke-linejoin="round"/>
<path d="M119.214 59.6057H109.784" stroke="#7C8E74" stroke-miterlimit="10" stroke-linecap="round" stroke-linejoin="round"/>
<path d="M0.785828 68.988L10.0589 67.49" stroke="#7C8E74" stroke-miterlimit="10" stroke-linecap="round" stroke-linejoin="round"/>
<path d="M2.98621 78.055L11.9449 75.1378" stroke="#7C8E74" stroke-miterlimit="10" stroke-linecap="round" stroke-linejoin="round"/>
<path d="M6.60114 86.7279L15.0098 82.4703" stroke="#7C8E74" stroke-miterlimit="10" stroke-linecap="round" stroke-linejoin="round"/>
<path d="M11.4734 94.7699L19.0962 89.172" stroke="#7C8E74" stroke-miterlimit="10" stroke-linecap="round" stroke-linejoin="round"/>
<path d="M17.6031 101.866L24.2829 95.1642" stroke="#7C8E74" stroke-miterlimit="10" stroke-linecap="round" stroke-linejoin="round"/>
<path d="M24.7544 107.937L30.2554 100.289" stroke="#7C8E74" stroke-miterlimit="10" stroke-linecap="round" stroke-linejoin="round"/>
<path d="M32.6915 112.825L37.0137 104.389" stroke="#7C8E74" stroke-miterlimit="10" stroke-linecap="round" stroke-linejoin="round"/>
<path d="M41.3359 116.373L44.3222 107.385" stroke="#7C8E74" stroke-miterlimit="10" stroke-linecap="round" stroke-linejoin="round"/>
<path d="M50.4518 118.502L51.945 109.198" stroke="#7C8E74" stroke-miterlimit="10" stroke-linecap="round" stroke-linejoin="round"/>
<path d="M59.8035 119.211V109.75" stroke="#7C8E74" stroke-miterlimit="10" stroke-linecap="round" stroke-linejoin="round"/>
<path d="M69.1552 118.502L67.662 109.12" stroke="#7C8E74" stroke-miterlimit="10" stroke-linecap="round" stroke-linejoin="round"/>
<path d="M78.1925 116.215L75.2849 107.227" stroke="#7C8E74" stroke-miterlimit="10" stroke-linecap="round" stroke-linejoin="round"/>
<path d="M86.8369 112.589L82.5933 104.231" stroke="#7C8E74" stroke-miterlimit="10" stroke-linecap="round" stroke-linejoin="round"/>
<path d="M94.7741 107.7L89.2731 100.052" stroke="#7C8E74" stroke-miterlimit="10" stroke-linecap="round" stroke-linejoin="round"/>
<path d="M101.925 101.55L95.2455 94.9276" stroke="#7C8E74" stroke-miterlimit="10" stroke-linecap="round" stroke-linejoin="round"/>
<path d="M107.976 94.4546L100.354 88.8567" stroke="#7C8E74" stroke-miterlimit="10" stroke-linecap="round" stroke-linejoin="round"/>
<path d="M112.849 86.4124L104.44 82.076" stroke="#7C8E74" stroke-miterlimit="10" stroke-linecap="round" stroke-linejoin="round"/>
<path d="M116.385 77.7397L107.426 74.8225" stroke="#7C8E74" stroke-miterlimit="10" stroke-linecap="round" stroke-linejoin="round"/>
<path d="M118.507 68.5939L109.234 67.0958" stroke="#7C8E74" stroke-miterlimit="10" stroke-linecap="round" stroke-linejoin="round"/>
<path d="M60 76.1667C59.8333 76.1667 59.6667 76.1389 59.5 76.0834C59.3333 76.0278 59.1805 75.9445 59.0417 75.8334C55.0139 72.2778 51.9444 68.9584 49.8333 65.875C47.7222 62.7917 46.6667 59.8334 46.6667 57C46.6667 52.8612 48.0139 49.5487 50.7083 47.0625C53.4028 44.5764 56.5 43.3334 60 43.3334C63.7222 43.3334 66.8889 44.6389 69.5 47.25C72.1111 49.8612 73.4167 53.4445 73.4167 58L76.4583 54.9584C76.7083 54.7084 77 54.5834 77.3333 54.5834C77.6667 54.5834 77.9583 54.7084 78.2083 54.9584C78.4583 55.2084 78.5833 55.5 78.5833 55.8334C78.5833 56.1667 78.4583 56.4584 78.2083 56.7084L73.0417 61.875C72.9028 62.0139 72.7639 62.1112 72.625 62.1667C72.4861 62.2223 72.3333 62.25 72.1667 62.25C72 62.25 71.8472 62.2223 71.7083 62.1667C71.5694 62.1112 71.4305 62.0139 71.2917 61.875L66.125 56.7084C65.875 56.4584 65.75 56.1667 65.75 55.8334C65.75 55.5 65.875 55.2084 66.125 54.9584C66.375 54.7084 66.6667 54.5834 67 54.5834C67.3333 54.5834 67.625 54.7084 67.875 54.9584L70.9167 58C70.9167 54.3334 69.9028 51.3889 67.875 49.1667C65.8472 46.9445 63.2222 45.8334 60 45.8334C56.9722 45.8334 54.4097 46.882 52.3125 48.9792C50.2153 51.0764 49.1667 53.75 49.1667 57C49.1667 59.2778 50.0833 61.7639 51.9167 64.4584C53.75 67.1528 56.4444 70.125 60 73.375C60.5555 72.875 61.1528 72.3056 61.7917 71.6667L63.4583 70C63.2917 69.6667 63.1597 69.3334 63.0625 69C62.9653 68.6667 62.9167 68.3473 62.9167 68.0417C62.9167 66.9862 63.2847 66.0973 64.0208 65.375C64.7569 64.6528 65.6389 64.2917 66.6667 64.2917C67.7222 64.2917 68.6111 64.6528 69.3333 65.375C70.0555 66.0973 70.4167 66.9862 70.4167 68.0417C70.4167 69.0973 70.0555 69.9862 69.3333 70.7084C68.6111 71.4306 67.7222 71.7917 66.6667 71.7917C66.4722 71.7917 66.2708 71.7778 66.0625 71.75C65.8542 71.7223 65.625 71.6667 65.375 71.5834C64.6528 72.3056 63.9375 73.0139 63.2292 73.7084C62.5208 74.4028 61.7639 75.1112 60.9583 75.8334C60.8194 75.9445 60.6736 76.0278 60.5208 76.0834C60.368 76.1389 60.1944 76.1667 60 76.1667Z" fill="#7C8E74"/>
</g>
<defs>
<clipPath id="clip0_135_1018">
<rect width="120" height="120" fill="white"/>
</clipPath>
</defs>
</svg>
