<svg width="121" height="60" viewBox="0 0 121 60" fill="none" xmlns="http://www.w3.org/2000/svg">
<path d="M62.5 31.7834L57.5834 38.3334L61.3334 43.3334C61.8834 44.0667 61.7334 45.1167 61 45.6667C60.2667 46.2167 59.2167 46.0834 58.6667 45.3334C56.9167 43.0001 54.8167 40.2167 53.5 38.4334C52.8334 37.5501 51.5 37.5501 50.8334 38.4334L44.1667 47.3167C43.35 48.4334 44.1334 50.0001 45.5 50.0001H75.5C76.8667 50.0001 77.65 48.4334 76.8334 47.3334L65.1667 31.7834C64.5 30.8834 63.1667 30.8834 62.5 31.7834Z" fill="#5D5D5D"/>
<g clip-path="url(#clip0_174_1199)">
<path d="M0.892944 59.376H10.3232" stroke="#5D5D5D" stroke-miterlimit="10" stroke-linecap="round" stroke-linejoin="round"/>
<path d="M1.67883 50.1689L10.9519 51.5734" stroke="#5D5D5D" stroke-miterlimit="10" stroke-linecap="round" stroke-linejoin="round"/>
<path d="M3.87915 41.1182L12.8379 44.005" stroke="#5D5D5D" stroke-miterlimit="10" stroke-linecap="round" stroke-linejoin="round"/>
<path d="M7.49414 32.5356L15.9028 36.8269" stroke="#5D5D5D" stroke-miterlimit="10" stroke-linecap="round" stroke-linejoin="round"/>
<path d="M12.3665 24.6553L19.9892 30.1169" stroke="#5D5D5D" stroke-miterlimit="10" stroke-linecap="round" stroke-linejoin="round"/>
<path d="M18.4961 17.5552L25.1759 24.1872" stroke="#5D5D5D" stroke-miterlimit="10" stroke-linecap="round" stroke-linejoin="round"/>
<path d="M25.6473 11.5474L31.1483 19.1937" stroke="#5D5D5D" stroke-miterlimit="10" stroke-linecap="round" stroke-linejoin="round"/>
<path d="M33.5845 6.78809L37.9067 15.0586" stroke="#5D5D5D" stroke-miterlimit="10" stroke-linecap="round" stroke-linejoin="round"/>
<path d="M42.2289 3.19873L45.2151 12.1714" stroke="#5D5D5D" stroke-miterlimit="10" stroke-linecap="round" stroke-linejoin="round"/>
<path d="M51.3448 1.09229L52.838 10.299" stroke="#5D5D5D" stroke-miterlimit="10" stroke-linecap="round" stroke-linejoin="round"/>
<path d="M60.6964 0.390137V9.75295" stroke="#5D5D5D" stroke-miterlimit="10" stroke-linecap="round" stroke-linejoin="round"/>
<path d="M70.0482 1.17041L68.5551 10.3772" stroke="#5D5D5D" stroke-miterlimit="10" stroke-linecap="round" stroke-linejoin="round"/>
<path d="M79.0855 3.35498L76.1779 12.2496" stroke="#5D5D5D" stroke-miterlimit="10" stroke-linecap="round" stroke-linejoin="round"/>
<path d="M87.7298 6.94385L83.4862 15.2924" stroke="#5D5D5D" stroke-miterlimit="10" stroke-linecap="round" stroke-linejoin="round"/>
<path d="M95.667 11.7817L90.166 19.35" stroke="#5D5D5D" stroke-miterlimit="10" stroke-linecap="round" stroke-linejoin="round"/>
<path d="M102.818 17.8672L96.1385 24.4992" stroke="#5D5D5D" stroke-miterlimit="10" stroke-linecap="round" stroke-linejoin="round"/>
<path d="M108.869 24.9673L101.247 30.4289" stroke="#5D5D5D" stroke-miterlimit="10" stroke-linecap="round" stroke-linejoin="round"/>
<path d="M113.742 32.8477L105.333 37.1389" stroke="#5D5D5D" stroke-miterlimit="10" stroke-linecap="round" stroke-linejoin="round"/>
<path d="M117.278 41.4307L108.319 44.3956" stroke="#5D5D5D" stroke-miterlimit="10" stroke-linecap="round" stroke-linejoin="round"/>
<path d="M119.4 50.481L110.127 51.9634" stroke="#5D5D5D" stroke-miterlimit="10" stroke-linecap="round" stroke-linejoin="round"/>
<path d="M120.107 59.376H110.677" stroke="#5D5D5D" stroke-miterlimit="10" stroke-linecap="round" stroke-linejoin="round"/>
</g>
<defs>
<clipPath id="clip0_174_1199">
<rect width="120" height="60" fill="white" transform="translate(0.5)"/>
</clipPath>
</defs>
</svg>
