<svg width="120" height="92" viewBox="0 0 120 92" fill="none" xmlns="http://www.w3.org/2000/svg">
<path d="M62 31.7834L57.0834 38.3334L60.8334 43.3334C61.3834 44.0667 61.2334 45.1167 60.5 45.6667C59.7667 46.2167 58.7167 46.0834 58.1667 45.3334C56.4167 43.0001 54.3167 40.2167 53 38.4334C52.3334 37.5501 51 37.5501 50.3334 38.4334L43.6667 47.3167C42.85 48.4334 43.6334 50.0001 45 50.0001H75C76.3667 50.0001 77.15 48.4334 76.3334 47.3334L64.6667 31.7834C64 30.8834 62.6667 30.8834 62 31.7834Z" fill="white"/>
<g clip-path="url(#clip0_912_4853)">
<path d="M0.392944 59.3757H9.8232" stroke="white" stroke-miterlimit="10" stroke-linecap="round" stroke-linejoin="round"/>
<path d="M1.17877 50.1689L10.4519 51.5734" stroke="white" stroke-miterlimit="10" stroke-linecap="round" stroke-linejoin="round"/>
<path d="M3.37915 41.1184L12.3379 44.0053" stroke="white" stroke-miterlimit="10" stroke-linecap="round" stroke-linejoin="round"/>
<path d="M6.99408 32.5356L15.4027 36.8269" stroke="white" stroke-miterlimit="10" stroke-linecap="round" stroke-linejoin="round"/>
<path d="M11.8664 24.6555L19.4892 30.1172" stroke="white" stroke-miterlimit="10" stroke-linecap="round" stroke-linejoin="round"/>
<path d="M17.9961 17.5552L24.6759 24.1872" stroke="white" stroke-miterlimit="10" stroke-linecap="round" stroke-linejoin="round"/>
<path d="M25.1473 11.5474L30.6483 19.1937" stroke="white" stroke-miterlimit="10" stroke-linecap="round" stroke-linejoin="round"/>
<path d="M33.0845 6.78809L37.4067 15.0586" stroke="white" stroke-miterlimit="10" stroke-linecap="round" stroke-linejoin="round"/>
<path d="M41.7289 3.19897L44.7151 12.1717" stroke="white" stroke-miterlimit="10" stroke-linecap="round" stroke-linejoin="round"/>
<path d="M50.8448 1.09229L52.338 10.299" stroke="white" stroke-miterlimit="10" stroke-linecap="round" stroke-linejoin="round"/>
<path d="M60.1964 0.390137V9.75295" stroke="white" stroke-miterlimit="10" stroke-linecap="round" stroke-linejoin="round"/>
<path d="M69.5482 1.17041L68.0551 10.3772" stroke="white" stroke-miterlimit="10" stroke-linecap="round" stroke-linejoin="round"/>
<path d="M78.5855 3.35498L75.6779 12.2496" stroke="white" stroke-miterlimit="10" stroke-linecap="round" stroke-linejoin="round"/>
<path d="M87.2298 6.94409L82.9862 15.2926" stroke="white" stroke-miterlimit="10" stroke-linecap="round" stroke-linejoin="round"/>
<path d="M95.167 11.7815L89.666 19.3498" stroke="white" stroke-miterlimit="10" stroke-linecap="round" stroke-linejoin="round"/>
<path d="M102.318 17.8674L95.6385 24.4994" stroke="white" stroke-miterlimit="10" stroke-linecap="round" stroke-linejoin="round"/>
<path d="M108.369 24.9675L100.747 30.4292" stroke="white" stroke-miterlimit="10" stroke-linecap="round" stroke-linejoin="round"/>
<path d="M113.242 32.8479L104.833 37.1392" stroke="white" stroke-miterlimit="10" stroke-linecap="round" stroke-linejoin="round"/>
<path d="M116.778 41.4304L107.819 44.3953" stroke="white" stroke-miterlimit="10" stroke-linecap="round" stroke-linejoin="round"/>
<path d="M118.9 50.4812L109.627 51.9636" stroke="white" stroke-miterlimit="10" stroke-linecap="round" stroke-linejoin="round"/>
<path d="M119.607 59.3757H110.177" stroke="white" stroke-miterlimit="10" stroke-linecap="round" stroke-linejoin="round"/>
</g>
<path d="M21.408 74.168H25.952V75.848H23.184V88.424H21.408V74.168ZM25.36 74.168H25.728L26.016 74.104L27.392 74.968C26.784 76.52 26.016 78.328 25.36 79.704C26.816 81.144 27.104 82.424 27.12 83.496C27.12 84.648 26.832 85.432 26.192 85.848C25.872 86.072 25.488 86.2 25.056 86.248C24.656 86.296 24.176 86.312 23.696 86.28C23.68 85.784 23.504 84.984 23.216 84.472C23.616 84.504 23.968 84.504 24.24 84.504C24.48 84.488 24.704 84.456 24.896 84.344C25.2 84.184 25.296 83.8 25.296 83.272C25.296 82.36 24.88 81.208 23.472 79.944C24.16 78.376 24.976 75.96 25.36 74.808V74.168ZM17.408 78.136L18.656 77.176C19.536 78.12 20.656 79.416 21.136 80.296L19.792 81.4C19.344 80.52 18.272 79.128 17.408 78.136ZM14.736 77.304L16.32 77.848C15.616 79.24 14.496 80.76 13.52 81.72C13.328 81.368 12.8 80.584 12.496 80.232C13.328 79.48 14.192 78.36 14.736 77.304ZM12.88 75.656H20.832V77.336H12.88V75.656ZM17.6 80.104L19.344 80.568C18.352 83.896 16.496 86.552 13.744 88.248C13.488 87.864 12.88 87.176 12.48 86.872C15.024 85.432 16.816 82.936 17.6 80.104ZM15.488 73.976L17.168 73.352C17.552 73.976 17.968 74.776 18.16 75.304L16.4 76.04C16.24 75.496 15.824 74.616 15.488 73.976ZM14.192 81.8L15.312 80.584C16.96 82.152 19.136 84.28 20.048 85.736L18.816 87.176C17.936 85.688 15.856 83.432 14.192 81.8ZM34.688 80.28C36.032 83.64 38.896 85.832 43.408 86.632C42.976 87.032 42.432 87.864 42.16 88.392C37.456 87.352 34.672 84.84 33.008 80.776L34.688 80.28ZM39.584 79.32H39.952L40.304 79.24L41.616 79.8C40.336 84.584 37.168 87.112 33.008 88.424C32.768 87.928 32.304 87.192 31.92 86.792C35.632 85.832 38.592 83.432 39.584 79.656V79.32ZM29.008 75.8H42.976V77.656H29.008V75.8ZM33.536 79.32H39.776V81.176H32.992L33.536 79.32ZM33.008 73.416H35.008C34.88 75.928 34.64 83.672 30.032 87.864C29.632 87.352 29.024 86.872 28.368 86.488C32.944 82.76 32.912 75.368 33.008 73.416ZM53.104 86.552L54.304 85.304C56.112 85.816 58.144 86.584 59.312 87.144L57.712 88.44C56.672 87.848 54.864 87.08 53.104 86.552ZM44.864 83.912H59.152V85.48H44.864V83.912ZM45.28 74.504H58.752V76.104H45.28V74.504ZM49.328 85.416L50.928 86.536C49.664 87.304 47.664 88.072 46.08 88.456C45.76 88.088 45.184 87.496 44.768 87.144C46.384 86.792 48.336 86.056 49.328 85.416ZM47.92 78.696H55.808V79.784H47.92V78.696ZM47.92 80.376H55.808V81.464H47.92V80.376ZM47.92 82.088H55.808V83.16H47.92V82.088ZM46.992 76.808H57.072V84.52H55.136V78.008H48.832V84.52H46.992V76.808ZM51.296 73.368L53.328 73.576C53.072 75 52.784 76.488 52.528 77.448L50.736 77.224C50.976 76.184 51.216 74.552 51.296 73.368ZM67.552 82.632H73.216V83.992H67.552V82.632ZM65.936 74.504H74.912V75.88H65.936V74.504ZM66.496 76.52H74.4V77.816H66.496V76.52ZM65.568 78.488H75.424V79.864H65.568V78.488ZM67.552 84.712H73.232V86.04H67.552V84.712ZM72.736 80.488H74.544V86.616C74.544 87.448 74.4 87.912 73.808 88.168C73.248 88.44 72.448 88.456 71.344 88.456C71.264 87.976 71.04 87.272 70.816 86.824C71.472 86.856 72.24 86.856 72.448 86.84C72.656 86.84 72.736 86.776 72.736 86.584V80.488ZM69.472 73.416H71.376V78.936H69.472V73.416ZM62.784 73.384H64.56V88.408H62.784V73.384ZM61.136 76.584L62.592 76.792C62.496 78.168 62.208 80.072 61.84 81.32L60.32 80.776C60.704 79.688 61.008 77.912 61.136 76.584ZM64.144 76.088L65.392 75.528C65.792 76.328 66.288 77.4 66.496 78.024L65.184 78.696C64.992 78.04 64.528 76.92 64.144 76.088ZM66.416 80.488H68.208V83.432C68.208 85.048 67.968 87.224 66.784 88.6C66.528 88.248 65.776 87.544 65.408 87.304C66.336 86.184 66.416 84.632 66.416 83.384V80.488ZM67.456 80.488H73.712V81.832H67.456V80.488ZM89.328 76.52L91.152 76.888C90.752 78.232 90.304 79.736 89.936 80.696L88.448 80.328C88.8 79.304 89.168 77.688 89.328 76.52ZM83.248 76.984L84.784 76.648C85.152 77.832 85.44 79.352 85.504 80.36L83.888 80.728C83.856 79.72 83.568 78.168 83.248 76.984ZM83.104 74.216H91.216V75.992H83.104V74.216ZM82.56 81.144H91.52V82.968H82.56V81.144ZM86.08 74.84H87.968V88.424H86.08V74.84ZM77.232 78.296H81.936V79.752H77.232V78.296ZM77.232 80.472H81.952V81.912H77.232V80.472ZM76.608 76.072H82.608V77.592H76.608V76.072ZM78.032 82.68H81.968V87.544H78.032V86.008H80.448V84.216H78.032V82.68ZM77.248 82.68H78.752V88.232H77.248V82.68ZM78.208 74.056L79.568 73.336C79.984 74.008 80.448 74.888 80.672 75.48L79.248 76.328C79.056 75.72 78.592 74.744 78.208 74.056ZM97.072 74.12H107.376V75.512H97.072V74.12ZM99.024 77.32V78.408H105.136V77.32H99.024ZM97.376 76.2H106.88V79.512H97.376V76.2ZM100.016 74.632H101.52V78.872H100.016V74.632ZM102.576 74.632H104.112V78.872H102.576V74.632ZM99.392 82.76V83.352H104.848V82.76H99.392ZM99.392 84.376V84.984H104.848V84.376H99.392ZM99.392 81.144V81.736H104.848V81.144H99.392ZM97.616 80.072H106.72V86.056H97.616V80.072ZM102.624 86.952L103.856 85.896C105.216 86.344 106.816 86.968 107.744 87.416L106.096 88.488C105.312 88.024 103.936 87.4 102.624 86.952ZM100.24 85.864L101.568 86.824C100.512 87.56 98.896 88.152 97.472 88.456C97.264 88.072 96.816 87.48 96.48 87.16C97.856 86.888 99.36 86.392 100.24 85.864ZM95.344 73.448L97.12 73.96C96.208 76.76 94.736 79.8 93.104 81.72C92.944 81.24 92.48 80.152 92.176 79.64C93.472 78.136 94.656 75.784 95.344 73.448ZM94.08 77.832L95.856 76.072L95.904 76.104V88.424H94.08V77.832Z" fill="white"/>
<defs>
<clipPath id="clip0_912_4853">
<rect width="120" height="60" fill="white"/>
</clipPath>
</defs>
</svg>
