<svg width="120" height="60" viewBox="0 0 120 60" fill="none" xmlns="http://www.w3.org/2000/svg">
<path d="M62 31.7834L57.0834 38.3334L60.8334 43.3334C61.3834 44.0667 61.2334 45.1167 60.5 45.6667C59.7667 46.2167 58.7167 46.0834 58.1667 45.3334C56.4167 43.0001 54.3167 40.2167 53 38.4334C52.3334 37.5501 51 37.5501 50.3334 38.4334L43.6667 47.3167C42.85 48.4334 43.6334 50.0001 45 50.0001H75C76.3667 50.0001 77.15 48.4334 76.3334 47.3334L64.6667 31.7834C64 30.8834 62.6667 30.8834 62 31.7834Z" fill="white"/>
<g clip-path="url(#clip0_174_1081)">
<path d="M0.392944 59.3757H9.8232" stroke="white" stroke-miterlimit="10" stroke-linecap="round" stroke-linejoin="round"/>
<path d="M1.17877 50.1689L10.4519 51.5734" stroke="white" stroke-miterlimit="10" stroke-linecap="round" stroke-linejoin="round"/>
<path d="M3.37915 41.1184L12.3379 44.0053" stroke="white" stroke-miterlimit="10" stroke-linecap="round" stroke-linejoin="round"/>
<path d="M6.99408 32.5356L15.4027 36.8269" stroke="white" stroke-miterlimit="10" stroke-linecap="round" stroke-linejoin="round"/>
<path d="M11.8664 24.6555L19.4892 30.1172" stroke="white" stroke-miterlimit="10" stroke-linecap="round" stroke-linejoin="round"/>
<path d="M17.9961 17.5552L24.6759 24.1872" stroke="white" stroke-miterlimit="10" stroke-linecap="round" stroke-linejoin="round"/>
<path d="M25.1473 11.5474L30.6483 19.1937" stroke="white" stroke-miterlimit="10" stroke-linecap="round" stroke-linejoin="round"/>
<path d="M33.0845 6.78809L37.4067 15.0586" stroke="white" stroke-miterlimit="10" stroke-linecap="round" stroke-linejoin="round"/>
<path d="M41.7289 3.19897L44.7151 12.1717" stroke="white" stroke-miterlimit="10" stroke-linecap="round" stroke-linejoin="round"/>
<path d="M50.8448 1.09229L52.338 10.299" stroke="white" stroke-miterlimit="10" stroke-linecap="round" stroke-linejoin="round"/>
<path d="M60.1964 0.390137V9.75295" stroke="white" stroke-miterlimit="10" stroke-linecap="round" stroke-linejoin="round"/>
<path d="M69.5482 1.17041L68.0551 10.3772" stroke="white" stroke-miterlimit="10" stroke-linecap="round" stroke-linejoin="round"/>
<path d="M78.5855 3.35498L75.6779 12.2496" stroke="white" stroke-miterlimit="10" stroke-linecap="round" stroke-linejoin="round"/>
<path d="M87.2298 6.94409L82.9862 15.2926" stroke="white" stroke-miterlimit="10" stroke-linecap="round" stroke-linejoin="round"/>
<path d="M95.167 11.7815L89.666 19.3498" stroke="white" stroke-miterlimit="10" stroke-linecap="round" stroke-linejoin="round"/>
<path d="M102.318 17.8674L95.6385 24.4994" stroke="white" stroke-miterlimit="10" stroke-linecap="round" stroke-linejoin="round"/>
<path d="M108.369 24.9675L100.747 30.4292" stroke="white" stroke-miterlimit="10" stroke-linecap="round" stroke-linejoin="round"/>
<path d="M113.242 32.8479L104.833 37.1392" stroke="white" stroke-miterlimit="10" stroke-linecap="round" stroke-linejoin="round"/>
<path d="M116.778 41.4304L107.819 44.3953" stroke="white" stroke-miterlimit="10" stroke-linecap="round" stroke-linejoin="round"/>
<path d="M118.9 50.4812L109.627 51.9636" stroke="white" stroke-miterlimit="10" stroke-linecap="round" stroke-linejoin="round"/>
<path d="M119.607 59.3757H110.177" stroke="white" stroke-miterlimit="10" stroke-linecap="round" stroke-linejoin="round"/>
</g>
<defs>
<clipPath id="clip0_174_1081">
<rect width="120" height="60" fill="white"/>
</clipPath>
</defs>
</svg>
