<svg width="120" height="120" viewBox="0 0 120 120" fill="none" xmlns="http://www.w3.org/2000/svg">
<g clip-path="url(#clip0_135_614)">
<path d="M-1.52588e-05 59.6057H9.43024" stroke="#A7B47F" stroke-miterlimit="10" stroke-linecap="round" stroke-linejoin="round"/>
<path d="M0.785839 50.3021L10.0589 51.7213" stroke="#A7B47F" stroke-miterlimit="10" stroke-linecap="round" stroke-linejoin="round"/>
<path d="M2.98623 41.1562L11.945 44.0735" stroke="#A7B47F" stroke-miterlimit="10" stroke-linecap="round" stroke-linejoin="round"/>
<path d="M6.60116 32.4834L15.0098 36.8198" stroke="#A7B47F" stroke-miterlimit="10" stroke-linecap="round" stroke-linejoin="round"/>
<path d="M11.4735 24.5203L19.0963 30.0393" stroke="#A7B47F" stroke-miterlimit="10" stroke-linecap="round" stroke-linejoin="round"/>
<path d="M17.6031 17.3455L24.2829 24.0472" stroke="#A7B47F" stroke-miterlimit="10" stroke-linecap="round" stroke-linejoin="round"/>
<path d="M24.7544 11.2745L30.2554 19.0012" stroke="#A7B47F" stroke-miterlimit="10" stroke-linecap="round" stroke-linejoin="round"/>
<path d="M32.6915 6.46509L37.0137 14.8225" stroke="#A7B47F" stroke-miterlimit="10" stroke-linecap="round" stroke-linejoin="round"/>
<path d="M41.3359 2.83826L44.3222 11.9053" stroke="#A7B47F" stroke-miterlimit="10" stroke-linecap="round" stroke-linejoin="round"/>
<path d="M50.4519 0.709473L51.945 10.013" stroke="#A7B47F" stroke-miterlimit="10" stroke-linecap="round" stroke-linejoin="round"/>
<path d="M59.8035 -0.00012207V9.46111" stroke="#A7B47F" stroke-miterlimit="10" stroke-linecap="round" stroke-linejoin="round"/>
<path d="M69.1552 0.78833L67.6621 10.0919" stroke="#A7B47F" stroke-miterlimit="10" stroke-linecap="round" stroke-linejoin="round"/>
<path d="M78.1925 2.99597L75.2849 11.9841" stroke="#A7B47F" stroke-miterlimit="10" stroke-linecap="round" stroke-linejoin="round"/>
<path d="M86.8369 6.6228L82.5933 15.0591" stroke="#A7B47F" stroke-miterlimit="10" stroke-linecap="round" stroke-linejoin="round"/>
<path d="M94.7741 11.511L89.2731 19.1588" stroke="#A7B47F" stroke-miterlimit="10" stroke-linecap="round" stroke-linejoin="round"/>
<path d="M101.925 17.6609L95.2456 24.3626" stroke="#A7B47F" stroke-miterlimit="10" stroke-linecap="round" stroke-linejoin="round"/>
<path d="M107.976 24.8356L100.354 30.3546" stroke="#A7B47F" stroke-miterlimit="10" stroke-linecap="round" stroke-linejoin="round"/>
<path d="M112.849 32.7988L104.44 37.1352" stroke="#A7B47F" stroke-miterlimit="10" stroke-linecap="round" stroke-linejoin="round"/>
<path d="M116.385 41.4717L107.426 44.4677" stroke="#A7B47F" stroke-miterlimit="10" stroke-linecap="round" stroke-linejoin="round"/>
<path d="M118.507 50.6174L109.234 52.1155" stroke="#A7B47F" stroke-miterlimit="10" stroke-linecap="round" stroke-linejoin="round"/>
<path d="M119.214 59.6057H109.784" stroke="#A7B47F" stroke-miterlimit="10" stroke-linecap="round" stroke-linejoin="round"/>
<path d="M0.785839 68.988L10.0589 67.49" stroke="#A7B47F" stroke-miterlimit="10" stroke-linecap="round" stroke-linejoin="round"/>
<path d="M2.98623 78.055L11.945 75.1378" stroke="#A7B47F" stroke-miterlimit="10" stroke-linecap="round" stroke-linejoin="round"/>
<path d="M6.60116 86.7279L15.0098 82.4703" stroke="#A7B47F" stroke-miterlimit="10" stroke-linecap="round" stroke-linejoin="round"/>
<path d="M11.4735 94.7699L19.0963 89.172" stroke="#A7B47F" stroke-miterlimit="10" stroke-linecap="round" stroke-linejoin="round"/>
<path d="M17.6031 101.866L24.2829 95.1642" stroke="#A7B47F" stroke-miterlimit="10" stroke-linecap="round" stroke-linejoin="round"/>
<path d="M24.7544 107.937L30.2554 100.289" stroke="#A7B47F" stroke-miterlimit="10" stroke-linecap="round" stroke-linejoin="round"/>
<path d="M32.6915 112.825L37.0137 104.389" stroke="#A7B47F" stroke-miterlimit="10" stroke-linecap="round" stroke-linejoin="round"/>
<path d="M41.3359 116.373L44.3222 107.385" stroke="#A7B47F" stroke-miterlimit="10" stroke-linecap="round" stroke-linejoin="round"/>
<path d="M50.4519 118.502L51.945 109.198" stroke="#A7B47F" stroke-miterlimit="10" stroke-linecap="round" stroke-linejoin="round"/>
<path d="M59.8035 119.211V109.75" stroke="#A7B47F" stroke-miterlimit="10" stroke-linecap="round" stroke-linejoin="round"/>
<path d="M69.1552 118.502L67.6621 109.12" stroke="#A7B47F" stroke-miterlimit="10" stroke-linecap="round" stroke-linejoin="round"/>
<path d="M78.1925 116.215L75.2849 107.227" stroke="#A7B47F" stroke-miterlimit="10" stroke-linecap="round" stroke-linejoin="round"/>
<path d="M86.8369 112.589L82.5933 104.231" stroke="#A7B47F" stroke-miterlimit="10" stroke-linecap="round" stroke-linejoin="round"/>
<path d="M94.7741 107.7L89.2731 100.052" stroke="#A7B47F" stroke-miterlimit="10" stroke-linecap="round" stroke-linejoin="round"/>
<path d="M101.925 101.55L95.2456 94.9276" stroke="#A7B47F" stroke-miterlimit="10" stroke-linecap="round" stroke-linejoin="round"/>
<path d="M107.976 94.4546L100.354 88.8567" stroke="#A7B47F" stroke-miterlimit="10" stroke-linecap="round" stroke-linejoin="round"/>
<path d="M112.849 86.4124L104.44 82.076" stroke="#A7B47F" stroke-miterlimit="10" stroke-linecap="round" stroke-linejoin="round"/>
<path d="M116.385 77.7397L107.426 74.8225" stroke="#A7B47F" stroke-miterlimit="10" stroke-linecap="round" stroke-linejoin="round"/>
<path d="M118.507 68.5939L109.234 67.0958" stroke="#A7B47F" stroke-miterlimit="10" stroke-linecap="round" stroke-linejoin="round"/>
<path d="M47.5 75C46.8333 75 46.25 74.75 45.75 74.25C45.25 73.75 45 73.1667 45 72.5V47.5C45 46.8334 45.25 46.25 45.75 45.75C46.25 45.25 46.8333 45 47.5 45H56.375V47.5H47.5V72.5H72.5V61.2084L75 63.7084V72.5C75 73.1667 74.75 73.75 74.25 74.25C73.75 74.75 73.1667 75 72.5 75H47.5ZM75.5833 60.6667L70.9167 56.0417C70.3333 56.4306 69.7569 56.7153 69.1875 56.8959C68.6181 57.0764 67.9444 57.1667 67.1667 57.1667C65.2222 57.1667 63.5833 56.5 62.25 55.1667C60.9167 53.8334 60.25 52.1945 60.25 50.25C60.25 48.3056 60.9167 46.6667 62.25 45.3334C63.5833 44 65.2222 43.3334 67.1667 43.3334C69.1111 43.3334 70.75 44 72.0833 45.3334C73.4167 46.6667 74.0833 48.3056 74.0833 50.25C74.0833 51.0278 73.9722 51.7639 73.75 52.4584C73.5278 53.1528 73.2222 53.7917 72.8333 54.375L77.375 58.9167C77.625 59.1667 77.75 59.4584 77.75 59.7917C77.75 60.125 77.625 60.4167 77.375 60.6667C77.125 60.9167 76.8264 61.0417 76.4792 61.0417C76.1319 61.0417 75.8333 60.9167 75.5833 60.6667ZM67.1667 54.6667C68.4444 54.6667 69.5 54.25 70.3333 53.4167C71.1667 52.5834 71.5833 51.5278 71.5833 50.25C71.5833 48.9723 71.1667 47.9167 70.3333 47.0834C69.5 46.25 68.4444 45.8334 67.1667 45.8334C65.8889 45.8334 64.8333 46.25 64 47.0834C63.1667 47.9167 62.75 48.9723 62.75 50.25C62.75 51.5278 63.1667 52.5834 64 53.4167C64.8333 54.25 65.8889 54.6667 67.1667 54.6667ZM51.1667 68.4584C50.9167 68.4584 50.7292 68.3473 50.6042 68.125C50.4792 67.9028 50.5 67.6806 50.6667 67.4584L54.25 62.8334C54.3889 62.6667 54.5556 62.5834 54.75 62.5834C54.9444 62.5834 55.1111 62.6667 55.25 62.8334L58.625 67.4167L63.5417 61C63.6806 60.8334 63.8472 60.75 64.0417 60.75C64.2361 60.75 64.4028 60.8334 64.5417 61L69.4167 67.4584C69.5556 67.6806 69.5694 67.9028 69.4583 68.125C69.3472 68.3473 69.1667 68.4584 68.9167 68.4584H51.1667Z" fill="#A7B47F"/>
</g>
<defs>
<clipPath id="clip0_135_614">
<rect width="120" height="120" fill="white"/>
</clipPath>
</defs>
</svg>
