<svg width="120" height="60" viewBox="0 0 120 60" fill="none" xmlns="http://www.w3.org/2000/svg">
<path d="M70 40C70 40.9166 70.75 41.6666 71.6667 41.6666H75C75.9167 41.6666 76.6667 40.9166 76.6667 40C76.6667 39.0833 75.9167 38.3333 75 38.3333H71.6667C70.75 38.3333 70 39.0833 70 40Z" fill="#5D5D5D"/>
<path d="M67.65 48.0333C67.1 48.7667 67.25 49.7833 67.9833 50.3167C68.8667 50.9667 69.8 51.6667 70.6833 52.3333C71.4167 52.8833 72.45 52.7333 72.9833 52C72.9833 51.9833 73 51.9833 73 51.9667C73.55 51.2333 73.4 50.2 72.6667 49.6667C71.7833 49 70.85 48.3 69.9833 47.65C69.25 47.1 68.2167 47.2667 67.6667 48C67.6667 48.0167 67.65 48.0333 67.65 48.0333Z" fill="#5D5D5D"/>
<path d="M73.0167 28.0167C73.0167 28 73 28 73 27.9834C72.45 27.25 71.4167 27.1 70.7 27.65C69.8167 28.3167 68.8667 29.0167 68 29.6834C67.2667 30.2334 67.1333 31.2667 67.6833 31.9834C67.6833 32 67.7 32 67.7 32.0167C68.25 32.75 69.2667 32.9 70 32.35C70.8833 31.7 71.8167 30.9834 72.7 30.3167C73.4167 29.7834 73.55 28.75 73.0167 28.0167Z" fill="#5D5D5D"/>
<path d="M53.3333 35H46.6667C44.8333 35 43.3333 36.5 43.3333 38.3333V41.6667C43.3333 43.5 44.8333 45 46.6667 45H48.3333V50C48.3333 50.9167 49.0833 51.6667 50 51.6667C50.9167 51.6667 51.6667 50.9167 51.6667 50V45H53.3333L61.6667 50V30L53.3333 35Z" fill="#5D5D5D"/>
<path d="M65.8333 40C65.8333 37.7833 64.8667 35.7833 63.3333 34.4166V45.5666C64.8667 44.2166 65.8333 42.2166 65.8333 40Z" fill="#5D5D5D"/>
<g clip-path="url(#clip0_94_582)">
<path d="M0.392929 59.3758H9.82318" stroke="#84837F" stroke-miterlimit="10" stroke-linecap="round" stroke-linejoin="round"/>
<path d="M1.17878 50.1691L10.4519 51.5735" stroke="#84837F" stroke-miterlimit="10" stroke-linecap="round" stroke-linejoin="round"/>
<path d="M3.37917 41.1183L12.3379 44.0052" stroke="#84837F" stroke-miterlimit="10" stroke-linecap="round" stroke-linejoin="round"/>
<path d="M6.99411 32.5358L15.4028 36.8271" stroke="#84837F" stroke-miterlimit="10" stroke-linecap="round" stroke-linejoin="round"/>
<path d="M11.8664 24.6554L19.4892 30.117" stroke="#84837F" stroke-miterlimit="10" stroke-linecap="round" stroke-linejoin="round"/>
<path d="M17.9961 17.5553L24.6758 24.1873" stroke="#84837F" stroke-miterlimit="10" stroke-linecap="round" stroke-linejoin="round"/>
<path d="M25.1473 11.5475L30.6483 19.1938" stroke="#84837F" stroke-miterlimit="10" stroke-linecap="round" stroke-linejoin="round"/>
<path d="M33.0845 6.78802L37.4067 15.0585" stroke="#84837F" stroke-miterlimit="10" stroke-linecap="round" stroke-linejoin="round"/>
<path d="M41.7289 3.19897L44.7151 12.1717" stroke="#84837F" stroke-miterlimit="10" stroke-linecap="round" stroke-linejoin="round"/>
<path d="M50.8448 1.09235L52.3379 10.2991" stroke="#84837F" stroke-miterlimit="10" stroke-linecap="round" stroke-linejoin="round"/>
<path d="M60.1965 0.390137V9.75295" stroke="#84837F" stroke-miterlimit="10" stroke-linecap="round" stroke-linejoin="round"/>
<path d="M69.5481 1.17035L68.055 10.3771" stroke="#84837F" stroke-miterlimit="10" stroke-linecap="round" stroke-linejoin="round"/>
<path d="M78.5855 3.35498L75.6778 12.2496" stroke="#84837F" stroke-miterlimit="10" stroke-linecap="round" stroke-linejoin="round"/>
<path d="M87.2299 6.94409L82.9862 15.2926" stroke="#84837F" stroke-miterlimit="10" stroke-linecap="round" stroke-linejoin="round"/>
<path d="M95.167 11.7816L89.666 19.3498" stroke="#84837F" stroke-miterlimit="10" stroke-linecap="round" stroke-linejoin="round"/>
<path d="M102.318 17.8674L95.6385 24.4994" stroke="#84837F" stroke-miterlimit="10" stroke-linecap="round" stroke-linejoin="round"/>
<path d="M108.369 24.9675L100.747 30.4291" stroke="#84837F" stroke-miterlimit="10" stroke-linecap="round" stroke-linejoin="round"/>
<path d="M113.242 32.8478L104.833 37.1391" stroke="#84837F" stroke-miterlimit="10" stroke-linecap="round" stroke-linejoin="round"/>
<path d="M116.778 41.4304L107.819 44.3953" stroke="#84837F" stroke-miterlimit="10" stroke-linecap="round" stroke-linejoin="round"/>
<path d="M118.9 50.4811L109.627 51.9636" stroke="#84837F" stroke-miterlimit="10" stroke-linecap="round" stroke-linejoin="round"/>
<path d="M119.607 59.3758H110.177" stroke="#84837F" stroke-miterlimit="10" stroke-linecap="round" stroke-linejoin="round"/>
</g>
<defs>
<clipPath id="clip0_94_582">
<rect width="120" height="60" fill="white"/>
</clipPath>
</defs>
</svg>
