<svg width="120" height="60" viewBox="0 0 120 60" fill="none" xmlns="http://www.w3.org/2000/svg">
<g clip-path="url(#clip0_230_1779)">
<path d="M0.392914 59.3758H9.82317" stroke="#84837F" stroke-miterlimit="10" stroke-linecap="round" stroke-linejoin="round"/>
<path d="M1.17877 50.1691L10.4519 51.5735" stroke="#84837F" stroke-miterlimit="10" stroke-linecap="round" stroke-linejoin="round"/>
<path d="M3.37918 41.1183L12.3379 44.0052" stroke="#84837F" stroke-miterlimit="10" stroke-linecap="round" stroke-linejoin="round"/>
<path d="M6.99411 32.5358L15.4028 36.8271" stroke="#84837F" stroke-miterlimit="10" stroke-linecap="round" stroke-linejoin="round"/>
<path d="M11.8664 24.6554L19.4892 30.117" stroke="#84837F" stroke-miterlimit="10" stroke-linecap="round" stroke-linejoin="round"/>
<path d="M17.9961 17.5553L24.6758 24.1873" stroke="#84837F" stroke-miterlimit="10" stroke-linecap="round" stroke-linejoin="round"/>
<path d="M25.1473 11.5475L30.6483 19.1938" stroke="#84837F" stroke-miterlimit="10" stroke-linecap="round" stroke-linejoin="round"/>
<path d="M33.0845 6.78802L37.4067 15.0585" stroke="#84837F" stroke-miterlimit="10" stroke-linecap="round" stroke-linejoin="round"/>
<path d="M41.7289 3.19897L44.7151 12.1717" stroke="#84837F" stroke-miterlimit="10" stroke-linecap="round" stroke-linejoin="round"/>
<path d="M50.8448 1.09235L52.3379 10.2991" stroke="#84837F" stroke-miterlimit="10" stroke-linecap="round" stroke-linejoin="round"/>
<path d="M60.1965 0.390137V9.75295" stroke="#84837F" stroke-miterlimit="10" stroke-linecap="round" stroke-linejoin="round"/>
<path d="M69.5481 1.17035L68.055 10.3771" stroke="#84837F" stroke-miterlimit="10" stroke-linecap="round" stroke-linejoin="round"/>
<path d="M78.5855 3.35498L75.6778 12.2496" stroke="#84837F" stroke-miterlimit="10" stroke-linecap="round" stroke-linejoin="round"/>
<path d="M87.2299 6.94409L82.9862 15.2926" stroke="#84837F" stroke-miterlimit="10" stroke-linecap="round" stroke-linejoin="round"/>
<path d="M95.167 11.7816L89.666 19.3498" stroke="#84837F" stroke-miterlimit="10" stroke-linecap="round" stroke-linejoin="round"/>
<path d="M102.318 17.8674L95.6385 24.4994" stroke="#84837F" stroke-miterlimit="10" stroke-linecap="round" stroke-linejoin="round"/>
<path d="M108.369 24.9675L100.747 30.4291" stroke="#84837F" stroke-miterlimit="10" stroke-linecap="round" stroke-linejoin="round"/>
<path d="M113.242 32.8478L104.833 37.1391" stroke="#84837F" stroke-miterlimit="10" stroke-linecap="round" stroke-linejoin="round"/>
<path d="M116.778 41.4304L107.819 44.3953" stroke="#84837F" stroke-miterlimit="10" stroke-linecap="round" stroke-linejoin="round"/>
<path d="M118.9 50.4811L109.627 51.9636" stroke="#84837F" stroke-miterlimit="10" stroke-linecap="round" stroke-linejoin="round"/>
<path d="M119.607 59.3758H110.177" stroke="#84837F" stroke-miterlimit="10" stroke-linecap="round" stroke-linejoin="round"/>
</g>
<defs>
<clipPath id="clip0_230_1779">
<rect width="120" height="60" fill="white"/>
</clipPath>
</defs>
</svg>
