<svg width="196" height="92" viewBox="0 0 196 92" fill="none" xmlns="http://www.w3.org/2000/svg">
<g clip-path="url(#clip0_929_3194)">
<path d="M108.376 10.9058L109.584 4.44345C109.778 3.30765 109.116 2.21101 107.986 1.93686L103.154 0.683556C102.063 0.409397 100.933 0.996881 100.582 2.05435L98.2833 8.39918M2.62129 28.2561C2.69922 28.2561 2.77715 28.217 2.85508 28.1778C5.38788 27.2378 10.3756 25.632 18.4805 24.1829C26.9752 22.6555 32.5863 22.4988 35.4308 22.5771C35.4698 22.5771 35.5088 22.5771 35.5477 22.5771C36.5998 22.538 37.3791 21.4805 37.0674 20.4622C35.6257 15.2532 31.1056 6.87172 22.1823 5.77508C19.8443 5.46175 17.2336 5.69675 14.2722 6.55839C13.0642 6.91088 11.9342 7.3417 10.9601 7.85086M10.9601 7.81169C1.60817 12.3549 0.556077 22.1071 0.595043 26.6503C0.595043 27.747 1.60817 28.5303 2.62129 28.2953M22.1823 5.73591L21.8316 4.63927C21.5978 3.93429 20.9744 3.38598 20.234 3.34681C19.3378 3.26848 17.896 3.26848 15.9088 3.54264C14.0384 3.77763 12.7525 4.24762 11.8952 4.63927C11.1549 4.99176 10.6873 5.81424 10.8042 6.63672L10.9601 7.81169M31.0666 18.1514C30.7549 17.1723 30.677 16.8981 30.3652 15.919M24.6372 14.744C25.1827 15.4098 25.5334 15.9973 26.0789 16.6631M19.143 18.6997C19.065 18.1514 18.7923 17.4073 18.7143 16.8589M12.4018 17.8381C12.5187 18.5822 12.3239 18.9347 12.4408 19.6789M6.51791 19.0522C6.63481 19.8355 6.51791 20.2272 6.67377 21.0105M12.5577 12.6291C12.4797 12.0807 12.3628 11.5716 12.2849 11.0233M21.2861 11.1408C21.2082 10.5924 21.0913 10.0833 21.0133 9.53497M16.4933 10.6316C16.6101 11.2583 16.6881 11.9241 16.805 12.5507M27.4817 10.7099C27.4038 10.5141 27.3259 10.3183 27.209 10.0833M7.41413 14.8223C7.41413 14.5482 7.41413 14.274 7.4531 13.9999M158.019 55.9854C158.408 55.3588 158.798 54.6929 159.187 54.0663M155.875 51.2464C156.265 50.3064 156.616 49.3664 157.005 48.4264M77.865 62.0952C77.865 60.6461 77.865 59.2361 77.865 57.787M157.239 3.77764C164.682 5.50093 175.047 4.09097 180.229 2.68101M3.55648 22.5771C3.32268 23.1646 3.24475 23.8696 3.40061 24.4962M75.9946 34.9926C74.8257 38.4784 73.8905 42.1991 73.267 46.1157C70.0328 66.2468 77.7871 83.793 85.4245 87.3179L85.6583 87.8662C86.0479 88.767 87.1779 89.0412 87.9183 88.3753L88.308 88.0229C98.7119 88.7278 113.168 73.4141 116.481 52.8521C117.143 48.8181 117.377 44.8624 117.299 41.1025M2.62129 28.2561C0.517115 35.5409 0.0105534 44.5882 1.64713 54.1054C5.03719 74.2757 18.7143 89.002 28.3 89.0803L29.3131 89.7853C30.0535 90.2945 31.0666 89.8636 31.2225 88.9628L31.3004 88.532C38.8988 85.2813 48.4066 66.7559 45.0555 46.7423C43.4579 37.1859 39.9899 28.7653 35.6257 22.5771M74.2801 30.6844C75.1764 30.6844 76.2674 30.7236 77.5923 30.7627C81.9565 30.9586 88.8535 31.5461 99.4523 32.9952C107.674 34.131 113.207 35.2276 116.909 36.1676C118.351 36.5201 119.52 36.8726 120.455 37.2251M75.8388 25.5145C76.9298 25.5145 78.3326 25.5537 80.0861 25.632C84.4893 25.867 91.1135 26.4937 100.972 27.8253C107.557 28.7261 112.428 29.6269 116.013 30.4103C117.961 30.8411 119.52 31.2719 120.767 31.6244M78.0988 20.7755C79.3847 20.8147 81.0213 20.893 82.9696 21.0105C87.2948 21.3238 93.2956 21.9113 101.595 23.0471C106.973 23.7913 111.181 24.4962 114.532 25.2012C116.909 25.6712 118.819 26.1412 120.377 26.572M81.6447 15.919C83.1255 15.9973 84.9179 16.1148 86.9442 16.3106C90.9187 16.6631 95.9843 17.2114 102.453 18.1123C106.116 18.6214 109.272 19.1306 111.96 19.6005C114.727 20.1097 117.026 20.5797 118.896 21.0105M86.4766 11.8066C88.1521 11.9632 90.0614 12.1591 92.2046 12.3941C95.0491 12.7074 98.3223 13.0991 102.024 13.6082C104.245 13.9215 106.232 14.1957 108.064 14.509C111.064 14.979 113.597 15.449 115.701 15.919M117.221 41.1416C116.909 41.1808 116.597 41.1808 116.286 41.1416L77.2026 35.4234C76.774 35.3451 76.3453 35.2276 75.9557 34.9926C74.6308 34.2485 73.8515 32.721 74.1632 31.1544C75.566 24.0263 79.7354 15.2923 88.3469 10.6316C91.5811 8.90833 94.9712 8.24251 98.3223 8.36001C101.868 8.47751 105.375 9.45665 108.376 10.8666C111.493 12.3157 114.143 14.2349 115.935 16.1148C120.416 20.8538 121.429 30.4103 120.338 38.0867C120.143 39.7317 118.78 40.985 117.221 41.1416ZM157.239 3.77764C147.77 9.29999 146.446 22.773 148.316 43.3741C150.537 68.1267 163.279 87.5529 172.514 89.5112L173.644 90.9603C174.151 91.6261 175.164 91.5086 175.553 90.8036L176.566 88.8845C184.087 84.5763 197.296 63.3485 195.192 39.8492C193.4 20.1489 190.75 7.18505 180.229 2.68101C176.722 1.19271 172.397 0.605229 166.903 1.03605C163.006 1.34937 159.811 2.28935 157.239 3.77764Z" stroke="#84837F" stroke-miterlimit="10" stroke-linecap="round" stroke-linejoin="round"/>
</g>
<defs>
<clipPath id="clip0_929_3194">
<rect width="196" height="92" fill="white"/>
</clipPath>
</defs>
</svg>
