<svg width="198" height="492" fill="none" xmlns="http://www.w3.org/2000/svg"><g clip-path="url(#a)"><path d="M118.761 378.326c-4.011 1.664-7.631 2.644-10.174 3.133-1.272.294-2.446-.685-2.446-1.958l-.391-11.847m14.087 14.882c-3.717 1.665-7.141 2.742-9.783 3.329-2.25.49-3.815 2.546-3.717 4.798l1.369 100.26M56.348 373.528c4.793 11.358 14.478 25.555 33.26 31.919 2.838.979 5.675-1.175 5.772-4.112v-33.779m-.587 123.465.49-75.685c0-2.252-1.468-4.21-3.62-4.798-22.304-6.364-33.75-22.715-39.326-34.954m51.359 23.107.684 38.969m0 5.385.196 7.833m.391 2.741.881 35.542m-4.5-66.677 1.467 53.85m-5.87-56.2.196 70.397m0-118.569v16.449m2.935 10.28v5.875m-37.565-14.98s9.685 11.259 17.413 14.784m32.576-22.323s3.326-.98 6.261-2.154M48.033 253.294c-3.718.686-5.87 5.581-3.816 8.812 2.25 3.525 8.511 3.329 10.076-.783.294-.685.685-1.371 1.272-1.86 3.033-2.546 5.674 1.762 5.185 4.895-.49 2.742-2.054 5.679-.978 8.323 1.271 3.035 6.358 3.329 7.924.489.684-1.273.782-2.741 1.174-4.014.489-1.371 1.76-2.644 3.13-2.35 3.13.685.88 6.756 3.717 8.224 1.859.98 3.913-1.174 4.403-3.133v-.098c.684-2.839 4.01-4.014 6.358-2.252.196.098.392.294.49.392.782.588 1.662 1.273 2.836.588 1.076-.588 1.663-1.861 1.468-3.036-.098-.783-.49-1.468-.88-2.056-2.349-3.035 1.76-7.049 4.695-4.602.293.294.587.588.88.98.392.783.685 1.664 1.174 2.349.978 1.175 3.033 1.371 4.109.294.391-.392.685-.979.783-1.469.587-3.035 4.597-4.014 6.26-1.37.196.293.392.685.49 1.077.587 2.154-.392 4.504-1.468 6.56s-3.13 3.427-2.739 5.581c.294 1.468.587 2.545 1.761 2.937 1.565.489 3.13-.588 3.522-2.056.293-1.077.587-2.252 1.565-2.546 4.011-1.371 4.989 2.056 7.141 1.958 2.152-.098 4.305-.979 4.305-3.035 0-2.35-3.327-4.014-2.544-6.168.391-1.273 1.957-1.763 3.228-1.861 1.272-.097 2.739 0 3.816-.685 1.076-.783 1.271-2.741.097-3.133M93.13 102.61c-.587.588-.978 1.175-1.37 1.86-1.173 2.546 1.762 4.896 4.012 3.329 1.271-.881 3.228-1.762 4.402-.685.978.881.88 2.35 1.369 3.623.587 1.37 2.25 2.252 3.718 1.958 1.467-.294 2.739-1.665 2.739-3.231 0-.686-.098-1.273.098-1.958.587-1.469 2.739-1.273 4.108-.392 1.272.881 2.446 2.252 4.011 2.252 1.272 0 2.446-.881 2.739-2.056a2.793 2.793 0 0 0 0-1.273c-.293-1.469.783-2.839 2.348-2.839.587 0 1.076 0 1.566-.196 1.173-.392 1.956-1.861 1.565-3.133-.392-1.273-1.761-2.056-3.033-1.763m-1.956 108.289c-2.837.294-4.598 4.112-2.935 6.462.489.686 1.174 1.469.782 2.154-.293.49-.88.49-1.467.686-2.543.783-2.739 4.602-.978 6.658 1.565 1.86 4.402 2.643 6.75 1.86.88-.294 1.761-.783 2.641-.783 3.033 0 2.837 5.581 7.631 4.504 3.032-.686 2.641-6.658 5.771-6.854.783-.098 1.468.294 2.152.391 2.74.588 5.772-1.762 5.772-4.601 0-1.077-.293-2.154-.195-3.231.097-1.077.88-2.252 1.956-2.154.294 0 .587.097.88.195 2.25.588 4.5-1.37 5.185-3.622.685-2.252.196-4.7-.391-6.952M107.902 319.58c.294 1.273-.489 2.741.196 3.818.782 1.175 2.543.881 3.717.196 1.174-.783 2.152-1.86 3.424-2.252 1.761-.392 3.522.685 5.283 1.273 1.761.587 4.206.392 4.695-1.469.196-.685-.097-1.468.098-2.154.294-1.664 2.446-2.35 4.207-2.154.978.098 2.054.392 3.032.49 2.739.293 4.5-2.938 2.739-5.092-1.173-1.468-1.076-4.014.294-4.895 2.837-1.958 2.348 1.469 5.772 2.252 3.619.783 6.652-.686 5.087-4.406-.881-2.154-2.25-.979-3.326-2.546-.783-1.077.097-2.545 1.076-3.329.978-.783 2.25-1.468 2.739-2.643.685-2.056-1.565-4.015-3.62-4.798M38.543 205.71c1.174-1.763 4.011-2.154 5.577-.686.684.686 1.173 1.665 2.347 1.763 1.076.098 1.957-.686 2.25-1.665.49-1.762-.978-3.426-2.641-3.818-1.272-.294-2.74-.196-3.424-1.371-.391-.587-.489-1.469-.098-2.154.685-1.371 2.348-1.86 3.718-1.566 1.174.195 2.25.881 3.424.293.587-.293.88-1.077.587-1.664 0-.098-.098-.098-.098-.196-1.174-1.371-.49-2.644 1.271-2.546.783 0 1.566.196 2.153.686.391.293.684.783.978 1.077.782.587 1.956.587 2.641 0 .783-.588.978-1.763.587-2.644-.195-.294-.391-.587-.587-.783m-3.913 185.051c1.174-.196 2.152-.98 3.033-1.861a9.309 9.309 0 0 0 1.467-1.958c1.076-1.762 2.152-3.623 4.011-4.504.098 0 .098-.098.196-.098 2.152-.783 4.01 1.861 2.543 3.623-1.565 1.958-1.76 5.287.196 7.049 2.739 2.546 8.12.882 8.51-3.035.099-.489.196-.979.588-1.37 1.565-1.959 3.815.685 5.967.391 1.565-.196 2.348-1.958 2.74-3.427.293-1.566.586-3.231 1.76-4.21 1.174-.979 3.62-.294 3.326 1.273-1.076 2.252 2.544 4.112 4.696 2.937 1.174-.587 2.152-1.664 3.032-2.741.685-.881 1.37-1.763 2.25-2.448 1.86-1.567 5.576-1.664 6.066.783.097.392.097.882.293 1.175.391.784 1.076.784 1.859.49 1.369-.392 3.13-1.567 4.304-.783 2.054 1.174-.489 3.916-2.054 5.58-2.446 2.546-1.272 8.127 2.25 7.931 1.761-.098 3.228-1.566 4.598-2.937 1.271-1.175 3.228-.588 3.815.881.098.392.195.685.098 1.077v.881c0 .881.391 1.665 1.076 2.35 1.174 1.175 3.032 1.763 4.695 1.469 2.544-.49 1.859-3.819 5.576-5.581 4.305-2.056 6.946 1.371 8.805-.49 2.054-2.056-4.989-5.874-.587-9.301 2.25-1.763 3.913 1.566 6.848 1.371 3.913-.098.587-4.994 3.228-6.463 2.935-1.664 3.62.392 5.478-.489 1.468-.685 0-5.581 6.555-1.762 2.25 1.37 6.358.489 6.456-2.252.098-2.154-2.543-3.819-2.054-5.875.391-1.86 2.935-2.546 3.228-4.406.293-2.056-2.348-3.231-4.5-3.231-.685 0-1.37 0-2.054-.098-1.37-.098-1.859-1.86-.783-2.741 1.174-.882 1.957-2.35 1.859-3.819-.196-2.448-2.739-4.504-5.185-4.112-1.37.196-2.544 1.077-3.815 1.273-1.272.195-3.033-.49-3.033-1.861.098-2.839 6.75-2.447 5.674-5.189a3.065 3.065 0 0 0-.88-1.077c-2.642-1.762.293-5.972 2.837-4.798.88.392 1.467 1.175 2.152 1.763 3.032 2.154 8.021-1.273 6.945-4.896-.587-2.252-2.837-4.895-1.076-6.462 1.859-1.664 4.207 1.371 6.457 2.448 3.13 1.469 7.141-2.644 5.576-5.777-.587-1.175-1.663-2.154-1.859-3.427-.293-2.937 3.913-3.72 6.75-3.329 2.935.294 7.142-.881 6.359-3.72-.587-2.35-4.696-3.819-3.522-5.973.783-1.273 2.641-.881 4.109-1.272 1.663-.49 2.837-2.35 2.348-4.015-.098-.587-.587-1.077-1.174-1.566-1.174-.98-2.739-1.469-4.305-1.469-.391 0-.88-.098-1.271-.294a1.554 1.554 0 0 1-.783-.979c-.293-.979.685-1.762 1.565-2.154.783-.294 1.663-.489 2.348-.979.978-.783 1.076-2.448.294-3.427-.783-.979-2.25-1.371-3.424-.979-.881.294-1.566.881-2.446.881-.88 0-1.859-.587-2.054-1.468-.196-.882.195-1.959.978-2.35 1.076-.588 2.348-.098 3.522-.196 1.956-.098 3.717-1.567 4.011-3.525.293-1.566-.098-3.818 1.369-4.406 1.076-.489 2.25.294 3.424.196 1.565-.098 2.837-1.762 2.544-3.329-.196-1.567-1.566-2.839-3.131-3.231-.489-.098-1.076-.196-1.174-.783-.098-.294 0-.686.196-.882.587-.685 1.369-.685 2.054-1.077 1.076-.587 1.761-1.86 1.468-3.035-.294-1.175-1.37-2.154-2.642-2.154-.489 0-.978.098-1.369-.294-.392-.391-.294-.979 0-1.37.684-.881 1.858-.784 2.739-1.273 1.859-.979 1.859-3.917.489-5.483-1.565-1.86-4.109-2.35-6.457-2.84a2.165 2.165 0 0 1-1.271-.783c-.979-1.175.391-2.35.391-3.622 0-.588-.293-1.077-.587-1.469-.978-1.371-2.837-2.056-4.5-1.763-.587.098-1.272.392-1.859.196-.489-.098-.88-.391-1.076-.881-.489-.979 0-2.154 1.076-2.546.685-.293 1.859-.391 1.859-1.762 0-1.175-.978-2.154-2.054-2.644-1.174-.391-2.837-.881-2.348-2.251.098-.294.391-.588.685-.784 1.761-1.175 1.956-4.014.391-5.483-.391-.391-.88-.685-1.37-.685-1.369-.098-2.445 1.175-3.717 1.175-.88 0-1.859-.686-2.054-1.567-.196-.881.293-1.86 1.174-2.252.489-.196.978-.196 1.467-.391 1.37-.392 2.348-1.861 2.054-3.231-.098-.784-.587-1.469-1.174-1.861-1.076-.881-1.369-2.447-.684-3.622l.587-.882c.293-.391.587-.685.978-1.077.978-.881 1.076-2.741.195-3.818-.978-1.273-2.739-1.665-4.304-1.469-1.369.196-3.13.784-4.011-.293-.195-.294-.293-.588-.489-.882-.782-1.566-2.641-2.447-4.304-2.056-.881.196-1.663.686-2.446 1.077-.978.49-2.054.784-3.032.294-.49-.294-.881-.783-.881-1.371 0-.881.587-1.175 1.076-1.762.881-.979.783-2.546-.098-3.427-1.076-.979-2.934-.881-3.815.392a4.294 4.294 0 0 1-.587.685c-1.369 1.077-2.348-.587-2.152-1.86.098-.979.685-1.959.587-2.938-.098-1.077-.978-1.958-2.054-2.252-1.37-.391-2.935.098-4.011.882a1.623 1.623 0 0 1-2.055 0c-1.369-.979.294-2.742-.097-4.113-.196-.881-1.174-1.37-2.055-1.566-.88-.196-1.858-.196-2.641-.686-.978-.489-1.663-1.566-1.272-2.741.098-.392.391-.685.783-.881.88-.49 1.565 0 2.348.196 1.174.195 2.25-.392 3.326-.686 1.076-.391 2.543-.391 3.228.49.783.979.196 2.448.293 3.72.294 1.959 2.935 3.133 4.598 2.056.489-.391 1.076-.881 1.663-.489.196.098.294.392.294.587.293 1.469.685 2.938 1.565 4.113.783 1.077 2.054 1.958 3.522 1.958.978 0 1.858-.392 2.739-.881.978-.49 1.956-1.077 2.543-1.959.685-.881.979-2.056.587-3.133-.293-.783-1.076-1.566-.88-2.447.098-.49.489-.882.782-1.273.685-1.175.196-2.742-.978-3.427-.782-.392-1.858-.49-2.152-1.371-.098-.392-.098-.783.098-1.175.489-.881 1.272-1.273 1.956-1.86.783-.783 1.37-1.86 1.272-2.937-.098-1.077-.88-2.154-1.956-2.448-1.174-.294-2.837.098-3.229-1.371-.097-.587 0-1.175.392-1.664 1.174-1.763.195-4.113-1.566-5.092-1.663-.881-3.815-.587-5.478.392a1.884 1.884 0 0 1-.978.294c-1.272 0-1.272-1.077-1.761-1.763-.88-1.175-2.739-.685-4.011.098-1.272.783-2.641 1.86-4.011 1.469-.978-.294-1.663-1.273-1.663-2.252.098-.979.881-1.958 1.859-2.056.587-.098 1.272.098 1.859.196 2.152.293 4.304-.49 5.869-2.057 1.076-1.175 1.663-3.133.587-4.21-.978-.979-2.543-.783-3.717-.293-.489.195-1.174.391-1.565 0-.196-.196-.294-.49-.294-.784 0-.881.783-1.566.978-2.35.294-1.272-.782-2.545-2.054-2.937-1.272-.392-2.641 0-3.913.294-1.272.294-2.641.587-3.913.098a1.522 1.522 0 0 1-.783-.588c-.195-.293-.195-.587-.195-.979v-.196c.293-2.056 2.25-3.524 4.304-3.329 1.565.098 4.109.294 5.576-.098 2.152-.685 4.207-2.251 4.794-4.406.587-2.154-.587-4.895-2.74-5.482-1.271-.294-2.934-.098-3.717-1.175-.489-.686-.391-1.567-.587-2.448-.489-2.154-3.228-3.525-5.185-2.546-1.174.49-2.348 1.665-3.521 1.077-.783-.391-.979-1.371-.685-2.154.685-1.566 2.348-1.958 3.619-2.741.979-.686 1.859-1.861 1.37-2.938-.489-1.175-1.957-1.37-3.033-1.762-1.271-.49-2.445-2.448-.684-3.035.489-.098.88 0 1.369.196 1.37.685 2.935-.49 3.131-1.861.195-1.077-.392-2.252-1.272-2.937-.587-.392-1.37-.783-.978-1.763.097-.293.293-.685.586-.88 1.272-1.273 1.37-3.525.294-4.994-.978-1.273-2.837-1.86-4.402-1.37-1.957.684-4.011 2.937-5.674 1.664-.978-.686-.881-2.154-.783-3.231.196-2.252.783-4.994 2.837-5.973.881-.392 1.761-.392 2.642-.587 2.152-.588 3.619-3.525 2.054-5.092-.489-.49-1.076-.783-1.565-1.273-1.663-1.762-.587-5.287-2.739-6.56-1.859-1.077-4.109.882-6.261.588-2.544-.294-3.424-4.406-1.174-5.679 1.174-.685 2.739-.587 3.717-1.566.783-.784.881-1.86 1.174-2.938.489-1.762 1.565-3.329 1.859-5.091.391-1.762-.196-4.014-1.957-4.504-2.152-.685-5.185 1.469-6.163-1.077a2.816 2.816 0 0 1 .196-2.35c1.272-2.643-1.859-5.19-4.207-4.21-1.076.49-1.858 1.469-3.228 1.469-.489 0-.88-.294-1.076-.686-.88-1.86 2.935-2.35 2.935-4.21 0-1.86-3.913-2.154-2.739-4.504.195-.294.489-.587.782-.783 1.468-.783 2.544-2.546 2.25-4.21-.195-1.469-1.467-2.742-2.935-2.742-.978 0-2.054.49-3.032 0-.489-.196-.783-.685-.685-1.175.098-.49.587-.685.978-.88 1.859-.882 3.229-3.623 1.468-4.7-1.468-.882-4.207.293-4.696-1.371-.293-1.077 1.174-1.86 2.25-1.959 1.174-.097 2.641-.293 3.033-1.37.195-.588 0-1.273-.489-1.763-.294-.293-.685-.587-1.174-.685-1.272-.392-1.761-2.154-.783-3.133.489-.49.88-1.077.978-1.763.098-1.174-.782-1.86-1.956-2.251-.979-.294-1.859-1.175-1.859-2.252-.196-2.252-2.348-4.406-4.696-3.721a2.97 2.97 0 0 0-.684.49c-.685.783-.098 1.86.391 2.839.391.783-.489 1.664-1.272 1.273-.978-.49-2.445-.196-3.13.783-.49.783-.587 1.665-.392 2.644.098.88-.39 1.664-1.174 1.958-.586.196-1.173.685-1.271 1.37-.196.784.098 1.665.587 2.35.391.588 0 1.371-.685 1.47-.783.195-1.467.39-2.054.88-1.076.784-1.468 2.546-.392 3.427.783.686 2.055.784 2.25 1.763.098.587-.391 1.174-.978 1.272-.391.098-.783 0-1.076-.195-1.272-.784-2.935-.098-3.033 1.37v.588c.098 1.077.88 2.056 1.859 2.448a3.673 3.673 0 0 1 1.859 1.566c.195.392.391.881.391 1.273-.098 1.175-.88 2.252-1.956 2.546-.685.196-1.37.196-2.055.391-1.467.392-2.445 2.056-2.152 3.623.196 1.469 1.467 2.84 2.935 3.231 1.565.49 3.522.098 4.695 1.273 1.174 1.273.587 3.329-.097 4.993-.098.196-.196.49-.49.686-.293.195-.684.195-.978.195-.88-.097-1.858-.195-2.739-.195-.587-.098-1.174-.098-1.565.293-.196.196-.294.49-.391.784-.392 1.566 1.76 3.622 2.347 4.21l.587.587c1.37 1.469 2.446 3.33 1.468 5.287-.587 1.175-2.055 1.567-3.13.784-1.077-.882-.686-2.154-.881-3.427-.294-2.644-3.718-4.308-6.065-3.035-2.25 1.37-2.446 5.189-.294 6.755.685.49 1.468.784 2.055 1.371.097.196.293.294.293.49.783 1.566-1.174 3.133-2.641 2.056-1.566-1.175-4.011-1.175-5.38.196-1.86 1.86-1.272 5.483 1.075 6.658.587.293 1.174.391 1.663.783 1.174.783 1.174 3.133-.195 3.427-1.272-.196-2.25-1.175-3.424-1.371-1.761-.392-3.424 1.175-3.718 2.937-.293 1.763.49 3.427 1.566 4.896 1.076 1.37 2.445 2.643 4.206 3.035.783.196 1.761.196 2.544.587 1.467.686 2.054 2.546 1.858 4.113v.098c-.293 1.664-2.445 2.056-3.424.685a4.742 4.742 0 0 0-2.25-1.86c-1.174-.392-2.64 0-3.13 1.175-.685 1.272.098 2.643.587 3.916.391 1.175.293 2.84-.783 3.231-.391.196-.782.098-1.271.196-2.544.196-3.718 3.231-4.403 5.777-.195.685-.39 1.468-.097 2.154.39.881 1.37 1.273 2.152 1.958 2.543 2.056 1.663 6.854-1.37 7.833-.587.196-1.174.293-1.565.783-.293.294-.293.783-.293 1.273 0 1.469.684 3.133 1.271 4.504.49 1.077 1.174 2.056 1.957 3.035 1.467 1.664 2.054 4.602.587 5.973-1.761 1.566-4.696 1.468-6.457 0-.782-.588-1.37-1.469-2.348-1.861-1.467-.685-3.717-.294-4.402.881-.88 1.469 1.174 2.84.49 4.602-.881 2.056-4.5 1.665-4.892 3.623-.098.685.098 1.566.587 1.958.685.588 1.957.196 2.446 1.175.195.392.195.979 0 1.371-.587 1.077-1.761 1.468-2.544 2.35-.978 1.175-1.076 3.035-.293 4.308.782 1.273 2.348 2.056 3.815 2.252 1.076.098 2.152-.098 3.228.195 2.152.49 3.522 3.134 2.837 5.19-.782 2.154-3.326 3.916-2.446 5.972.88 2.252 5.087 2.252 4.794 4.896-.098.391-.196.685-.391.979-1.076 1.664-2.446 3.525-4.5 3.623-1.174.097-2.446-.784-2.642-1.959-.195-1.077.49-1.566.979-2.154.978-1.37.684-3.329-.587-4.504-1.37-1.272-3.62-1.566-5.38-.881-.49.196-.979.294-1.468.196-2.446-.196-2.055-3.133-3.13-4.895-.881-1.469-2.642-2.057-4.305-1.861-1.859.098-3.522 1.077-5.185 1.861-.391.195-.684.391-.88.783-.685 1.273.489 2.252 1.663 2.741 1.076.392 2.348.686 2.739 1.861.391.979-.098 2.056-.978 2.643-1.663.979-3.522.294-5.087-.391-1.272-.588-2.642-1.273-4.011-1.273-2.837.098-4.794 3.72-3.424 6.168.685 1.273 2.054 2.742.293 3.721-.097.098-.293.098-.489.098-.978.097-3.913 4.308-2.445 7.637 1.467 3.133 6.26 3.818 9 2.643 2.837-1.175 3.032-3.818 5.38-3.916 1.957-.098 4.304 1.664 4.011 3.133-.293 1.175-1.467 1.958-2.054 3.035-1.076 1.86-.979 4.014.097 4.798 2.348 1.566 3.229-1.567 5.772-1.763 2.74-.098 3.815 2.644 6.065 2.056.196-.097.392-.097.587-.195.88-.49 1.174-1.273 3.13-1.763.783-.196 1.664-.098 2.349.392 1.76 1.273.782 3.818-.587 5.385-1.272 1.469-2.837 3.133-2.446 4.993.196 1.371 1.565 2.448 2.837 2.84 1.272.391 2.74.098 3.913-.783.49-.392 1.174-.49 1.957-.588 1.174-.098 2.25.588 2.739 1.567.293.587.88 1.077 1.565 1.272 1.076.196 2.152-.293 2.641-1.174.196-.392.587-.49.979-.49h.195c1.076.294 1.174 2.839-.195 3.623-1.566.881-3.816.783-5.087 2.056-1.566 1.762-1.174 4.112.88 5.189s6.163-.49 8.51-.49c2.349-.097 4.207 2.155 5.773 3.917 1.565 1.762-.392 4.798-2.642 5.189-2.934.49-2.543-3.329-4.598-5.483-2.152-2.154-4.989-1.077-6.652 1.273-1.565 2.154-4.891 1.86-6.065-.587-.978-2.252-1.956-4.602-4.109-4.504-1.858.098-2.934 2.154-4.01 3.622-1.077 1.469-3.62 2.644-4.598 1.077-.783-1.175.097-2.741.097-4.112 0-2.839-4.304-4.308-5.967-2.056-.88 1.273-1.272 3.329-2.739 3.427-1.957.196-2.25-2.644-2.641-4.504-.392-1.86-1.957-3.427-3.718-4.112-1.174-.392-2.445-.49-3.717 0-2.446 1.077-3.424 4.504-2.152 6.756.782 1.37-.196 3.231-1.761 3.329-.294 0-.587 0-.88-.098-1.566-.294-2.935-1.273-4.5-1.469-3.914-.588-7.24 4.7-4.99 8.029.587.881 1.468 1.762 1.272 2.741-.196.881-1.174 1.469-1.663 2.252-1.076 2.056 2.054 4.112 4.206 3.427 2.25-.685 3.913-2.546 5.968-3.427 2.054-.881 5.38.49 4.989 2.742-.196 1.174-1.272 1.762-2.446 2.154-1.076.391-1.174 1.958-.097 2.349 1.173.49 2.739.49 3.717.196 1.174-.391 2.348-.098 3.13.881 1.859 2.35-.88 4.113-3.032 3.917-1.761-.098-3.522-.881-5.283-.49-1.37.392-2.25 2.154-1.76 3.231.39.979-.588 1.959-1.566 1.469-.88-.49-1.37-1.273-2.054-1.958-1.566-1.371-4.305-1.371-5.87.098-1.663 1.566-1.859 4.601-.196 6.266l.294.294c2.641 3.231-2.054 5.091-5.087 4.699-2.74-.391-6.652-.098-6.75 2.644-.098 1.762 1.663 2.937 2.837 4.21.098 0 .098.098.098.098 1.271 1.469-.49 3.623-2.25 2.742-1.272-.588-2.642-.882-4.011-.294-1.076.489-1.859 1.566-1.957 2.741 0 3.329 5.576 4.015 4.892 6.952-.685 2.937-6.652 1.664-7.142 4.602-.293 2.056 2.446 3.035 4.5 3.329 2.055.293 4.696 1.762 3.913 3.622-.489 1.273-2.25 1.469-3.13 2.546-2.054 2.35 1.663 5.679 4.696 5.581 1.565 0 3.326-.294 4.89-.392 1.86 0 3.23 1.959 2.447 3.623-.294.685-.49 1.371-.685 2.154-.587 3.035 2.739 5.385 5.478 3.916.783-.391 1.565-.881 2.348-1.272 2.446-1.175 6.456-.294 6.065 2.349-.196 1.469-1.76 2.448-2.054 3.917-.49 2.448 2.739 4.112 5.087 3.525 2.348-.588 4.304-2.35 6.652-3.133.489-.196 1.174-.294 1.76-.294 2.153 0 3.131 2.643 1.566 4.014-.88.783-1.467 1.86-1.565 3.035-.098 1.273.391 2.546 1.272 3.525 1.173 1.175.489 3.231-1.174 3.525-.49.098-1.076.196-1.566.196-1.956.098-3.913-.196-5.576.783-.098 0-.098.098-.195.098-1.859 1.273-.49 4.21 1.663 3.623.098 0 .195 0 .195-.098 2.544-.588 3.62 3.035 1.174 3.916-.293.098-.587.196-.88.196-2.055.489-4.305.392-6.065 1.371a1.35 1.35 0 0 1-.392.293c-2.054 1.567-.782 4.798 1.761 4.798 1.272 0 2.544.196 3.718.881 1.76.979 2.739 3.623 1.467 5.189-1.37 1.763-4.207 1.175-6.359 1.959-2.25.881-3.521 3.818-2.543 6.07.978 2.252 3.913 3.427 6.163 2.35 1.37-.685 2.445-1.958 3.717-2.742 1.37-.783 3.522-.685 4.011.784.783 2.154-2.641 3.329-4.01 5.091-1.762 2.252-.196 5.777 2.347 7.05a8.305 8.305 0 0 0 3.717.881c1.86.098 3.13 1.86 2.544 3.72-.391 1.175-.49 2.448-.391 3.721.293 2.35 2.25 4.602 4.5 4.798.684.098.978.098 1.37.098Z" stroke="#D8D2C5" stroke-miterlimit="10" stroke-linecap="round" stroke-linejoin="round"/></g><defs><clipPath id="a"><path fill="#fff" d="M0 0h198v492H0z"/></clipPath></defs></svg>