<svg width="202" height="121" viewBox="0 0 202 121" fill="none" xmlns="http://www.w3.org/2000/svg">
<g clip-path="url(#clip0_929_3221)">
<path d="M17.9272 83.6279H30.5034" stroke="white" stroke-width="3" stroke-miterlimit="10" stroke-linecap="round" stroke-linejoin="round"/>
<path d="M18.9753 70.6606L31.3419 72.6387" stroke="white" stroke-width="3" stroke-miterlimit="10" stroke-linecap="round" stroke-linejoin="round"/>
<path d="M21.9097 57.9131L33.8571 61.9791" stroke="white" stroke-width="3" stroke-miterlimit="10" stroke-linecap="round" stroke-linejoin="round"/>
<path d="M26.7306 45.825L37.9444 51.8691" stroke="white" stroke-width="3" stroke-miterlimit="10" stroke-linecap="round" stroke-linejoin="round"/>
<path d="M33.2283 34.7259L43.394 42.4184" stroke="white" stroke-width="3" stroke-miterlimit="10" stroke-linecap="round" stroke-linejoin="round"/>
<path d="M41.4028 24.7257L50.311 34.0666" stroke="white" stroke-width="3" stroke-miterlimit="10" stroke-linecap="round" stroke-linejoin="round"/>
<path d="M50.9398 16.264L58.2759 27.0335" stroke="white" stroke-width="3" stroke-miterlimit="10" stroke-linecap="round" stroke-linejoin="round"/>
<path d="M61.5247 9.56062L67.2888 21.2092" stroke="white" stroke-width="3" stroke-miterlimit="10" stroke-linecap="round" stroke-linejoin="round"/>
<path d="M73.0529 4.50558L77.0354 17.1432" stroke="white" stroke-width="3" stroke-miterlimit="10" stroke-linecap="round" stroke-linejoin="round"/>
<path d="M85.2098 1.53849L87.2007 14.5058" stroke="white" stroke-width="3" stroke-miterlimit="10" stroke-linecap="round" stroke-linejoin="round"/>
<path d="M97.6813 0.549461V13.7365" stroke="white" stroke-width="3" stroke-miterlimit="10" stroke-linecap="round" stroke-linejoin="round"/>
<path d="M110.152 1.64838L108.161 14.6157" stroke="white" stroke-width="3" stroke-miterlimit="10" stroke-linecap="round" stroke-linejoin="round"/>
<path d="M122.205 4.72536L118.327 17.2531" stroke="white" stroke-width="3" stroke-miterlimit="10" stroke-linecap="round" stroke-linejoin="round"/>
<path d="M133.733 9.7804L128.074 21.5389" stroke="white" stroke-width="3" stroke-miterlimit="10" stroke-linecap="round" stroke-linejoin="round"/>
<path d="M144.318 16.5937L136.982 27.2532" stroke="white" stroke-width="3" stroke-miterlimit="10" stroke-linecap="round" stroke-linejoin="round"/>
<path d="M153.855 25.1653L144.947 34.5061" stroke="white" stroke-width="3" stroke-miterlimit="10" stroke-linecap="round" stroke-linejoin="round"/>
<path d="M161.925 35.1655L151.759 42.8579" stroke="white" stroke-width="3" stroke-miterlimit="10" stroke-linecap="round" stroke-linejoin="round"/>
<path d="M168.422 46.2646L157.209 52.3087" stroke="white" stroke-width="3" stroke-miterlimit="10" stroke-linecap="round" stroke-linejoin="round"/>
<path d="M173.138 58.3527L161.191 62.5286" stroke="white" stroke-width="3" stroke-miterlimit="10" stroke-linecap="round" stroke-linejoin="round"/>
<path d="M175.968 71.1002L163.601 73.1882" stroke="white" stroke-width="3" stroke-miterlimit="10" stroke-linecap="round" stroke-linejoin="round"/>
<path d="M176.911 83.6279H164.335" stroke="white" stroke-width="3" stroke-miterlimit="10" stroke-linecap="round" stroke-linejoin="round"/>
</g>
<path d="M103.541 69.2958L106.021 73.8591L114.663 79.6901M74.2547 77.7887L74.4547 77.7042L78.5355 74.9155M98.2194 71.0282L95.2989 75.2535L94.6987 79.5211M107.941 69.0845L113.543 73.5211L118.303 76.5634M81.8962 74.7042L84.9368 73.4366L90.0178 68.7042M141.428 87.7183L145.789 91.3098L138.467 87.2958L141.748 90.2113L124.105 79.8591L128.746 84.2113L121.024 80.0704C121.424 80.8732 138.668 91.0563 139.188 91.3944C138.988 91.3099 135.627 89.7042 132.786 89.0704C129.866 88.3944 117.543 78.8873 117.143 78.5915L119.104 81.1268L116.503 79.9014C116.823 80.1549 121.744 84.0422 122.104 84.3803C122.504 84.7183 134.147 91.8169 134.507 92.0282C134.067 91.8169 120.424 85.5634 116.903 83.8732C113.302 82.1408 109.622 78.7183 109.622 78.7183L110.222 81.2958L116.423 89.1127C116.223 88.9014 109.502 82.8591 108.542 82.5634C107.541 82.2676 106.861 80.1972 106.861 80.1972L104.981 79.6479L105.981 82.5211L101.74 78.5493C101.74 78.5493 104.821 84.2113 104.821 84.7183C104.821 85.1831 104.541 87.1268 104.541 87.1268L101.22 82.3521L100.3 82.1408C100.3 82.1408 101.22 87.7183 101.3 88.2676C101.34 88.8169 104.901 92.4929 104.901 92.4929C104.901 92.4929 103.34 92.0704 102.14 91.5211C100.98 90.9718 98.5395 86.662 98.5395 86.662L96.8592 87.9296L96.059 86.662L93.8986 87.9296L93.7786 87.0422L90.1778 87.676C90.1778 87.676 95.3389 83.6197 95.739 82.9859C96.139 82.3521 94.2186 83.0704 94.2186 83.0704L93.2184 83.9155L92.9384 82.6056L89.6577 85.9437L91.7382 81.2535L92.1382 78.8873L92.0582 77.0282C92.0582 77.0282 89.5777 80.4929 88.5775 81.507C87.6173 82.5634 85.817 87.2535 85.817 87.2535C85.4969 86.5775 86.057 84.2113 86.6171 82.0986C87.0972 80.2817 87.6173 78.7183 87.6173 78.7183L81.9362 84.6338L84.2567 79.4366L74.1346 91.1408L79.6557 83.0282L79.6957 80.662C78.8556 82.3521 76.015 84.2535 73.9346 85.3944C73.0944 85.8591 72.3743 86.2394 72.0142 86.4507C72.3343 86.2394 72.7343 85.8169 73.2144 85.2676C74.6147 83.6197 76.2951 81.0845 76.2951 81.0845L72.4543 83.5775L79.9358 77.0704C79.6557 77.2817 74.9348 80.4084 74.2947 81.0422C73.6545 81.676 60.932 90.676 60.5319 90.9718L65.5729 83.9577L56.8912 90.8451L57.2112 89.3239M201 114.718C200.36 114.592 199.6 114.38 198.8 114.127C197.399 113.704 195.799 113.155 193.999 112.437H193.959C180.076 107.197 156.111 95.4929 153.591 94.3944C151.71 93.5915 146.109 90.3803 141.468 87.7183C138.588 86.0704 136.067 84.676 135.027 84.169C132.306 82.9437 118.303 74.2817 116.783 73.6479C115.223 73.0141 110.702 69.4648 108.782 68.1127C106.861 66.7183 103.5 65.0282 103.5 65.0282C103.5 65.0282 101.26 66.1268 100.9 66.1268C100.54 66.1268 98.8996 66.1267 98.2995 65.9577C97.6993 65.7887 95.6989 66.2535 95.4189 66.338C95.2989 66.3803 94.5787 66.3803 93.6985 66.3803C92.1782 66.3803 90.1778 66.3803 90.1778 66.3803C90.1778 66.3803 85.3769 69.8451 84.0566 70.9014C82.4563 72.2113 76.8152 75.9718 74.3347 77.7042C73.8546 78.0422 73.4945 78.2958 73.2945 78.4225C72.3343 79.1408 69.9738 80.7465 67.2933 82.5634C66.7732 82.9437 66.213 83.2817 65.6529 83.662C62.5323 85.7324 59.2517 87.8873 57.3313 89.1549C57.0112 89.3662 56.7712 89.5352 56.5311 89.662C54.2106 91.1831 42.3283 98.4929 38.4075 100.775C35.2469 102.676 4.40068 119.873 1 120M67.2132 82.6479C62.4923 79.4366 59.3317 73.8169 59.3317 67.3944C59.3317 57.3803 67.0132 49.2676 76.4951 49.2676C85.6569 49.2676 93.1384 56.831 93.6185 66.3803M107.381 89.7887L108.141 90.507L110.102 92.3662L109.702 90.169L112.422 91.4789L106.741 83.9577L107.381 89.7887Z" stroke="white" stroke-width="2" stroke-miterlimit="10" stroke-linecap="round" stroke-linejoin="round"/>
<defs>
<clipPath id="clip0_929_3221">
<rect width="160.032" height="84.507" fill="white" transform="translate(17.4033)"/>
</clipPath>
</defs>
</svg>
