<svg width="200" height="246" viewBox="0 0 200 246" fill="none" xmlns="http://www.w3.org/2000/svg">
<g clip-path="url(#clip0_929_3213)">
<path d="M84.7377 69.3526C83.9192 69.9289 83.0525 67.9117 82.1859 68.392C81.8489 68.5841 81.8007 69.1124 81.8007 69.4967C81.8007 70.4092 81.7526 71.4178 81.2711 72.1382C80.7415 72.8586 79.5378 73.0988 79.0564 72.3303C78.6712 71.706 78.8157 70.6013 78.1416 70.4092C77.6601 70.2651 77.1787 70.7454 76.9861 71.2737C76.7935 71.754 76.6491 72.3303 76.2158 72.6185C75.3491 73.1468 74.338 71.9941 74.338 70.9855C74.2899 69.6408 75.0602 68.344 74.3862 66.9992C74.0492 66.4229 73.327 66.1347 72.7974 66.5189C72.1233 66.9512 72.4122 67.9117 72.0752 68.5361C71.9307 68.8243 71.69 68.9684 71.4011 69.0644C70.39 69.3526 69.4753 68.344 69.6678 67.2393C69.8123 66.567 69.8123 65.8946 69.5234 65.2702C69.0419 64.2136 67.2124 64.0695 66.9716 65.2222C66.8754 65.6064 67.0198 65.9906 67.0679 66.3748C67.1642 67.4795 66.2976 68.6802 65.0458 68.4881C64.7088 68.4401 64.4199 68.2479 64.1792 68.0078C63.6014 67.3354 63.7458 66.4229 63.7458 65.6064C63.6977 64.886 63.3607 64.0215 62.6385 63.9734C61.9644 63.9254 61.5311 64.6939 61.0496 65.2222C60.6163 65.7505 59.6053 66.0867 59.3645 65.4143C59.3645 64.886 59.4127 64.3096 59.5571 63.7813M98.8445 95.5279C99.4223 96.6326 100.433 97.8813 101.541 97.449C102.889 96.8727 102.6 94.3272 104.141 93.895C104.718 93.7509 105.296 93.991 105.681 94.4713C105.826 94.6634 105.97 94.9035 106.066 95.0957C106.644 96.4885 108.329 97.0168 109.485 96.0562C109.629 95.9602 109.774 95.8161 109.918 95.72C111.026 94.9035 113.096 94.9035 113.144 96.2964C113.144 96.6326 113.048 96.9688 112.951 97.3049C112.807 98.2655 113.385 99.2741 114.251 99.6583C115.118 99.9945 116.177 99.6103 116.659 98.7938C117.044 98.1214 117.092 97.3049 117.429 96.6326C118.248 95.0957 120.799 95.2878 121.377 96.9207C121.57 97.401 121.618 97.9293 122.196 98.1694C122.87 98.4096 123.592 98.0734 123.881 97.401C124.41 96.1523 123.688 94.9516 123.158 93.7989C122.533 92.5502 122.147 90.9652 122.821 89.7645C123.351 88.804 124.555 88.4678 125.421 89.0921C126.24 89.7165 125.807 90.485 125.999 91.1573C126.095 91.5416 126.336 91.7817 126.625 91.9258C127.636 92.4061 128.792 91.4455 128.647 90.2928C128.503 89.3323 128.84 88.2757 129.61 87.6513C130.717 86.7388 132.595 87.075 133.365 88.3237C133.606 88.7079 133.751 89.1402 133.991 89.5244C134.714 90.7251 136.399 91.1573 137.602 90.4369C137.747 90.3409 137.891 90.2448 138.036 90.1007M138.036 89.9566C138.469 89.5244 138.758 88.9 138.854 88.2757C138.95 87.6993 138.854 87.075 138.613 86.5466M52.2389 110.321C52.5759 110.225 52.9129 110.561 52.8166 110.945C52.624 111.761 52.5277 112.578 52.9611 113.346C53.2499 113.875 53.8758 114.211 54.4536 114.067C55.3684 113.827 55.561 112.626 55.898 111.713C55.898 111.713 55.898 111.713 55.898 111.665C56.3794 110.657 57.8238 110.993 57.872 112.146C57.872 112.53 57.9201 112.914 58.1127 113.298C58.4016 113.971 59.0756 114.499 59.7015 114.355C60.3756 114.211 61.3867 113.635 61.483 114.355C61.483 114.595 61.3385 114.787 61.2422 114.979C60.6645 116.036 61.5311 117.525 62.6866 117.669C63.8421 117.813 64.9495 116.804 65.1902 115.604C65.3347 114.835 65.3347 113.923 65.9606 113.538C66.1532 113.442 66.442 113.394 66.6828 113.442C67.8383 113.538 68.8975 114.547 69.0901 115.796C69.2345 116.708 68.8975 117.669 69.1382 118.533C69.379 119.638 70.5345 120.406 71.5937 120.214C72.4122 120.07 73.0862 119.398 73.327 118.533C73.5677 117.717 74.6269 117.573 75.0121 118.293C75.3491 118.87 75.5417 119.638 76.0713 120.022C77.275 120.791 78.5268 119.158 78.9119 117.765C79.2971 116.372 79.923 114.547 81.3193 114.643C82.0896 114.691 82.6674 115.364 83.1488 115.988C83.6303 116.612 84.1599 117.333 84.8821 117.477C85.6524 117.621 86.5191 116.756 86.1339 116.084M109.822 143.172C109.966 143.94 111.122 144.132 111.892 143.796C112.663 143.46 113.24 142.836 114.011 142.547C115.551 141.971 117.525 143.316 117.381 144.901C117.333 145.381 117.14 145.861 117.236 146.342C117.381 147.014 118.199 147.446 118.922 147.254C119.259 147.158 119.547 146.87 119.692 146.582C120.222 145.477 121.618 145.093 122.629 145.765C123.11 146.102 123.544 146.582 123.736 147.062C124.025 147.686 124.073 148.359 124.025 149.031C123.881 151.289 126.818 152.297 127.829 150.28C127.925 150.088 128.021 149.848 128.021 149.656C128.31 147.879 126.914 145.717 128.262 144.469C129.995 142.884 133.991 145.141 134.954 143.076C135.388 142.163 134.714 141.155 134.569 140.194C134.521 140.002 134.569 139.81 134.617 139.618C134.858 138.849 135.965 139.089 135.965 139.906C135.965 140.77 136.495 141.635 137.362 141.923C138.613 142.355 140.202 141.491 140.395 140.242C140.539 139.33 140.058 138.369 140.395 137.553C140.732 136.784 141.55 136.496 142.417 136.544C143.573 136.592 144.487 137.553 144.776 138.753C144.921 139.378 145.354 139.906 145.98 140.146C146.75 140.386 147.617 140.098 148.146 139.522C148.676 138.945 149.591 138.993 150.024 139.618C150.217 139.906 150.457 140.194 150.746 140.338C151.661 140.77 152.72 139.762 152.817 138.801C152.961 137.841 152.576 136.832 152.817 135.872C153.057 134.911 154.357 134.094 155.128 134.767C155.609 135.199 155.513 135.872 155.754 136.448C156.187 137.553 157.824 137.937 158.979 137.408C159.75 137.072 160.376 136.448 160.761 135.727C160.761 135.727 160.809 135.679 160.809 135.631M53.1055 149.175C51.7093 149.656 50.2167 150.232 49.7834 151.913C49.5427 152.873 50.0723 153.882 51.0352 154.026C51.9981 154.17 52.7203 153.21 53.3944 152.441C54.1166 151.625 55.6091 151 56.0906 152.393C56.2832 152.873 56.1869 153.45 55.9461 153.93C55.3202 155.179 56.1869 156.764 57.3905 157.1C58.7868 157.436 60.4237 156.139 59.9904 154.41C59.7497 153.498 60.2793 152.393 61.1459 152.105C62.7829 151.529 63.1199 154.026 62.8792 155.179C62.7348 155.947 63.0718 156.812 63.6977 157.196C64.6606 157.772 65.5273 156.812 65.8161 155.899C66.105 155.083 66.2494 154.122 66.8754 153.498C67.8864 152.537 69.5716 153.018 69.9567 154.362C70.3419 155.659 69.4271 156.956 69.6197 158.253C69.6197 158.445 69.6678 158.589 69.7641 158.781C70.39 160.318 72.5085 160.078 72.9899 158.493C73.1344 157.964 73.4233 157.532 73.9529 157.244C74.4825 156.956 75.1565 157.148 75.4454 157.724C75.6861 158.205 75.3973 158.637 75.2528 159.069C74.9158 160.27 75.975 161.567 77.1787 161.519C78.3342 161.47 79.3453 160.318 79.4416 159.117C79.5378 157.676 78.7194 156.043 79.6341 154.987C80.5489 153.93 82.2822 154.747 83.1007 155.851C83.5821 156.428 83.9673 157.148 84.4488 157.724C85.1228 158.541 86.4228 158.301 86.7117 157.244C86.7117 157.244 86.7117 157.244 86.7117 157.196C87.0005 156.091 88.4931 156.139 88.6375 157.292C88.6375 157.292 88.6375 157.292 88.6375 157.34C88.7338 158.349 88.6375 159.501 89.2153 160.318C89.793 161.134 91.5263 160.75 91.2374 159.741M31.3915 188.75C30.3804 188.991 30.0434 190.576 30.7174 191.44C31.3915 192.305 32.5951 192.497 33.6062 192.16C33.7025 192.112 33.7988 192.112 33.847 192.064C34.9543 191.632 36.2061 192.209 36.5913 193.409C36.8802 194.418 37.4579 195.234 38.4209 195.474C39.4801 195.715 40.5393 195.042 41.2133 194.178C41.4541 193.841 41.743 193.457 42.1763 193.457C42.417 193.457 42.6096 193.601 42.754 193.745C43.4762 194.562 42.754 195.859 43.2836 196.771C43.717 197.492 44.728 197.588 45.4021 197.828C45.691 197.924 46.028 197.972 46.365 197.924C48.4834 197.588 48.002 195.522 48.2909 193.986C48.5797 192.545 50.5537 192.593 50.8426 194.034C50.8426 194.082 50.8908 194.13 50.8908 194.226C51.1315 195.042 51.9018 195.667 52.7203 195.667C53.8277 195.667 54.8388 194.562 54.598 193.313C54.4054 192.545 54.9351 191.872 55.7054 191.92C56.5239 192.016 56.4276 193.265 56.6202 194.082C56.8128 194.898 57.535 195.474 58.3053 195.474C59.2201 195.474 60.0867 194.562 59.9904 193.553C59.9423 193.217 60.0867 192.881 60.4237 192.785C61.2422 192.449 61.2422 193.745 61.7718 194.226C62.494 194.85 63.4088 193.649 63.6495 192.689M116.37 187.454C116.466 188.943 118.585 189.759 119.933 189.039C121.04 188.462 121.618 187.31 121.666 186.109C121.714 185.1 123.062 184.716 123.544 185.629C123.544 185.677 123.592 185.725 123.592 185.725C123.881 186.541 123.784 187.502 124.41 188.126C124.555 188.27 124.699 188.366 124.892 188.462C126.047 188.943 127.299 188.126 127.492 186.829C127.54 186.637 127.54 186.445 127.54 186.253C127.636 185.196 128.936 184.86 129.417 185.773C129.466 185.821 129.466 185.869 129.514 185.917C129.803 186.685 129.706 187.55 130.043 188.27C130.573 189.423 132.258 189.951 133.414 189.279C134.569 188.606 134.858 186.925 134.04 185.965C133.847 185.725 133.558 185.485 133.51 185.148C133.414 184.284 134.858 184.236 135.677 184.716C136.447 185.196 137.651 185.725 138.132 184.956C138.613 184.188 137.602 182.939 138.373 182.459C138.662 182.267 139.047 182.363 139.384 182.411L139.48 182.459C140.732 182.747 141.887 181.738 141.887 180.394C141.887 179.529 142.658 178.905 143.428 179.145C143.573 179.193 143.717 179.289 143.861 179.433C144.295 179.913 144.247 180.682 144.439 181.306C144.487 181.45 144.584 181.594 144.68 181.69C145.065 182.123 145.691 181.979 145.932 181.45C146.172 181.066 146.991 180.874 147.521 181.114C148.243 181.45 149.061 182.027 149.735 181.642C151.035 180.922 149.013 178.953 149.639 177.608C150.12 176.647 151.806 176.84 152.383 177.752C152.817 178.376 152.865 179.145 152.817 179.913C152.768 180.634 153.298 181.258 153.972 181.162C153.972 181.162 153.972 181.162 154.02 181.162C154.742 181.066 154.887 180.057 154.213 179.721M82.9562 245.424C86.5672 238.412 86.1339 221.602 85.7969 214.926M103.804 216.223C103.178 224.676 102.793 239.852 107.366 245.424M99.663 222.898C99.663 222.898 99.1816 231.832 99.663 234.329M96.1483 1.87309C95.9076 1.24872 95.4261 0.720414 94.8002 0.624357C93.5966 0.384217 92.3448 1.729 92.6337 3.02576C92.8744 4.03435 93.8855 4.94689 92.6337 6.14759C92.2485 6.53182 91.7189 6.6759 91.1893 6.62787C90.13 6.62787 88.5412 7.8766 89.2634 8.83716C89.793 9.55759 90.9967 9.12533 91.6226 9.7497C92.5374 10.6622 91.093 12.2472 89.8412 12.1031C88.5894 11.959 87.3857 11.0945 86.182 11.2866C85.7487 11.3346 85.3636 11.5748 85.0265 11.911C83.3414 13.5919 84.4006 15.6091 85.8932 16.0894C86.2302 16.1855 86.4228 16.5697 86.2783 16.9059C85.9413 17.8184 86.1339 18.9231 86.7117 19.6915C86.9524 20.0277 87.482 19.9317 87.6746 19.5474C87.9635 18.9711 88.7819 19.2593 88.6857 19.8836C88.4931 21.1324 87.4339 22.3331 86.182 22.189C85.2191 22.0929 84.4006 21.3725 83.4858 21.1804C83.0044 21.0843 82.4266 21.2284 82.0415 21.5646C81.56 21.9488 81.56 22.6693 81.9933 23.0535C82.0896 23.1495 82.1859 23.2456 82.3303 23.3897C82.8599 23.918 82.7155 24.8305 82.0415 25.1187C81.6081 25.3108 81.0304 25.4069 80.5971 25.2148C79.586 24.8786 78.7675 24.0621 77.7083 23.966C75.8787 23.7739 74.6751 25.8391 73.8566 27.5681C73.5677 28.2405 73.2307 29.057 73.7121 29.6333C74.0973 30.1136 74.7714 30.2097 75.301 29.9215C75.8306 29.6814 76.1676 29.2011 76.4565 28.6728C76.6491 28.2886 77.1305 28.3846 77.1787 28.8169C77.3231 29.6814 77.1305 30.6419 76.6972 31.4104C76.5046 31.7466 76.1195 31.9387 75.7343 31.8426C74.0492 31.4584 72.1233 33.1874 72.4122 35.0125C72.5085 35.5408 72.7011 36.0211 72.6529 36.5494C72.4603 37.7981 70.7752 37.9422 69.5716 37.7981C68.3679 37.7021 66.6828 38.2304 66.8272 39.4791C67.0198 40.1035 67.5494 40.5357 68.1272 40.7278C68.5605 40.8239 68.8012 41.3042 68.6086 41.7364C68.2235 42.5529 67.4531 43.2253 66.7791 43.8497C65.8161 44.6661 64.8051 45.7228 64.8532 47.0195C64.9014 48.3163 66.8272 49.2288 67.405 48.0761C67.6938 47.4518 67.5013 46.5392 68.0309 46.203C68.8494 46.3471 68.8012 47.6919 68.2716 48.3643C67.742 49.0367 66.9716 49.6611 66.9235 50.5256C66.9235 51.1019 67.2605 51.6302 67.2605 52.1585C67.2124 53.8875 64.8051 53.7434 63.2162 53.5994C60.0386 53.3112 56.8609 55.5205 55.8017 58.6903C55.7054 59.0265 55.9943 59.4108 56.3313 59.3627C56.9572 59.3147 57.535 59.1226 58.0646 58.7864C58.4016 58.5943 58.7868 58.8344 58.8349 59.2187C58.8831 59.6989 58.7868 60.1792 58.5942 60.6115C58.3053 61.2358 58.7868 62.0523 59.4608 62.0043C59.509 62.0043 59.509 62.0043 59.5571 62.0043C60.1349 61.9082 60.5682 62.5326 60.3756 63.0609C60.2793 63.301 60.1349 63.4932 59.8941 63.6372C59.7497 63.7333 59.6053 63.7813 59.4608 63.7813C58.9312 63.9254 58.3053 63.8294 57.7275 63.8774C55.4165 64.1175 54.1166 66.711 53.2018 68.9684C53.0092 69.4967 52.7685 70.121 53.1055 70.6974C53.4425 71.2257 54.0684 71.4658 54.6943 71.3217C55.2721 71.1777 55.6573 70.8895 56.0424 70.4572C56.4757 69.9769 57.2461 70.121 57.535 70.7454C57.872 71.4658 58.1609 72.2343 58.4979 72.9547C58.7386 73.483 58.9312 74.0113 58.8349 74.5877C58.6423 75.5962 57.5831 76.0765 57.0535 76.941C56.4757 77.9016 56.9091 79.2944 57.8238 79.8707C58.1609 80.1109 58.3053 80.5912 58.0646 80.9274C57.7757 81.3596 57.1016 81.6958 56.572 81.6478C55.6573 81.5998 54.7906 81.1675 53.924 81.4557C52.9611 81.7919 52.4796 82.8965 51.613 83.5209C50.7945 84.1452 49.6871 84.1933 48.7723 84.5775C46.6057 85.442 45.3539 87.7954 44.2947 90.0047C43.9095 90.629 44.6799 91.4455 45.3539 91.3495C45.8354 91.3014 46.2687 90.9172 46.6057 90.533C46.8465 90.2448 47.2798 90.2448 47.5205 90.533C47.8575 90.9652 48.0501 91.5416 48.002 92.0699C47.9538 92.5502 48.3872 92.8383 48.8205 92.7423C49.639 92.4541 50.313 91.6376 50.4574 90.7251C50.5537 89.9566 51.613 89.7645 51.9018 90.485C51.95 90.629 51.9981 90.8211 51.9981 90.9652C51.9981 91.8297 51.5648 92.6462 51.5167 93.4627C51.4685 94.039 51.8055 94.7114 52.2389 94.9516C52.5277 95.0957 52.624 95.5279 52.4314 95.8161C52.0463 96.2964 51.5648 96.6806 50.9871 96.9207C50.2649 97.2089 49.5427 97.2569 48.7723 97.401C45.8354 98.0254 43.4762 100.763 42.8985 103.837C42.754 104.653 43.4281 105.374 44.1984 105.182C44.2947 105.182 44.3429 105.134 44.4392 105.134C44.9688 104.989 45.4021 105.518 45.2095 106.046C44.9206 106.911 44.6799 107.823 44.5354 108.688C44.391 109.504 45.3539 110.08 45.9317 109.504C46.2687 109.168 46.5094 108.736 46.6539 108.303C46.9428 107.247 47.3761 105.806 48.4353 105.854C49.4945 105.902 49.639 107.247 49.3019 108.447C49.1575 109.072 49.6871 109.696 50.313 109.648C50.5056 109.648 50.6982 109.6 50.8908 109.504C51.5648 109.264 52.2389 109.792 52.2389 110.513C52.1907 111.809 51.4204 113.154 50.313 113.827C48.7723 114.835 46.8465 114.883 45.0169 115.027C37.9394 115.604 30.3323 118.533 27.2028 125.209C27.1065 125.401 27.0102 125.642 27.0102 125.93C26.8657 126.842 28.0212 127.371 28.5508 126.65C29.0323 126.026 29.5138 125.401 29.9952 124.777C30.3323 124.345 31.0545 124.585 31.0545 125.161C31.0545 125.786 30.9582 126.41 30.7656 126.986C30.5249 127.659 31.247 128.187 31.7767 127.755C32.6914 126.986 33.6062 125.497 34.7617 125.69C35.7728 125.834 35.9654 127.082 35.821 128.283C35.6765 129.292 36.832 129.916 37.4579 129.148C37.5542 129.052 37.6024 128.907 37.6505 128.811C38.0357 127.947 38.0357 126.938 38.469 126.122C38.9023 125.305 40.2023 124.873 40.6356 125.69C40.78 125.978 40.78 126.314 40.7319 126.65C40.6837 127.178 40.6356 127.755 40.5874 128.283C40.5393 128.811 40.5874 129.292 40.5874 129.82C40.5874 129.868 40.5874 129.916 40.5874 129.964C40.5393 130.829 40.0578 131.597 39.769 132.414C39.4801 133.23 39.4801 134.287 40.2023 134.767C40.4911 134.959 40.8282 135.007 41.1652 135.199C41.8874 135.583 42.1281 136.688 41.6948 137.408C41.1652 138.273 39.9615 138.369 39.3356 139.137C39.143 139.378 39.0468 139.714 39.0468 140.05C39.0949 140.722 39.5764 140.722 39.9134 141.011C40.8763 141.731 40.0578 143.364 38.9505 143.748C37.8431 144.132 36.6394 143.892 35.5802 144.324C34.521 144.757 33.8951 146.582 34.9543 147.11C35.4839 147.35 36.2061 147.11 36.5431 147.879C36.6876 148.215 36.6876 148.599 36.5913 148.935C36.3506 149.608 35.7247 150.04 35.1469 150.376C34.521 150.76 33.7025 151.144 33.0766 150.712C32.8359 150.52 32.6433 150.232 32.4026 150.04C31.2952 149.079 29.8508 150.52 28.599 151.192C26.0472 152.537 23.014 150.664 20.1252 150.808C18.1512 150.904 16.2254 152.153 15.2143 153.93C14.7328 154.747 14.444 155.707 13.9625 156.524C12.8551 158.445 10.8811 159.693 10.0145 161.759C9.77377 162.287 9.62933 162.959 10.1108 163.44C10.496 163.824 11.1219 163.824 11.5552 163.536C12.5663 162.911 12.7588 161.711 13.144 160.702C13.481 159.838 14.1069 158.973 14.9736 158.973C15.7439 158.973 16.2254 159.886 16.1291 160.654C16.0328 161.615 17.1402 162.239 17.8142 161.567C18.392 160.942 18.5846 160.03 18.8253 159.165C19.066 158.301 19.403 157.388 20.1252 156.956C21.1363 156.716 21.9548 158.012 21.8104 159.069C21.7141 160.126 21.0882 161.086 20.6548 162.047C20.5586 162.335 20.4623 162.671 20.5104 162.959C20.703 163.632 21.7141 163.536 22.1955 163.007C22.8214 162.287 22.8214 161.134 23.5918 160.462C23.9288 160.174 24.314 160.078 24.6991 160.27C25.4213 160.654 25.1806 161.807 24.7473 162.527C24.314 163.248 23.7844 164.112 24.1214 164.832C24.4584 165.505 25.3732 165.601 26.0954 165.553C26.7694 165.697 26.4806 166.802 25.9991 167.33C25.5176 167.858 25.0843 168.867 25.7102 169.203C26.0954 169.395 26.8657 169.251 26.8176 169.683C26.5768 170.74 25.4213 171.22 24.4103 171.22C23.3992 171.22 22.3881 170.932 21.377 171.076C19.4512 171.364 18.1031 173.237 17.0439 174.966C16.418 175.975 15.7439 177.128 16.2254 178.328C16.4661 178.905 17.0439 179.337 17.6698 179.193C19.2105 178.857 18.5364 175.975 19.8845 175.927C20.703 175.927 20.9437 177.128 20.7511 177.992C20.5586 178.857 20.2697 179.913 20.8956 180.49C21.0882 180.682 21.3289 180.778 21.4733 180.97C22.0511 181.786 20.5586 182.987 21.04 183.9C21.4733 184.764 22.7733 183.996 23.2066 183.131C23.6399 182.267 24.3621 181.066 25.2288 181.498C26.0472 181.882 25.8547 183.083 25.5658 183.948C25.325 184.812 25.3732 186.157 26.2398 186.205C27.2028 186.301 27.7805 184.524 28.7916 185.196C29.273 185.485 29.5138 186.109 29.3212 186.685C29.0323 187.694 29.7064 188.318 29.8989 189.135C30.1878 190.239 29.4175 191.44 28.4546 192.016C27.4916 192.545 26.3361 192.593 25.2288 192.641C19.403 192.689 13.2403 192.112 8.0405 194.898C4.57396 196.771 1.82962 200.181 0.674102 204.071C0.625956 204.312 0.529663 204.552 0.529663 204.792C0.577809 205.993 2.31108 206.233 3.17771 205.416C3.9962 204.648 4.28508 203.399 4.76654 202.342C5.29615 201.286 6.40352 200.325 7.41459 200.757C8.42567 201.238 8.52196 202.775 8.0405 203.879C7.55903 204.984 6.6924 205.8 6.30723 206.905C6.11464 207.385 6.0665 207.962 6.25908 208.394C6.78869 209.451 8.42567 209.066 9.05157 208.106C9.72562 207.145 9.82191 205.897 10.2552 204.792C10.6885 203.687 11.8922 202.727 12.9033 203.255C13.8181 203.735 13.8662 205.032 14.0106 206.089C14.0588 206.521 14.2032 206.953 14.444 207.337C14.8773 208.058 15.8402 207.962 16.1772 207.193C16.3217 206.809 16.5143 206.473 16.8513 206.233C17.3809 205.8 18.3438 205.897 18.5846 206.569C18.8734 207.577 17.429 208.49 17.9586 209.499C18.2475 210.027 18.9216 210.171 19.403 209.883C20.5586 209.114 20.4623 207.674 20.9919 206.617C21.4252 205.8 22.677 205.272 23.1585 206.041C23.5436 206.617 23.2066 207.385 22.9177 208.058C22.3881 209.355 22.1474 210.939 22.9659 212.044C23.4955 212.813 24.5066 213.053 25.325 212.716C26.9139 212.092 25.8065 210.651 27.0583 209.931C27.5879 209.643 28.2138 209.739 28.599 210.171C29.3212 211.036 28.7916 212.332 28.5508 213.437C28.3101 214.542 28.936 216.223 29.9471 215.79C30.7656 215.454 30.9582 213.965 31.8248 214.013C32.5951 214.109 32.6433 215.262 32.547 216.078C32.547 216.175 32.547 216.319 32.547 216.415C32.6914 217.279 33.7507 217.567 34.2803 216.895C34.521 216.559 34.858 216.175 35.0025 215.742C35.3395 214.926 36.5913 215.166 36.5431 216.03C36.5431 216.078 36.5431 216.126 36.5431 216.175C36.3506 217.039 35.6765 217.615 35.3876 218.432C35.0988 219.248 35.821 220.449 36.5431 220.017L37.2172 219.296C37.4579 219.056 37.8912 219.152 37.9875 219.44C38.2283 220.017 38.806 220.497 39.3838 220.449C40.1541 220.401 40.6837 219.585 40.6356 218.816C40.5874 218.336 41.0208 218 41.4541 218.192C41.6467 218.288 41.7911 218.432 41.9355 218.624C42.0318 218.816 42.1763 219.008 42.3207 219.2C42.6577 219.536 43.2355 219.392 43.2836 218.912C43.3318 218.528 43.5244 218.192 43.7651 217.904C44.1021 217.519 44.6799 217.759 44.728 218.288V218.672C44.7762 219.056 45.0651 219.296 45.4021 219.2C45.7873 219.104 46.1724 219.44 46.0761 219.873C45.9317 220.497 46.028 221.121 46.5576 221.362C46.7983 221.458 47.0872 221.41 47.2798 221.602C47.6168 221.986 47.3279 222.754 47.3279 223.235C47.3279 223.475 47.3761 223.619 47.6168 223.619C48.2427 223.523 48.7723 224.003 48.9168 224.675C49.0131 225.156 49.2538 225.54 49.6871 225.78C50.1204 226.02 50.6019 225.924 50.9389 225.636C51.4685 225.156 51.1796 224.531 51.2759 223.955C51.2759 223.907 51.2759 223.907 51.3241 223.859C51.5167 223.427 52.0944 223.523 52.1907 224.003C52.3352 224.675 52.624 225.252 53.2499 225.492C53.6351 225.636 54.1647 225.444 54.3573 225.06C54.6462 224.531 54.261 224.051 54.1647 223.523C54.0684 222.995 54.5017 222.466 54.9832 222.514C55.4647 222.562 55.8017 223.187 55.561 223.619C55.7054 224.387 56.8609 223.715 56.9572 222.946C57.0054 222.754 57.0535 222.514 57.1016 222.274C57.2461 221.602 58.0646 221.458 58.4979 221.986C58.8349 222.466 59.3164 222.754 59.9904 222.37C60.3756 222.13 60.6163 221.698 60.6645 221.266C60.6645 221.121 60.7126 220.929 60.8089 220.785C61.0978 220.065 61.9644 219.969 62.494 220.497C62.9274 220.977 63.8903 221.073 64.1792 220.401C64.4199 219.873 64.1792 219.296 64.2273 218.72C64.2754 218 65.1902 217.904 65.4791 218.528C65.9124 219.536 66.6828 220.449 67.5975 219.825C68.1272 219.44 68.3679 218.768 68.2716 218.096C68.1272 217.231 69.1382 215.838 69.9086 216.415C70.6789 217.039 69.9086 218.864 71.353 218.672C71.7863 218.624 72.0752 218.24 72.1233 217.759C72.1715 217.039 73.5196 216.367 73.664 217.135C73.5196 217.567 73.4714 218.048 73.5677 218.48C73.8084 219.44 75.0121 219.536 75.3973 218.672C75.638 218.144 76.312 217.567 76.7935 218.144C76.9861 218.384 76.8898 218.768 76.9861 219.104C77.275 220.257 78.7194 220.161 78.8638 219.056C78.9601 218.48 78.9119 217.759 79.2971 217.375C79.5378 217.135 79.8749 217.087 80.1638 216.943C80.5971 216.751 81.0304 216.511 81.3674 216.126C81.6563 215.838 82.0896 215.694 82.4748 215.838C82.7155 215.886 82.9562 215.886 83.1488 215.742C83.197 215.694 83.2451 215.646 83.2933 215.55L84.0155 214.157C84.3043 213.581 85.171 213.725 85.3154 214.349C85.3636 214.494 85.4117 214.638 85.508 214.782C85.7006 215.07 85.9895 215.262 86.3265 215.262C86.7117 215.262 87.0487 215.07 87.2894 214.734C87.482 214.446 87.9153 214.446 88.1079 214.734L88.6375 215.646C88.8782 216.03 89.4079 216.078 89.6486 215.646L89.6967 215.598C89.9856 215.118 90.6597 215.262 90.756 215.79C90.8522 216.271 90.756 216.847 91.2374 217.183C91.5744 217.423 92.0559 217.375 92.3929 217.087C92.8262 216.703 93.0188 216.126 93.067 215.55C93.1151 215.07 93.741 215.07 93.8373 215.55C93.8855 215.934 93.8373 216.367 94.1262 216.607C94.8965 217.231 95.5224 215.07 96.2928 214.878C96.4854 214.83 96.678 214.974 96.7261 215.166C96.8705 215.79 97.015 216.367 97.4483 216.799C97.9298 217.279 98.7964 217.423 99.1816 216.847C99.4223 216.511 99.4704 216.03 99.5186 215.55C99.5667 215.118 99.9519 214.878 100.289 214.878C100.482 214.878 100.674 214.926 100.819 215.07C101.059 215.31 101.396 215.358 101.685 215.166L101.83 215.07C102.215 214.83 102.744 214.926 103.033 215.31C103.178 215.55 103.37 215.742 103.611 215.934C103.996 216.271 104.43 216.511 104.911 216.607C105.248 216.655 105.489 217.039 105.441 217.375V217.423C105.392 217.807 105.633 218.192 106.018 218.192C106.115 218.192 106.259 218.192 106.404 218.144C106.741 218.096 107.078 218.288 107.126 218.624C107.222 219.056 107.366 219.44 107.703 219.777C107.944 219.969 108.233 220.065 108.522 220.017C109.1 219.873 109.196 219.2 109.292 218.624C109.34 218 110.063 217.807 110.4 218.288C110.929 219.056 111.7 219.633 112.422 219.2C113.385 218.576 113 216.655 114.059 216.223C114.974 215.838 115.744 217.039 116.081 218C116.418 218.96 117.236 220.161 118.151 219.729C118.681 219.488 118.873 218.864 118.97 218.288C119.066 217.711 119.162 217.087 119.596 216.703C120.029 216.319 120.896 216.655 120.799 217.231C120.414 217.904 120.318 218.768 120.559 219.536C120.655 219.825 120.992 219.969 121.233 219.825C121.57 219.633 122.003 219.969 121.955 220.353C121.81 220.977 122.051 221.65 122.581 221.938C123.303 222.37 124.362 221.842 124.507 220.977C124.699 220.017 124.121 218.624 125.036 218.336C125.807 218.24 125.951 219.44 125.758 220.209C125.71 220.305 125.71 220.401 125.71 220.497C125.614 221.169 126.095 221.65 126.673 221.65C126.866 221.65 127.106 221.602 127.251 221.41C127.877 220.881 128.792 221.41 128.792 222.226C128.792 223.187 128.599 224.387 129.369 224.916C129.899 225.3 130.621 225.108 131.054 224.627C132.066 223.475 131.584 221.794 131.921 220.401C132.017 220.065 132.403 219.921 132.691 220.161C132.836 220.305 133.028 220.401 133.269 220.449C133.51 220.545 133.751 220.401 133.847 220.113C133.991 219.681 134.617 219.681 134.762 220.113C134.954 220.641 135.099 221.217 135.484 221.554C136.014 222.034 136.688 221.842 137.313 221.506C137.795 221.217 138.421 221.41 138.662 221.986C138.854 222.418 139.095 222.802 139.432 223.139C140.106 223.715 141.261 223.715 141.647 222.898C141.936 222.322 141.695 221.602 141.55 220.929C141.406 220.257 141.55 219.392 142.176 219.248C142.85 219.056 143.332 219.873 143.476 220.545C143.621 221.314 143.717 222.178 144.439 222.514C144.872 222.706 145.402 222.562 145.691 222.226C145.835 222.082 145.932 221.89 146.028 221.746C146.365 220.977 147.232 220.641 148.05 220.737C148.098 220.737 148.146 220.737 148.195 220.737C148.869 220.737 149.061 219.777 149.013 219.056C148.965 218.336 148.917 217.471 149.543 217.183C150.072 216.943 150.698 217.423 150.891 218C151.083 218.576 151.083 219.2 151.276 219.777C151.372 220.065 151.469 220.305 151.613 220.545C152.431 221.794 154.309 221.217 154.405 219.681C154.454 219.008 154.309 218.336 154.02 217.711C153.683 216.991 154.598 216.271 155.128 216.847C155.561 217.327 155.754 218 156.091 218.576C156.428 219.152 157.102 219.633 157.679 219.344C158.305 219.008 158.257 218.144 158.305 217.423C158.305 216.703 158.69 215.79 159.365 215.934C160.135 216.078 159.99 217.327 160.327 218.096C160.809 219.152 162.638 218.96 162.879 217.807C163.024 217.087 162.638 216.367 162.879 215.646C162.975 215.358 163.168 215.118 163.409 215.022C163.987 214.83 164.42 215.502 164.516 216.126C164.564 216.703 164.42 217.279 164.564 217.856C164.757 218.576 165.672 218.672 166.009 218.048C166.249 217.567 166.586 217.183 167.02 216.991C167.405 216.847 167.886 216.895 168.175 217.231C168.56 217.615 168.416 218.144 168.416 218.624C168.416 219.248 168.753 219.873 169.283 220.113C169.812 220.353 170.534 220.161 170.823 219.633C171.16 219.008 170.823 218.24 170.727 217.519C170.631 216.799 171.016 215.79 171.69 215.982C172.123 216.078 172.316 216.559 172.557 216.895C172.557 216.895 172.557 216.895 172.557 216.943C172.846 217.279 173.375 216.943 173.231 216.463C173.183 216.319 173.183 216.223 173.183 216.078C173.183 215.166 174.386 214.878 174.723 215.742C174.868 216.127 175.108 216.463 175.445 216.703C175.927 217.039 176.553 217.039 176.938 216.655C177.949 215.646 176.36 213.341 177.516 212.524C178.334 211.948 179.345 213.005 180.308 213.149C181.367 213.293 182.378 211.996 181.993 210.891C181.753 210.267 181.175 209.787 180.982 209.162C180.693 208.202 181.608 207.097 182.571 207.289C183.438 207.433 183.967 208.346 184.593 208.97C185.219 209.595 186.423 209.931 186.808 209.114C187.001 208.73 186.952 208.154 187.53 207.962C188.108 207.77 188.782 208.058 189.119 208.634C189.6 209.403 190.949 210.411 191.526 209.547C191.911 208.97 191.382 208.154 191.623 207.529C191.863 206.905 192.634 206.713 193.26 206.713C193.885 206.761 194.56 206.857 195.041 206.521M138.902 88.3237C139.432 87.8914 140.202 87.8434 140.78 88.1796C141.117 88.3717 141.502 88.1796 141.599 87.7954C141.695 87.4112 141.839 86.9789 141.936 86.5947C142.08 86.0664 142.754 85.9703 142.995 86.4986C143.235 87.075 143.476 87.8434 143.958 88.0835C144.439 88.3237 145.065 88.0355 145.306 87.5072C145.547 87.0269 145.547 86.4026 145.402 85.8743C144.872 83.3288 142.85 81.4076 140.684 80.1589C139.673 79.5826 138.565 79.0543 137.41 79.1503C136.543 79.2464 135.677 79.6786 134.762 79.4865C134.136 79.3424 133.654 78.67 133.654 78.0937C133.654 77.8055 133.991 77.7095 134.184 77.9016C134.425 78.1417 134.858 77.9976 134.906 77.6614C135.002 77.1331 135.051 76.6048 135.147 76.0765C135.243 75.3561 136.062 74.9719 136.591 75.4041C136.784 75.5482 136.928 75.6443 137.121 75.6923C137.747 75.8364 138.325 75.164 138.373 74.4916C138.421 73.8192 138.132 73.1948 137.843 72.6185C136.976 70.8895 135.725 68.8723 133.847 69.0164C132.884 69.0644 131.68 69.6888 131.054 68.8723C130.38 67.9598 131.536 66.663 131.343 65.5584C131.151 64.4057 129.755 64.1175 128.695 63.8774C127.973 63.7333 127.155 63.3971 126.721 62.8688C126.481 62.5326 126.625 62.0523 127.01 61.8602C127.54 61.6201 127.877 60.7075 127.54 60.1312C127.058 59.3627 126.047 59.1706 125.132 59.0746C124.073 58.9785 122.821 58.7384 122.533 57.4896C122.34 56.6732 122.821 56.0488 123.64 56.2409C124.266 56.385 124.314 57.1054 124.699 57.5377C125.277 58.114 126.384 57.5857 126.384 56.7692C126.384 56.2409 125.999 55.7606 125.71 55.2803C125.373 54.752 125.758 54.0796 126.336 54.0796C126.769 54.1277 127.251 54.0316 127.636 53.8395C128.021 53.6954 128.166 53.2151 128.021 52.8309C127.395 51.294 126.432 49.8532 125.229 48.7485C124.844 48.3643 124.362 48.0281 123.833 47.932C123.303 47.836 122.773 48.0281 122.244 48.1722C120.703 48.5564 119.066 48.3163 117.67 47.5959C117.14 47.3077 116.611 46.9715 116.418 46.3951C116.177 45.8188 116.37 45.0504 116.899 44.8102C117.525 44.5701 118.151 45.0984 118.681 45.5306C118.873 45.6747 119.066 45.7708 119.307 45.8668C119.885 46.059 120.462 45.5787 120.414 44.9543C120.414 44.9543 120.414 44.9543 120.414 44.9063C120.366 43.6575 119.885 42.4568 119.162 41.4963C119.018 41.3042 118.873 41.1601 118.729 40.968C118.536 40.7278 118.296 40.4877 118.007 40.3916C117.67 40.2956 117.285 40.4397 116.948 40.3916C116.129 40.2956 115.599 39.335 114.781 39.0949C114.107 38.9028 113.385 39.287 112.711 39.5271C112.037 39.7673 111.122 39.8153 110.785 39.1429C110.448 38.5185 111.074 37.606 111.748 37.7501C111.892 37.7981 112.037 37.8461 112.181 37.8461C112.566 37.8461 112.903 37.4139 112.903 36.9816C112.903 36.5494 112.711 36.1652 112.518 35.7809C112.277 35.3487 112.085 34.7243 112.566 34.4361C112.807 34.244 113.144 34.244 113.433 34.3881C113.818 34.5802 114.588 34.6763 114.685 34.196C114.733 34.0519 114.685 33.8598 114.637 33.7157C114.396 32.8992 114.155 32.0347 113.625 31.4104C113.096 30.786 112.181 30.4018 111.459 30.786C111.074 31.0262 110.737 31.4104 110.303 31.5064C110.015 31.6025 109.677 31.5064 109.389 31.3624C108.57 30.9301 107.992 30.0176 107.896 29.057C107.848 28.6728 107.896 28.2405 108.185 27.9524C108.426 27.6642 108.907 27.5201 109.196 27.8083C109.677 28.2405 109.34 29.2011 109.774 29.6333C110.111 29.9215 110.64 29.7774 110.881 29.4412C111.17 29.105 111.218 28.6247 111.314 28.1925C111.363 27.8563 111.411 27.4721 111.7 27.328C112.133 27.0398 112.711 27.4721 113.144 27.2319C113.77 26.9918 113.577 26.0312 113.288 25.4069C112.711 24.3502 111.892 23.2936 110.737 23.1976C109.1 23.0535 107.752 24.8786 106.066 24.3022C105.681 24.1581 105.344 23.87 105.2 23.4377C105.152 23.3417 105.152 23.2456 105.152 23.1495C105.2 22.7653 105.681 22.6693 105.922 22.4291C106.644 21.6607 105.055 20.2679 105.681 19.4034C106.163 18.6829 107.415 19.3553 107.896 18.4908C108.041 18.2026 108.04 17.8184 107.944 17.5303C107.703 16.9059 107.126 16.5697 106.596 16.2335C105.97 15.8493 105.248 15.465 104.526 15.7052C104.044 15.8973 103.659 16.3776 103.13 16.3296C102.552 16.2815 102.215 15.6091 102.263 14.9848C102.311 14.4084 102.6 13.8321 102.793 13.2558C102.985 12.6794 102.985 11.959 102.6 11.5748C102.07 11.0465 101.252 11.2386 100.53 11.3827C99.8075 11.5267 98.8445 11.3827 98.7001 10.6622C98.5075 9.7497 99.7112 8.74111 99.1334 8.02069C98.7001 7.49238 97.6409 7.8766 97.3039 7.25224C97.2076 7.10815 97.2076 6.86801 97.2076 6.6759C97.2557 6.00351 97.4964 5.33111 97.9298 4.75477C98.2186 4.37055 98.6038 4.03435 98.5557 3.55407C98.5075 3.21788 98.2668 2.92971 98.0261 2.73759C97.4964 2.25731 96.8224 1.82506 96.1002 1.87309C96.0521 1.87309 96.052 1.87309 96.0039 1.87309C95.3299 1.96914 94.704 2.64154 94.8484 3.36196M193.548 204.792C194.078 205.512 194.608 206.185 195.137 206.857L196.341 208.154C196.485 208.298 196.678 208.442 196.871 208.538C197.545 208.874 198.508 208.874 199.037 208.298C199.904 207.337 199.182 205.752 198.315 204.792C195.426 201.67 191.045 200.133 186.952 200.902C185.652 201.142 184.015 201.43 183.341 200.229C183.149 199.893 183.101 199.509 182.908 199.221C182.186 197.828 180.212 198.308 178.719 198.068C178.527 198.02 178.382 197.972 178.238 197.876C177.997 197.588 178.093 197.155 178.093 196.771C178.045 195.859 177.227 194.946 177.612 194.13C177.853 193.601 178.479 193.409 179.008 193.553C179.201 193.601 179.393 193.697 179.586 193.793C180.356 194.226 181.271 193.601 181.175 192.689C181.175 192.497 181.127 192.257 181.079 192.112C180.838 191.248 180.597 190.047 181.367 189.615C182.186 189.135 183.101 190.095 183.438 191.008C183.775 191.92 184.208 193.073 185.171 193.169C186.278 193.265 186.856 191.776 187.001 190.576C187.049 190.191 187.145 189.711 187.482 189.519C187.963 189.183 188.541 189.567 188.926 190.047C189.263 190.479 189.6 191.056 190.13 191.2C190.949 191.44 191.671 190.479 191.623 189.615C191.574 188.75 191.045 187.982 190.563 187.31C188.975 185.148 187.097 182.843 184.545 182.555C182.86 182.363 180.982 183.035 179.538 182.075C179.105 181.786 178.768 181.354 178.286 181.21C177.468 180.922 176.408 181.402 175.686 180.922C174.964 180.394 174.868 179.097 174.001 178.857C172.942 178.617 172.46 180.298 171.497 180.778C170.679 181.21 169.668 180.682 169.042 179.961C168.512 179.385 168.127 178.52 168.56 177.848C168.849 177.416 169.331 177.272 169.86 177.224C170.92 177.08 171.594 176.023 171.353 174.918C171.209 174.39 171.209 173.814 171.353 173.285C171.642 172.229 173.086 171.508 173.808 172.325C174.338 172.901 174.242 174.006 175.012 174.246C175.494 174.438 176.071 174.15 176.312 173.67C176.89 172.469 176.312 171.364 176.312 170.164C176.312 169.251 176.986 168.242 177.805 168.483C178.671 168.723 178.719 169.923 178.768 170.884C178.816 171.7 178.96 172.565 179.538 173.141C180.116 173.718 181.175 173.766 181.608 173.093C182.282 171.989 180.838 170.212 181.753 169.299C182.33 168.675 183.39 169.347 183.678 170.164C183.967 170.98 183.823 171.941 184.208 172.757C184.593 173.574 185.845 173.958 186.182 173.141C186.278 172.853 186.23 172.565 186.182 172.277V172.229C185.701 169.107 183.967 166.321 181.464 164.64C180.982 164.352 180.501 164.016 180.067 163.68C178.43 162.623 176.697 161.519 174.82 161.615C174.145 161.663 173.327 161.807 172.846 161.23C172.653 160.99 172.557 160.654 172.46 160.318C171.979 159.213 170.727 158.685 169.572 158.685C168.416 158.685 167.309 159.069 166.153 159.261C165.527 159.357 164.853 159.453 164.275 159.117C163.698 158.829 163.313 158.012 163.601 157.436C164.083 156.428 165.816 156.86 166.442 155.947C166.972 155.179 166.346 154.026 165.527 153.594C164.709 153.162 163.746 153.114 162.927 152.585C162.831 152.537 162.735 152.441 162.638 152.345C162.013 151.721 162.59 150.616 163.457 150.76C163.842 150.808 164.275 150.76 164.612 150.52C165.287 150.04 165.575 149.031 165.287 148.263C165.142 147.927 164.901 147.59 164.853 147.206C164.757 146.39 165.768 145.861 166.538 145.909C166.635 145.909 166.731 145.909 166.875 145.957C167.838 146.102 168.609 145.045 168.175 144.132C167.501 142.692 166.538 141.443 165.142 141.107C164.95 141.059 164.757 141.059 164.564 140.914C164.179 140.626 164.324 139.954 164.564 139.522C164.805 139.089 165.19 138.657 165.094 138.129C164.998 137.456 164.275 137.168 163.698 137.024C162.783 136.784 161.772 136.592 161.098 135.92C161.05 135.872 161.05 135.823 161.001 135.823L160.953 135.775C160.905 135.727 160.905 135.679 160.857 135.631C160.376 134.815 161.146 133.806 162.013 134.046C162.542 134.191 163.168 134.046 163.553 133.662C164.275 132.846 164.275 131.501 163.89 130.54C163.746 130.156 163.746 129.772 163.938 129.436C164.42 128.523 165.431 129.1 165.72 129.868C165.961 130.54 165.912 131.261 166.105 131.933C166.394 132.846 167.646 132.462 167.501 131.549C167.405 131.117 167.357 130.684 167.501 130.252C167.598 129.868 167.935 129.58 168.272 129.58C168.705 129.58 168.946 129.964 169.186 130.348C169.572 131.069 169.957 131.789 170.342 132.51C170.92 133.614 172.508 133.278 172.701 132.029V131.981C172.797 131.069 172.508 130.204 172.123 129.388C170.823 126.89 168.464 125.209 165.912 124.249C163.361 123.288 160.664 122.952 158.016 122.664C154.887 122.28 151.95 122.039 148.869 121.703C148.58 121.655 148.243 121.511 148.05 121.271C148.002 121.223 148.002 121.175 147.954 121.175C147.569 120.358 147.809 119.206 148.628 118.87C148.917 118.725 149.302 118.774 149.591 118.629C150.554 118.197 150.457 116.708 150.12 115.604C149.783 114.547 149.543 113.106 150.457 112.53C151.18 112.05 151.998 112.338 152.335 113.154C152.576 113.731 152.48 114.307 153.298 114.451C154.068 114.547 154.068 113.25 154.935 113.635C155.32 113.827 155.272 114.355 155.465 114.595C155.85 115.123 156.716 115.123 157.102 114.595C157.728 113.731 156.957 112.194 157.776 111.521C158.209 111.137 158.931 111.377 159.316 111.809C159.413 111.905 159.509 112.05 159.557 112.146C160.183 113.25 161.772 113.298 162.301 112.146C162.35 112.002 162.398 111.857 162.446 111.713C162.687 110.609 162.301 109.456 161.724 108.447C160.039 105.614 156.909 103.885 153.731 104.029C152.287 104.077 150.843 104.557 149.398 104.845C149.109 104.893 148.82 104.989 148.532 105.037C146.846 105.326 145.691 103.356 146.654 101.916C147.232 101.051 147.665 100.139 147.28 99.2741C146.846 98.3135 145.595 98.0734 144.632 98.2655C144.343 98.3135 144.102 98.4096 143.813 98.4576C142.754 98.7458 141.936 97.5451 142.513 96.5845C142.898 95.9602 143.139 95.2878 142.513 94.5193C142.321 94.2792 142.032 94.039 141.695 93.943C140.587 93.4627 139.432 92.7903 138.806 91.6376C138.662 91.3495 138.373 90.8212 138.325 90.1968M101.589 226.068L101.637 230.775M88.8301 233.273L90.3226 234.041M88.8782 234.954L89.7449 235.29M98.1223 47.7399C97.4002 47.836 96.9187 48.6044 96.9668 49.3249C97.015 50.0453 97.4483 50.7177 97.9779 51.246C98.652 51.9664 99.663 52.5427 100.674 51.9664C101.059 51.7263 101.396 51.3901 101.589 50.9578C101.878 50.3335 101.926 49.7091 101.878 49.0847C101.83 48.1242 102.6 47.3077 103.515 47.4518C103.9 47.4998 104.189 47.6919 104.381 48.0281C104.526 48.2682 104.526 48.6044 104.622 48.8446C104.959 49.565 106.066 49.7091 106.692 49.1808C107.27 48.6525 107.366 47.6439 107.029 46.9235C106.837 46.5873 106.596 46.203 106.789 45.8188C106.933 45.5787 107.174 45.3866 107.463 45.3385C108.04 45.2425 108.666 45.4346 109.052 45.8668C109.34 46.155 109.533 46.5392 109.918 46.6833C110.303 46.8274 110.833 46.4432 110.64 46.107" stroke="#D8D2C5" stroke-miterlimit="10" stroke-linecap="round" stroke-linejoin="round"/>
</g>
<defs>
<clipPath id="clip0_929_3213">
<rect width="200" height="246" fill="white"/>
</clipPath>
</defs>
</svg>
