<svg width="200" height="246" fill="none" xmlns="http://www.w3.org/2000/svg"><g clip-path="url(#a)"><path d="M84.738 69.353c-.819.576-1.686-1.441-2.552-.961-.337.192-.385.72-.385 1.105 0 .912-.048 1.92-.53 2.641-.53.72-1.733.96-2.215.192-.385-.624-.24-1.729-.914-1.92-.482-.145-.963.335-1.156.864-.193.48-.337 1.056-.77 1.344-.867.529-1.878-.624-1.878-1.632-.048-1.345.722-2.642.048-3.987-.337-.576-1.059-.864-1.589-.48-.674.432-.385 1.393-.722 2.017-.144.288-.385.432-.674.528-1.011.289-1.926-.72-1.733-1.825.144-.672.144-1.344-.145-1.969-.481-1.056-2.31-1.2-2.551-.048-.097.384.048.769.096 1.153.096 1.105-.77 2.305-2.022 2.113-.337-.048-.626-.24-.867-.48-.578-.673-.433-1.585-.433-2.402-.048-.72-.385-1.584-1.108-1.633-.674-.048-1.107.72-1.588 1.25-.434.528-1.445.864-1.685.191 0-.528.048-1.104.192-1.633m39.287 31.747c.578 1.105 1.589 2.353 2.697 1.921 1.348-.576 1.059-3.122 2.6-3.554.577-.144 1.155.096 1.54.576a4.3 4.3 0 0 1 .385.625c.578 1.392 2.263 1.92 3.419.96.144-.096.289-.24.433-.336 1.108-.817 3.178-.817 3.226.576 0 .337-.096.673-.193 1.009-.144.96.434 1.97 1.3 2.353.867.337 1.926-.048 2.408-.864.385-.673.433-1.49.77-2.161.819-1.537 3.37-1.345 3.948.288.193.48.241 1.008.819 1.248.674.24 1.396-.096 1.685-.768.529-1.249-.193-2.45-.723-3.602-.625-1.249-1.011-2.834-.337-4.035.53-.96 1.734-1.296 2.6-.672.819.624.386 1.393.578 2.065.096.385.337.625.626.769 1.011.48 2.167-.48 2.022-1.633-.144-.96.193-2.017.963-2.642 1.107-.912 2.985-.576 3.755.673.241.384.386.816.626 1.2.723 1.201 2.408 1.633 3.611.913.145-.096.289-.192.434-.336m0-.144c.433-.433.722-1.057.818-1.681.096-.577 0-1.201-.241-1.73m-86.374 23.775c.337-.096.674.24.578.624-.193.816-.29 1.633.144 2.401.289.529.915.865 1.493.721.914-.24 1.107-1.441 1.444-2.354v-.048c.481-1.008 1.926-.672 1.974.481 0 .384.048.768.24 1.152.29.673.964 1.201 1.59 1.057.674-.144 1.685-.72 1.781 0 0 .24-.144.432-.24.624-.579 1.057.288 2.546 1.444 2.69 1.155.144 2.263-.865 2.503-2.065.145-.769.145-1.681.77-2.066.193-.096.482-.144.723-.096 1.155.096 2.214 1.105 2.407 2.354.144.912-.193 1.873.048 2.737.241 1.105 1.396 1.873 2.456 1.681.818-.144 1.492-.816 1.733-1.681.24-.816 1.3-.96 1.685-.24.337.577.53 1.345 1.06 1.729 1.203.769 2.455-.864 2.84-2.257.385-1.393 1.011-3.218 2.407-3.122.77.048 1.348.721 1.83 1.345.481.624 1.01 1.345 1.733 1.489.77.144 1.637-.721 1.252-1.393m23.688 27.088c.144.768 1.3.96 2.07.624.771-.336 1.348-.96 2.119-1.249 1.54-.576 3.514.769 3.37 2.354-.048.48-.241.96-.145 1.441.145.672.963 1.104 1.686.912.337-.096.625-.384.77-.672.53-1.105 1.926-1.489 2.937-.817.481.337.915.817 1.107 1.297.289.624.337 1.297.289 1.969-.144 2.258 2.793 3.266 3.804 1.249.096-.192.192-.432.192-.624.289-1.777-1.107-3.939.241-5.187 1.733-1.585 5.729.672 6.692-1.393.434-.913-.24-1.921-.385-2.882-.048-.192 0-.384.048-.576.241-.769 1.348-.529 1.348.288 0 .864.53 1.729 1.397 2.017 1.251.432 2.84-.432 3.033-1.681.144-.912-.337-1.873 0-2.689.337-.769 1.155-1.057 2.022-1.009 1.156.048 2.07 1.009 2.359 2.209a1.95 1.95 0 0 0 1.204 1.393c.77.24 1.637-.048 2.166-.624.53-.577 1.445-.529 1.878.096.193.288.433.576.722.72.915.432 1.974-.576 2.071-1.537.144-.96-.241-1.969 0-2.929.24-.961 1.54-1.778 2.311-1.105.481.432.385 1.105.626 1.681.433 1.105 2.07 1.489 3.225.96.771-.336 1.397-.96 1.782-1.681 0 0 .048-.048.048-.096M53.106 149.175c-1.397.481-2.89 1.057-3.323 2.738-.24.96.29 1.969 1.252 2.113.963.144 1.685-.816 2.36-1.585.722-.816 2.214-1.441 2.696-.048.192.48.096 1.057-.145 1.537-.626 1.249.24 2.834 1.445 3.17 1.396.336 3.033-.961 2.6-2.69-.241-.912.288-2.017 1.155-2.305 1.637-.576 1.974 1.921 1.733 3.074-.144.768.193 1.633.819 2.017.963.576 1.83-.384 2.118-1.297.289-.816.433-1.777 1.06-2.401 1.01-.961 2.696-.48 3.08.864.386 1.297-.529 2.594-.336 3.891 0 .192.048.336.144.528.626 1.537 2.745 1.297 3.226-.288.144-.529.433-.961.963-1.249a1.082 1.082 0 0 1 1.492.48c.241.481-.048.913-.192 1.345-.337 1.201.722 2.498 1.926 2.45 1.155-.049 2.166-1.201 2.263-2.402.096-1.441-.723-3.074.192-4.13.915-1.057 2.648-.24 3.467.864.481.577.866 1.297 1.348 1.873.674.817 1.974.577 2.263-.48v-.048c.288-1.105 1.781-1.057 1.925.096v.048c.097 1.009 0 2.161.578 2.978.578.816 2.311.432 2.022-.577M31.392 188.75c-1.012.241-1.349 1.826-.675 2.69.675.865 1.878 1.057 2.89.72.096-.048.192-.048.24-.096 1.107-.432 2.36.145 2.744 1.345.29 1.009.867 1.825 1.83 2.065 1.06.241 2.118-.432 2.792-1.296.241-.337.53-.721.963-.721.241 0 .434.144.578.288.722.817 0 2.114.53 3.026.433.721 1.444.817 2.118 1.057.289.096.626.144.963.096 2.118-.336 1.637-2.402 1.926-3.938.289-1.441 2.263-1.393 2.552.048 0 .048.048.096.048.192.24.816 1.01 1.441 1.83 1.441 1.107 0 2.118-1.105 1.877-2.354-.193-.768.337-1.441 1.107-1.393.819.096.723 1.345.915 2.162.193.816.915 1.392 1.685 1.392.915 0 1.782-.912 1.685-1.921-.048-.336.097-.672.434-.768.818-.336.818.96 1.348 1.441.722.624 1.637-.577 1.878-1.537m52.72-5.235c.096 1.489 2.215 2.305 3.563 1.585 1.107-.577 1.685-1.729 1.733-2.93.048-1.009 1.396-1.393 1.878-.48 0 .048.048.096.048.096.289.816.192 1.777.818 2.401.145.144.289.24.482.336 1.155.481 2.407-.336 2.6-1.633.048-.192.048-.384.048-.576.096-1.057 1.396-1.393 1.877-.48.049.048.049.096.097.144.289.768.192 1.633.529 2.353.53 1.153 2.215 1.681 3.371 1.009 1.155-.673 1.444-2.354.626-3.314-.193-.24-.482-.48-.53-.817-.096-.864 1.348-.912 2.167-.432.77.48 1.974 1.009 2.455.24.481-.768-.53-2.017.241-2.497.289-.192.674-.096 1.011-.048l.096.048c1.252.288 2.407-.721 2.407-2.065 0-.865.771-1.489 1.541-1.249.145.048.289.144.433.288.434.48.386 1.249.578 1.873.048.144.145.288.241.384.385.433 1.011.289 1.252-.24.24-.384 1.059-.576 1.589-.336.722.336 1.54.913 2.214.528 1.3-.72-.722-2.689-.096-4.034.481-.961 2.167-.768 2.744.144.434.624.482 1.393.434 2.161-.049.721.481 1.345 1.155 1.249h.048c.722-.096.867-1.105.193-1.441m-71.257 65.703c3.611-7.012 3.178-23.822 2.84-30.498m18.008 1.297c-.626 8.453-1.011 23.629 3.562 29.201m-7.703-22.526s-.481 8.934 0 11.431M96.148 1.873C95.908 1.25 95.426.72 94.8.624c-1.203-.24-2.455 1.105-2.166 2.402.24 1.008 1.251 1.92 0 3.122-.385.384-.915.528-1.445.48-1.059 0-2.648 1.249-1.926 2.21.53.72 1.734.287 2.36.912.914.912-.53 2.497-1.782 2.353-1.252-.144-2.455-1.008-3.659-.816-.433.048-.818.288-1.156.624-1.685 1.68-.625 3.698.867 4.178.337.097.53.48.385.817-.337.912-.144 2.017.434 2.786.24.336.77.24.963-.145.288-.576 1.107-.288 1.01.337-.192 1.248-1.251 2.45-2.503 2.305-.963-.096-1.781-.817-2.696-1.009a1.765 1.765 0 0 0-1.445.385.98.98 0 0 0-.048 1.488l.337.337c.53.528.386 1.44-.288 1.729-.434.192-1.012.288-1.445.096-1.011-.336-1.83-1.153-2.889-1.249-1.83-.192-3.033 1.873-3.851 3.602-.29.672-.626 1.489-.145 2.065.385.48 1.06.577 1.589.289.53-.24.867-.72 1.156-1.25.192-.383.674-.287.722.145.144.864-.049 1.825-.482 2.593a.873.873 0 0 1-.963.433c-1.685-.385-3.61 1.344-3.322 3.17.096.528.29 1.008.24 1.536-.192 1.25-1.877 1.393-3.08 1.25-1.204-.097-2.89.431-2.745 1.68.193.624.722 1.057 1.3 1.249.434.096.674.576.482 1.008-.385.817-1.156 1.49-1.83 2.114-.963.816-1.974 1.873-1.926 3.17.048 1.296 1.974 2.209 2.552 1.056.289-.624.096-1.537.626-1.873.818.144.77 1.489.24 2.161-.529.673-1.3 1.297-1.347 2.162 0 .576.336 1.104.336 1.632-.048 1.73-2.455 1.585-4.044 1.441-3.177-.288-6.355 1.922-7.414 5.091-.097.337.192.72.53.673a3.717 3.717 0 0 0 1.733-.577c.337-.192.722.048.77.433.048.48-.048.96-.24 1.392-.29.625.192 1.441.866 1.393h.096c.578-.096 1.011.529.819 1.057-.097.24-.241.432-.482.576a.777.777 0 0 1-.433.144c-.53.144-1.156.048-1.733.096-2.312.24-3.611 2.834-4.526 5.091-.193.529-.433 1.153-.096 1.73.337.528.962.768 1.588.624.578-.144.963-.433 1.348-.865.434-.48 1.204-.336 1.493.288.337.72.626 1.49.963 2.21.24.528.433 1.056.337 1.633-.193 1.008-1.252 1.489-1.782 2.353-.577.96-.144 2.353.77 2.93.338.24.482.72.242 1.056-.29.433-.963.769-1.493.72-.915-.047-1.781-.48-2.648-.191-.963.336-1.444 1.44-2.311 2.065-.819.624-1.926.672-2.84 1.056-2.167.865-3.42 3.218-4.478 5.428-.386.624.385 1.44 1.059 1.345.481-.049.915-.433 1.252-.817a.592.592 0 0 1 .914 0c.337.432.53 1.009.482 1.537-.048.48.385.768.819.672.818-.288 1.492-1.104 1.636-2.017.097-.768 1.156-.96 1.445-.24a1.7 1.7 0 0 1 .096.48c0 .865-.433 1.681-.481 2.498-.049.576.288 1.248.722 1.489.289.144.385.576.192.864-.385.48-.866.865-1.444 1.105-.722.288-1.444.336-2.215.48-2.937.624-5.296 3.362-5.873 6.436-.145.816.53 1.537 1.3 1.345.096 0 .144-.048.24-.048.53-.145.963.384.77.912-.288.865-.53 1.777-.674 2.642-.144.816.819 1.392 1.397.816.337-.336.577-.768.722-1.201.289-1.056.722-2.497 1.781-2.449 1.06.048 1.204 1.393.867 2.593-.145.625.385 1.249 1.011 1.201.193 0 .385-.048.578-.144.674-.24 1.348.288 1.348 1.009-.048 1.296-.819 2.641-1.926 3.314-1.54 1.008-3.467 1.056-5.296 1.2-7.078.577-14.685 3.506-17.814 10.182a1.59 1.59 0 0 0-.193.721c-.144.912 1.011 1.441 1.54.72l1.445-1.873c.337-.432 1.06-.192 1.06.384 0 .625-.097 1.249-.29 1.825-.24.673.482 1.201 1.012.769.914-.769 1.83-2.258 2.985-2.065 1.01.144 1.203 1.392 1.059 2.593-.145 1.009 1.011 1.633 1.637.865.096-.096.144-.241.193-.337.385-.864.385-1.873.818-2.689.433-.817 1.733-1.249 2.167-.432.144.288.144.624.096.96-.048.528-.096 1.105-.145 1.633-.048.528 0 1.009 0 1.537v.144c-.048.865-.53 1.633-.818 2.45-.289.816-.289 1.873.433 2.353.29.192.626.24.963.432.722.384.963 1.489.53 2.209-.53.865-1.733.961-2.36 1.729-.192.241-.288.577-.288.913.048.672.53.672.866.961.963.72.145 2.353-.962 2.737-1.108.384-2.312.144-3.37.576-1.06.433-1.686 2.258-.627 2.786.53.24 1.252 0 1.59.769.144.336.144.72.047 1.056-.24.673-.866 1.105-1.444 1.441-.626.384-1.444.768-2.07.336-.241-.192-.434-.48-.674-.672-1.108-.961-2.552.48-3.804 1.152-2.552 1.345-5.585-.528-8.474-.384-1.974.096-3.9 1.345-4.91 3.122-.482.817-.771 1.777-1.252 2.594-1.108 1.921-3.082 3.169-3.948 5.235-.241.528-.386 1.2.096 1.681.385.384 1.01.384 1.444.096 1.011-.625 1.204-1.825 1.589-2.834.337-.864.963-1.729 1.83-1.729.77 0 1.251.913 1.155 1.681-.096.961 1.011 1.585 1.685.913.578-.625.77-1.537 1.011-2.402.241-.864.578-1.777 1.3-2.209 1.011-.24 1.83 1.056 1.685 2.113-.096 1.057-.722 2.017-1.155 2.978-.096.288-.193.624-.145.912.193.673 1.204.577 1.685.048.626-.72.626-1.873 1.397-2.545.337-.288.722-.384 1.107-.192.722.384.482 1.537.048 2.257-.433.721-.963 1.585-.626 2.305.337.673 1.252.769 1.974.721.674.144.386 1.249-.096 1.777-.481.528-.915 1.537-.289 1.873.385.192 1.156.048 1.108.48-.241 1.057-1.397 1.537-2.408 1.537-1.01 0-2.022-.288-3.033-.144-1.926.288-3.274 2.161-4.333 3.89-.626 1.009-1.3 2.162-.819 3.362.241.577.819 1.009 1.445.865 1.54-.336.866-3.218 2.214-3.266.819 0 1.06 1.201.867 2.065-.192.865-.481 1.921.145 2.498.192.192.433.288.577.48.578.816-.914 2.017-.433 2.93.433.864 1.733.096 2.167-.769.433-.864 1.155-2.065 2.022-1.633.818.384.626 1.585.337 2.45-.241.864-.193 2.209.674 2.257.963.096 1.54-1.681 2.552-1.009.481.289.722.913.53 1.489-.29 1.009.384 1.633.577 2.45.289 1.104-.482 2.305-1.444 2.881-.963.529-2.119.577-3.226.625-5.826.048-11.989-.529-17.188 2.257-3.467 1.873-6.211 5.283-7.367 9.173-.048.241-.144.481-.144.721.048 1.201 1.781 1.441 2.648.624.818-.768 1.107-2.017 1.589-3.074.53-1.056 1.637-2.017 2.648-1.585 1.01.481 1.107 2.018.625 3.122-.481 1.105-1.348 1.921-1.733 3.026-.192.48-.24 1.057-.048 1.489.53 1.057 2.167.672 2.793-.288.674-.961.77-2.209 1.203-3.314.433-1.105 1.637-2.065 2.648-1.537.915.48.963 1.777 1.108 2.834.048.432.192.864.433 1.248.433.721 1.396.625 1.733-.144.145-.384.337-.72.674-.96.53-.433 1.493-.336 1.734.336.288 1.008-1.156 1.921-.626 2.93.288.528.963.672 1.444.384 1.156-.769 1.06-2.209 1.589-3.266.433-.817 1.685-1.345 2.166-.576.386.576.049 1.344-.24 2.017-.53 1.297-.77 2.881.048 3.986.53.769 1.54 1.009 2.359.672 1.589-.624.482-2.065 1.733-2.785.53-.288 1.156-.192 1.541.24.722.865.193 2.161-.048 3.266-.24 1.105.385 2.786 1.396 2.353.819-.336 1.011-1.825 1.878-1.777.77.096.818 1.249.722 2.065v.337c.144.864 1.204 1.152 1.733.48.241-.336.578-.72.722-1.153.337-.816 1.59-.576 1.541.288v.145c-.192.864-.867 1.44-1.155 2.257-.29.816.433 2.017 1.155 1.585l.674-.721c.24-.24.674-.144.77.144.241.577.819 1.057 1.397 1.009.77-.048 1.3-.864 1.252-1.633-.049-.48.385-.816.818-.624.193.096.337.24.481.432.097.192.241.384.386.576.337.336.915.192.963-.288.048-.384.24-.72.481-1.008.337-.385.915-.145.963.384v.384c.048.384.337.624.674.528.385-.096.77.24.674.673-.144.624-.048 1.248.482 1.489.24.096.53.048.722.24.337.384.048 1.152.048 1.633 0 .24.048.384.289.384.626-.096 1.155.384 1.3 1.056.096.481.337.865.77 1.105s.915.144 1.252-.144c.53-.48.24-1.105.337-1.681 0-.048 0-.048.048-.096.193-.432.77-.336.867.144.144.672.433 1.249 1.059 1.489.385.144.915-.048 1.107-.432.29-.529-.096-1.009-.192-1.537-.097-.528.337-1.057.818-1.009.482.048.819.673.578 1.105.144.768 1.3.096 1.396-.673.048-.192.096-.432.145-.672.144-.672.963-.816 1.396-.288.337.48.818.768 1.492.384.386-.24.626-.672.674-1.104 0-.145.049-.337.145-.481.289-.72 1.155-.816 1.685-.288.433.48 1.396.576 1.685-.096.24-.528 0-1.105.048-1.681.048-.72.963-.816 1.252-.192.433 1.008 1.204 1.921 2.118 1.297.53-.385.77-1.057.675-1.729-.145-.865.866-2.258 1.637-1.681.77.624 0 2.449 1.444 2.257.433-.048.722-.432.77-.913.048-.72 1.397-1.392 1.541-.624-.144.432-.193.913-.096 1.345.24.96 1.444 1.056 1.83.192.24-.528.914-1.105 1.395-.528.193.24.097.624.193.96.289 1.153 1.733 1.057 1.878-.048.096-.576.048-1.297.433-1.681.24-.24.578-.288.867-.432.433-.192.866-.432 1.203-.817.29-.288.723-.432 1.108-.288.24.048.481.048.674-.096a.663.663 0 0 0 .144-.192l.722-1.393c.29-.576 1.156-.432 1.3.192.049.145.097.289.193.433.193.288.482.48.819.48.385 0 .722-.192.962-.528a.496.496 0 0 1 .819 0l.53.912c.24.384.77.432 1.01 0l.049-.048a.569.569 0 0 1 1.059.192c.096.481 0 1.057.481 1.393.337.24.819.192 1.156-.096.433-.384.626-.961.674-1.537.048-.48.674-.48.77 0 .048.384 0 .817.29 1.057.77.624 1.395-1.537 2.166-1.729.192-.048.385.096.433.288.145.624.289 1.201.722 1.633.482.48 1.348.624 1.734.048.24-.336.288-.817.337-1.297.048-.432.433-.672.77-.672.193 0 .385.048.53.192.24.24.577.288.866.096l.145-.096a.913.913 0 0 1 1.203.24c.145.24.337.432.578.624.385.337.819.577 1.3.673.337.048.578.432.53.768v.048c-.049.384.192.769.577.769.097 0 .241 0 .386-.048.337-.048.674.144.722.48.096.432.24.816.577 1.153.241.192.53.288.819.24.578-.144.674-.817.77-1.393.048-.624.771-.817 1.108-.336.529.768 1.3 1.345 2.022.912.963-.624.578-2.545 1.637-2.977.915-.385 1.685.816 2.022 1.777.337.96 1.155 2.161 2.07 1.729.53-.241.722-.865.819-1.441.096-.577.192-1.201.626-1.585.433-.384 1.3-.048 1.203.528a2.949 2.949 0 0 0-.24 2.305c.096.289.433.433.674.289.337-.192.77.144.722.528-.145.624.096 1.297.626 1.585.722.432 1.781-.096 1.926-.961.192-.96-.386-2.353.529-2.641.771-.096.915 1.104.722 1.873-.048.096-.048.192-.048.288-.096.672.385 1.153.963 1.153.193 0 .433-.048.578-.24.626-.529 1.541 0 1.541.816 0 .961-.193 2.161.577 2.69.53.384 1.252.192 1.685-.289 1.012-1.152.53-2.833.867-4.226.096-.336.482-.48.77-.24.145.144.337.24.578.288.241.096.482-.048.578-.336.144-.432.77-.432.915 0 .192.528.337 1.104.722 1.441.53.48 1.204.288 1.829-.048.482-.289 1.108-.096 1.349.48.192.432.433.816.77 1.153.674.576 1.829.576 2.215-.241.289-.576.048-1.296-.097-1.969-.144-.672 0-1.537.626-1.681.674-.192 1.156.625 1.3 1.297.145.769.241 1.633.963 1.969.433.192.963.048 1.252-.288.144-.144.241-.336.337-.48.337-.769 1.204-1.105 2.022-1.009h.145c.674 0 .866-.96.818-1.681-.048-.72-.096-1.585.53-1.873.529-.24 1.155.24 1.348.817.192.576.192 1.2.385 1.777.096.288.193.528.337.768.818 1.249 2.696.672 2.792-.864.049-.673-.096-1.345-.385-1.97-.337-.72.578-1.44 1.108-.864.433.48.626 1.153.963 1.729.337.576 1.011 1.057 1.588.768.626-.336.578-1.2.626-1.921 0-.72.385-1.633 1.06-1.489.77.144.625 1.393.962 2.162.482 1.056 2.311.864 2.552-.289.145-.72-.241-1.44 0-2.161.096-.288.289-.528.53-.624.578-.192 1.011.48 1.107 1.104.048.577-.096 1.153.048 1.73a.777.777 0 0 0 1.445.192c.24-.481.577-.865 1.011-1.057.385-.144.866-.096 1.155.24.385.384.241.913.241 1.393 0 .624.337 1.249.867 1.489.529.24 1.251.048 1.54-.48.337-.625 0-1.393-.096-2.114-.096-.72.289-1.729.963-1.537.433.096.626.577.867.913v.048c.289.336.818 0 .674-.48-.048-.144-.048-.24-.048-.385 0-.912 1.203-1.2 1.54-.336.145.385.385.721.722.961.482.336 1.108.336 1.493-.048 1.011-1.009-.578-3.314.578-4.131.818-.576 1.829.481 2.792.625 1.059.144 2.07-1.153 1.685-2.258-.24-.624-.818-1.104-1.011-1.729-.289-.96.626-2.065 1.589-1.873.867.144 1.396 1.057 2.022 1.681.626.625 1.83.961 2.215.144.193-.384.144-.96.722-1.152.578-.192 1.252.096 1.589.672.481.769 1.83 1.777 2.407.913.385-.577-.144-1.393.097-2.018.24-.624 1.011-.816 1.637-.816.625.048 1.3.144 1.781-.192M138.902 88.324a1.68 1.68 0 0 1 1.878-.144c.337.192.722 0 .819-.385.096-.384.24-.816.337-1.2.144-.529.818-.625 1.059-.096.24.576.481 1.344.963 1.585.481.24 1.107-.049 1.348-.577.241-.48.241-1.104.096-1.633-.53-2.545-2.552-4.466-4.718-5.715-1.011-.576-2.119-1.105-3.274-1.009-.867.096-1.733.529-2.648.337-.626-.145-1.108-.817-1.108-1.393 0-.288.337-.384.53-.192.241.24.674.096.722-.24.096-.529.145-1.057.241-1.586.096-.72.915-1.104 1.444-.672.193.144.337.24.53.288.626.144 1.204-.528 1.252-1.2.048-.673-.241-1.297-.53-1.874-.867-1.728-2.118-3.746-3.996-3.602-.963.048-2.167.673-2.793-.144-.674-.912.482-2.209.289-3.314-.192-1.152-1.588-1.44-2.648-1.68-.722-.145-1.54-.48-1.974-1.01-.24-.335-.096-.816.289-1.008.53-.24.867-1.152.53-1.729-.482-.768-1.493-.96-2.408-1.056-1.059-.097-2.311-.337-2.599-1.585-.193-.817.288-1.441 1.107-1.25.626.145.674.865 1.059 1.298.578.576 1.685.048 1.685-.769 0-.528-.385-1.008-.674-1.489-.337-.528.048-1.2.626-1.2.433.048.915-.048 1.3-.24.385-.145.53-.625.385-1.01-.626-1.536-1.589-2.977-2.792-4.081-.385-.385-.867-.72-1.396-.817-.53-.096-1.06.096-1.589.24-1.541.384-3.178.144-4.574-.576-.53-.288-1.059-.624-1.252-1.2-.241-.577-.048-1.346.481-1.586.626-.24 1.252.288 1.782.72.192.145.385.24.626.337.578.192 1.155-.288 1.107-.913v-.048c-.048-1.248-.529-2.45-1.252-3.41-.144-.192-.289-.336-.433-.528-.193-.24-.433-.48-.722-.576-.337-.096-.722.048-1.059 0-.819-.096-1.349-1.057-2.167-1.297-.674-.192-1.396.192-2.07.432-.674.24-1.589.288-1.926-.384-.337-.624.289-1.537.963-1.393.144.048.289.096.433.096.385 0 .722-.432.722-.864 0-.433-.192-.817-.385-1.201-.241-.432-.433-1.057.048-1.345.241-.192.578-.192.867-.048.385.192 1.155.288 1.252-.192.048-.144 0-.336-.048-.48-.241-.817-.482-1.681-1.012-2.306-.529-.624-1.444-1.008-2.166-.624-.385.24-.722.624-1.156.72-.288.096-.626 0-.914-.144-.819-.432-1.397-1.344-1.493-2.305-.048-.384 0-.816.289-1.105.241-.288.722-.432 1.011-.144.481.433.144 1.393.578 1.825.337.289.866.144 1.107-.192.289-.336.337-.816.433-1.248.049-.337.097-.72.386-.865.433-.288 1.011.144 1.444-.096.626-.24.433-1.2.144-1.825-.577-1.057-1.396-2.113-2.551-2.21-1.637-.143-2.985 1.682-4.671 1.105-.385-.144-.722-.432-.866-.864-.048-.096-.048-.192-.048-.288.048-.385.529-.48.77-.72.722-.77-.867-2.162-.241-3.027.482-.72 1.734-.048 2.215-.912.145-.288.144-.673.048-.96-.241-.625-.818-.961-1.348-1.297-.626-.385-1.348-.769-2.07-.529-.482.192-.867.673-1.396.625-.578-.048-.915-.72-.867-1.345.048-.577.337-1.153.53-1.73.192-.576.192-1.296-.193-1.68-.53-.528-1.348-.336-2.07-.192-.722.144-1.686 0-1.83-.72-.193-.913 1.011-1.922.433-2.642-.433-.529-1.492-.144-1.83-.769-.095-.144-.095-.384-.095-.576a3.633 3.633 0 0 1 .722-1.921c.289-.384.674-.72.626-1.2-.049-.337-.29-.625-.53-.817-.53-.48-1.204-.913-1.926-.865h-.096c-.674.096-1.3.769-1.156 1.489m98.7 201.43c.53.72 1.06 1.393 1.589 2.065l1.204 1.297c.144.144.337.288.53.384.674.336 1.637.336 2.166-.24.867-.961.145-2.546-.722-3.506-2.889-3.122-7.27-4.659-11.363-3.89-1.3.24-2.937.528-3.611-.673-.192-.336-.24-.72-.433-1.008-.722-1.393-2.696-.913-4.189-1.153a1.443 1.443 0 0 1-.481-.192c-.241-.288-.145-.721-.145-1.105-.048-.912-.866-1.825-.481-2.641.241-.529.867-.721 1.396-.577.193.048.385.144.578.24.77.433 1.685-.192 1.589-1.104 0-.192-.048-.432-.096-.577-.241-.864-.482-2.065.288-2.497.819-.48 1.734.48 2.071 1.393.337.912.77 2.065 1.733 2.161 1.107.096 1.685-1.393 1.83-2.593.048-.385.144-.865.481-1.057.481-.336 1.059.048 1.444.528.337.432.674 1.009 1.204 1.153.819.24 1.541-.721 1.493-1.585-.049-.865-.578-1.633-1.06-2.305-1.588-2.162-3.466-4.467-6.018-4.755-1.685-.192-3.563.48-5.007-.48-.433-.289-.77-.721-1.252-.865-.818-.288-1.878.192-2.6-.288-.722-.528-.818-1.825-1.685-2.065-1.059-.24-1.541 1.441-2.504 1.921-.818.432-1.829-.096-2.455-.817-.53-.576-.915-1.441-.482-2.113.289-.432.771-.576 1.3-.624 1.06-.144 1.734-1.201 1.493-2.306a3.14 3.14 0 0 1 0-1.633c.289-1.056 1.733-1.777 2.455-.96.53.576.434 1.681 1.204 1.921.482.192 1.059-.096 1.3-.576.578-1.201 0-2.306 0-3.506 0-.913.674-1.922 1.493-1.681.866.24.914 1.44.963 2.401.048.816.192 1.681.77 2.257.578.577 1.637.625 2.07-.048.674-1.104-.77-2.881.145-3.794.577-.624 1.637.048 1.925.865.289.816.145 1.777.53 2.593.385.817 1.637 1.201 1.974.384.096-.288.048-.576 0-.864v-.048c-.481-3.122-2.215-5.908-4.718-7.589a14.361 14.361 0 0 1-1.397-.96c-1.637-1.057-3.37-2.161-5.247-2.065-.675.048-1.493.192-1.974-.385-.193-.24-.289-.576-.386-.912-.481-1.105-1.733-1.633-2.888-1.633-1.156 0-2.263.384-3.419.576-.626.096-1.3.192-1.878-.144-.577-.288-.962-1.105-.674-1.681.482-1.008 2.215-.576 2.841-1.489.53-.768-.096-1.921-.915-2.353-.818-.432-1.781-.48-2.6-1.009-.096-.048-.192-.144-.289-.24-.625-.624-.048-1.729.819-1.585.385.048.818 0 1.155-.24.675-.48.963-1.489.675-2.257-.145-.336-.386-.673-.434-1.057-.096-.816.915-1.345 1.685-1.297a.94.94 0 0 1 .337.048c.963.145 1.734-.912 1.3-1.825-.674-1.44-1.637-2.689-3.033-3.025-.192-.048-.385-.048-.578-.193-.385-.288-.24-.96 0-1.392.241-.433.626-.865.53-1.393-.096-.673-.819-.961-1.396-1.105-.915-.24-1.926-.432-2.6-1.104-.048-.048-.048-.097-.097-.097l-.048-.048c-.048-.048-.048-.096-.096-.144-.481-.816.289-1.825 1.156-1.585.529.145 1.155 0 1.54-.384.722-.816.722-2.161.337-3.122-.144-.384-.144-.768.048-1.104.482-.913 1.493-.336 1.782.432.241.672.192 1.393.385 2.065.289.913 1.541.529 1.396-.384-.096-.432-.144-.865 0-1.297.097-.384.434-.672.771-.672.433 0 .674.384.914.768l1.156 2.162c.578 1.104 2.166.768 2.359-.481v-.048c.096-.912-.193-1.777-.578-2.593-1.3-2.498-3.659-4.179-6.211-5.139-2.551-.961-5.248-1.297-7.896-1.585-3.129-.384-6.066-.625-9.147-.961-.289-.048-.626-.192-.819-.432-.048-.048-.048-.096-.096-.096-.385-.817-.145-1.969.674-2.305.289-.145.674-.096.963-.241.963-.432.866-1.921.529-3.025-.337-1.057-.577-2.498.337-3.074.723-.48 1.541-.192 1.878.624.241.577.145 1.153.963 1.297.77.096.77-1.201 1.637-.816.385.192.337.72.53.96.385.528 1.251.528 1.637 0 .626-.864-.145-2.401.674-3.074.433-.384 1.155-.144 1.54.288.097.096.193.241.241.337.626 1.104 2.215 1.152 2.744 0l.145-.433c.241-1.104-.145-2.257-.722-3.266-1.685-2.833-4.815-4.562-7.993-4.418-1.444.048-2.888.528-4.333.816-.289.048-.578.144-.866.192-1.686.289-2.841-1.681-1.878-3.121.578-.865 1.011-1.777.626-2.642-.434-.96-1.685-1.2-2.648-1.008-.289.047-.53.144-.819.192-1.059.288-1.877-.913-1.3-1.873.385-.625.626-1.297 0-2.066-.192-.24-.481-.48-.818-.576-1.108-.48-2.263-1.153-2.889-2.305-.144-.288-.433-.817-.481-1.441m-36.736 135.871.048 4.707m-12.807 2.498 1.493.768m-1.445.913.867.336m8.377-187.55c-.722.096-1.203.864-1.155 1.585.048.72.481 1.393 1.01 1.921.675.72 1.686 1.297 2.697.72.385-.24.722-.576.915-1.008.289-.624.337-1.249.289-1.873-.048-.96.722-1.777 1.637-1.633.385.048.674.24.866.576.145.24.145.576.241.817.337.72 1.444.864 2.07.336.578-.528.674-1.537.337-2.258-.192-.336-.433-.72-.24-1.104a.994.994 0 0 1 .674-.48c.577-.096 1.203.096 1.589.528.288.288.481.672.866.816.385.144.915-.24.722-.576" stroke="#D8D2C5" stroke-miterlimit="10" stroke-linecap="round" stroke-linejoin="round"/></g><defs><clipPath id="a"><path fill="#fff" d="M0 0h200v246H0z"/></clipPath></defs></svg>