<svg width="142" height="400" viewBox="0 0 142 400" fill="none" xmlns="http://www.w3.org/2000/svg">
<g clip-path="url(#clip0_929_3203)">
<path d="M44.7539 26.2151C45.073 23.2669 45.7112 19.0438 46.8281 15.9362C48.7427 10.6772 56.7202 0.796753 65.4955 0.796753C74.2708 0.796753 79.8551 7.09157 83.0461 13.5458C84.7214 16.8127 85.5989 19.6812 86.0775 21.9123M110.648 145.896C110.728 145.976 110.728 146.056 110.808 146.135C111.845 147.092 115.674 148.048 120.381 147.092C125.487 146.056 135.06 135.299 138.011 131.872C140.883 128.446 141.442 120.239 141.122 116.016C140.803 111.713 133.065 96.8924 131.23 92.5896C129.316 88.2868 118.067 73.3067 115.674 70.0398C113.52 67.0916 109.691 65.0199 108.973 64.6215M27.1236 174.343C27.1236 174.741 27.1236 175.06 27.1236 175.458C27.1236 185.179 25.927 214.98 26.8045 217.37C27.3629 218.884 30.7135 221.115 34.4629 222.709C36.6966 223.665 39.0101 224.462 40.845 224.701C45.791 225.418 64.4584 225.737 69.245 225.737C69.7236 225.737 70.3618 225.737 71.1596 225.737C72.5157 225.737 74.191 225.657 76.1056 225.498C83.6843 225.1 94.6135 224.303 99.0809 222.789C102.352 221.753 107.457 219.203 111.765 216.653C115.834 214.263 119.184 211.872 119.424 210.757C119.902 208.526 119.105 193.147 118.546 186.853C118.307 183.825 117.669 178.327 116.951 172.988M115.355 161.673C115.275 161.115 115.196 160.637 115.116 160.398C114.717 158.964 112.802 151.952 110.888 146.135C109.771 142.709 108.574 139.681 107.697 138.566M27.2832 69.9601C25.3685 71.235 22.736 73.0677 21.3798 74.5816C18.9865 77.1314 11.4876 87.2509 9.89214 89.6414C8.37641 92.0318 8.21686 96.6533 8.21686 96.6533C8.21686 96.6533 6.30225 98.8844 5.34495 100.398C4.30787 101.912 2.23372 104.86 2.23372 106.056C2.23372 107.251 2.23372 108.127 2.23372 108.127C2.23372 108.127 0.79776 119.203 0.79776 126.374C0.79776 133.546 4.2281 142.47 7.97754 146.693C11.727 150.996 14.2798 151.474 18.4281 152.351C22.4966 153.227 26.645 152.829 28.7191 152.51C28.7191 152.51 28.2405 156.335 27.8416 161.434M28.7191 152.59C28.7191 152.59 29.4371 151.474 30.4742 149.88M34.4629 222.709C35.1809 225.657 35.9787 229.323 36.2978 231.076C36.7764 233.625 37.4146 246.613 37.3348 254.661C37.3348 256.813 37.2551 258.645 37.0955 259.761C36.4573 265.1 37.7337 280.08 37.5742 282.47C37.4146 284.86 32.7079 298.247 32.3888 304.382C32.0697 310.518 29.836 331.155 30.9528 337.53C32.0697 343.984 33.9045 357.849 33.6652 362.47C33.5056 365.657 38.7708 369.004 42.9989 369.562C44.2753 369.721 45.4719 369.562 46.3494 369.084C50.1787 367.012 55.3641 360.398 55.3641 356.574C55.3641 352.749 59.9112 306.613 60.5494 299.283C61.2674 292.032 65.7348 273.625 66.1337 267.331C66.373 262.39 69.7236 236.335 71.0798 225.737M76.1854 225.498C78.1 231.554 82.4079 245.179 82.8865 247.57C83.6045 250.677 87.4337 266.693 87.4337 269.084C87.4337 271.474 87.4337 287.49 87.4337 292.351C87.4337 297.211 88.1517 306.215 88.1517 309.004C88.1517 311.793 87.1146 325.657 87.4337 328.446C87.5933 329.482 87.9921 330.677 88.4708 331.793C89.2685 333.705 90.2258 335.378 90.2258 335.378C91.1034 335.617 92.3 336.096 93.736 336.414C95.0124 336.653 96.3685 336.813 97.8843 336.653C100.756 336.414 103.947 335.06 107.138 331.235C107.936 330.279 108.494 327.888 108.973 324.621C110.648 313.386 110.728 292.271 111.287 287.171C112.004 280.558 111.287 267.012 111.287 263.586C111.287 260.159 110.249 249.323 110.249 245.578C110.249 242.55 111.366 224.303 111.765 216.813M40.9247 65.1792C39.3292 64.4621 37.7337 63.8246 36.6169 63.5856C36.1382 63.4262 35.7393 63.3466 35.5798 63.3466C34.1438 63.3466 30.3944 65.0995 28.6393 66.3744C26.8843 67.6493 26.4854 69.5617 26.4854 69.5617C26.4854 69.9601 26.7247 69.9601 27.2034 69.9601C28.4 69.8804 30.873 69.4023 33.9045 72.4302M100.676 69.0836C102.352 67.2509 104.984 65.2589 106.42 64.8605C107.218 64.6215 108.096 64.6215 108.893 64.6215C110.249 64.6215 111.207 64.6215 110.329 63.5856C109.053 61.9123 100.198 59.2828 97.645 59.6812C97.4056 59.7609 97.0865 59.8406 96.7674 59.9203C95.5708 60.478 93.9753 61.6732 92.6989 62.9481M107.617 136.574C107.298 128.765 106.979 116.813 106.899 111.394C106.819 105.896 106.021 96.733 104.825 90.9959M108.654 160.159C108.654 159.841 108.654 159.602 108.654 159.283C108.654 157.53 108.654 155.857 108.574 154.343C108.494 148.765 108.255 144.542 108.096 143.506C107.936 142.709 107.776 140.956 107.697 138.566C107.617 137.928 107.617 137.291 107.617 136.653M88.6303 198.167C88.7899 198.167 88.8697 198.167 89.0292 198.088C90.1461 197.928 91.5023 197.609 92.7787 197.291C93.4169 197.131 94.0551 196.972 94.6135 196.733C96.209 196.255 97.8045 195.697 99.3202 194.98C102.671 193.386 105.622 191.315 106.819 188.685C107.537 187.171 107.936 183.107 108.255 178.008C108.494 172.59 108.574 166.135 108.574 160.159M30.873 97.5298C30.7933 99.7609 30.6337 102.39 30.4742 105.259C30.3944 107.012 30.3146 108.924 30.2348 110.757C29.9955 116.494 29.836 122.151 29.9955 125.896C30.0753 127.809 30.1551 130.279 30.1551 132.988C30.2348 138.566 30.3146 145.02 30.3146 149.88C30.3146 151.713 30.3146 153.307 30.3146 154.502C30.3146 155.219 30.3146 155.777 30.3146 156.175C30.3146 156.813 30.2348 158.247 30.2348 160.159C30.2348 160.398 30.2348 160.637 30.2348 160.876C30.2348 164.86 30.2348 170.598 30.7135 176.175C31.2719 183.904 32.4685 191.315 35.0214 193.386C36.2978 194.422 38.2124 195.299 40.4461 196.016C41.7225 196.414 43.0787 196.813 44.4348 197.052C44.6742 197.131 44.9933 197.131 45.2326 197.211C46.509 197.45 47.7854 197.689 48.982 197.928C50.0191 198.088 51.136 198.247 52.0933 198.406C53.7685 198.566 55.364 198.805 56.8 198.884C59.1933 199.044 61.1079 199.203 62.0652 199.203C64.8573 199.203 74.191 199.123 81.5303 198.725C83.3652 198.645 85.0405 198.486 86.4764 198.406C87.1944 198.327 87.9124 198.247 88.4708 198.167M44.5146 197.131C44.4348 200 44.3551 207.171 45.9506 209.721C47.1472 211.713 48.3438 213.466 49.3809 214.422C49.9393 215.06 50.4978 215.378 50.9764 215.458C51.3753 215.458 52.0933 215.06 52.9708 214.422C54.9652 212.988 57.5978 210.279 57.5978 209.084C57.5978 207.888 57.2787 202.55 57.0393 198.884M49.0618 197.928C49.0618 201.275 49.1416 205.737 49.2214 209.402C49.2214 211.394 49.3011 213.147 49.3809 214.343M52.173 198.406L52.6517 209.402L52.891 214.343M52.6517 209.402H49.2214M81.6899 198.725C82.6472 203.267 84.1629 210.279 84.9607 211.394C85.7584 212.669 88.3112 213.864 90.3854 214.502C91.1034 214.661 91.7416 214.821 92.2202 214.821C92.6989 214.821 93.1775 214.502 93.6562 213.944C94.8528 212.51 95.8899 209.801 95.8899 208.765C95.8899 207.809 94.1348 201.673 92.9382 197.37M86.636 198.406L89.109 209.243L90.3056 214.502M93.4966 213.864L91.8214 208.526L88.6303 198.088M91.8214 208.605L89.0292 209.243M46.5888 157.37C57.8371 158.088 81.3708 159.044 93.0978 158.486M30.3944 154.502C30.7135 154.741 33.1865 156.096 41.8023 156.972M97.8843 158.008C98.3629 157.928 98.7618 157.849 99.0809 157.769C103.628 156.414 107.058 154.98 108.574 154.343M98.0438 163.267C98.3629 163.267 98.682 163.187 98.9214 163.187C102.751 162.47 106.5 161.036 108.654 160.239M30.3146 160.876C33.5056 161.673 36.3775 162.151 41.5629 162.709M46.3494 163.187C54.1674 163.745 80.8921 164.064 93.2573 163.586M91.9011 135.538C91.6618 133.227 91.4225 130.677 91.1832 128.127C90.7843 124.303 90.3854 120.319 89.9865 116.733M94.6933 196.813C94.3742 192.669 93.736 176.494 93.2573 163.586C93.1775 161.833 93.0978 160.08 93.0978 158.486C92.9382 152.749 92.7787 148.366 92.7787 146.932C92.7787 145.418 92.3798 141.036 91.9011 135.538M99.4 195.06C99.0809 189.163 98.5225 174.821 98.1236 163.267C98.0438 161.434 97.9641 159.681 97.9641 158.088C97.8045 152.59 97.645 148.366 97.645 146.932C97.645 143.745 95.9697 127.41 94.773 115.936M40.4461 196.016C40.3663 192.032 41.0045 176.175 41.5629 162.709C41.6427 160.717 41.7225 158.805 41.8023 156.972C42.0416 150.04 42.2809 144.542 42.2809 142.948C42.2809 139.92 42.5202 127.251 42.7596 117.291M45.3124 197.291C45.3124 196.653 45.3124 195.777 45.3124 195.299C45.3124 190.359 45.8708 175.777 46.4292 163.267C46.509 161.275 46.5888 159.283 46.6685 157.45C46.9079 150.359 47.1472 144.701 47.1472 143.028C47.1472 140 47.3865 127.41 47.6258 117.53M91.1034 128.127L88.2315 126.056C87.7528 125.737 87.1944 125.817 86.8753 126.295L82.4876 132.351C82.1685 132.829 82.2483 133.386 82.727 133.705L88.7899 138.088C89.2685 138.406 89.827 138.327 90.1461 137.849L91.8214 135.538M111.127 70.4382C111.127 70.4382 108.813 82.4701 108.654 87.3306C108.574 90.1195 108.335 97.1314 108.175 103.028M107.617 136.653L108.654 127.968C108.654 127.968 108.494 125.418 108.335 122.311C108.096 118.486 107.856 113.785 107.856 112.351C107.856 111.315 107.936 107.41 108.096 103.028M120.54 86.6932C120.54 86.6932 110.569 97.2111 108.175 102.948M108.335 122.311C109.452 122.789 113.999 124.462 117.429 124.86C121.418 125.339 127.561 126.454 127.561 126.454M30.3146 110.757C27.1236 108.924 22.2573 106.534 19.0663 106.773M30.5539 105.259C28.8787 103.665 25.6876 100.558 23.6135 98.1673C20.6618 94.8207 13.1629 91.8724 13.1629 91.8724M28.7191 81.9123C26.9641 79.9999 24.491 77.8485 24.491 77.8485M17.7101 142.55C21.3798 141.434 27.4427 135.697 30.2348 132.988M2.15394 106.056C2.15394 106.056 3.43034 106.215 4.62697 106.215C5.8236 106.215 10.2112 98.0079 10.2112 98.0079L8.13709 96.733M41.0045 107.092V116.096C41.0045 116.733 41.4832 117.211 42.1214 117.211H42.7596L47.5461 117.37H47.7056C48.3438 117.37 48.8225 116.892 48.8225 116.335L48.982 112.43M87.1944 111.713L87.5933 115.697C87.673 116.414 88.3112 116.892 89.0292 116.813L89.9067 116.653L94.3742 115.936C94.4539 115.936 94.5337 115.857 94.6135 115.857C95.0921 115.697 95.491 115.219 95.4112 114.582L95.2517 107.57M95.7303 58.5657C96.209 58.5657 96.6876 58.5657 97.0067 58.486C97.8045 58.247 99.9584 57.0517 100.118 56.1752C100.278 55.2191 101.634 53.227 102.033 52.2709C102.431 51.3147 103.229 48.1274 102.99 47.3306C102.751 46.5338 102.99 41.1155 102.751 40.7171C102.511 40.239 102.431 37.4501 101.793 36.1752C101.155 34.8207 98.682 31.7928 97.4056 31.235C96.0494 30.5975 93.6562 29.482 92.6989 28.2868C91.6618 27.0916 89.827 23.984 88.8697 23.4262C88.4708 23.1075 87.3539 22.6294 86.0775 21.992C84.6416 21.2748 82.9663 20.478 82.0888 19.9203C80.573 18.8047 76.5045 17.9282 75.4674 17.9282C74.4303 17.9282 71.6382 16.5736 70.2023 16.2549C68.7663 15.8565 67.4899 16.5736 66.7719 16.5736C66.0539 16.5736 64.4584 15.2987 61.5067 15.2987C58.5551 15.2987 55.7629 18.6454 54.4067 18.8844C53.0506 19.1234 50.2584 21.9123 49.3011 22.3107C48.3438 22.7091 46.1101 25.8964 44.9135 26.2948C44.8337 26.2948 44.8337 26.2948 44.7539 26.3744C43.5573 27.0119 41.3236 30.2788 41.1641 30.6772C40.9247 31.0756 38.1326 33.3864 37.4944 33.8645C36.8562 34.3426 35.1809 37.1314 35.0214 37.6892C34.8618 38.2469 32.1494 40.5577 31.591 41.5936C31.0326 42.6294 30.6337 47.6493 30.3146 49.0039C29.9955 50.4382 30.4742 52.3505 30.873 53.1473C31.2719 54.0238 31.6708 55.6971 31.7506 56.2549C31.8303 56.8127 34.5427 59.2828 35.3405 58.8047C35.5798 58.6454 35.9787 58.8047 36.4573 59.0438M57.9169 20.8764C58.0764 22.0717 58.7944 23.745 59.4326 23.984M54.8056 23.1075C54.9652 23.5856 55.9225 25.0995 57.0393 25.4183M81.7697 29.8804C82.4876 29.482 82.4876 27.8884 82.2483 26.7728M83.7641 30.8366C84.2427 30.5975 84.482 29.3226 84.482 29.3226M100.118 39.1234C100.118 39.1234 99.9584 37.1314 99.8787 36.6533C99.7191 36.1752 97.8045 36.4143 97.8045 35.6971C97.8045 34.98 96.0494 34.5019 95.4112 34.8207M36.936 40.1593C36.2978 40.1593 36.6966 41.9123 35.8191 41.9123C34.9416 41.9123 35.1011 43.6653 35.1809 44.6215M109.053 324.542C110.01 327.092 110.01 337.849 110.01 339.362C110.01 341.036 108.494 348.287 108.494 350.996C108.494 353.705 106.979 358.645 105.224 360.239C103.389 361.912 94.9326 361.753 91.6618 360.717C89.7472 360.08 88.7101 357.769 88.3112 354.741C87.9921 352.669 87.9921 350.279 88.1517 347.888C88.4708 342.072 88.1517 339.203 87.8326 336.972C87.5933 335.458 88.1517 333.068 88.4708 331.713M33.6652 362.39C32.7079 364.781 31.7506 367.57 32.2292 369.562C32.7079 371.554 34.9416 390.199 34.9416 392.51C34.9416 394.821 37.973 399.522 43.1584 399.203C48.4236 398.964 55.6034 397.928 57.3584 396.494C59.1135 394.98 61.3472 385.817 61.1079 383.586C60.8685 381.354 61.1079 370.677 58.8742 369.641C56.6405 368.605 57.9169 357.53 55.3641 356.574M59.1933 377.928C59.1933 376.733 58.8742 369.562 58.8742 369.562M35.0214 392.43C35.0214 392.43 40.127 394.422 44.2753 394.183C48.4236 393.944 55.7629 392.111 57.0393 390.438C58.3955 388.765 61.1876 383.506 61.1876 383.506M42.9989 369.482V376.096L46.509 375.936L46.3494 369.004M97.9641 336.653L97.7247 341.115L93.6562 341.514L93.8157 336.414M88.3112 354.741C90.0663 355.458 93.0978 356.494 96.209 356.494C101.235 356.494 105.144 355.06 105.862 354.183C106.58 353.307 108.654 351.076 108.654 351.076M108.335 178.008C110.329 176.255 114.956 174.104 117.11 173.068C117.908 172.749 118.307 172.51 118.307 172.51L116.153 161.673C116.153 161.673 115.834 161.673 115.355 161.673C114.797 161.594 113.999 161.594 113.201 161.434C112.483 161.275 110.967 160.558 109.531 159.761C109.212 159.602 108.893 159.442 108.574 159.283M30.3146 160.159C29.5169 160.637 28.5596 161.115 27.8416 161.434C27.3629 161.673 27.0438 161.753 26.8045 161.753C25.927 161.753 25.3685 172.59 25.927 173.386C26.0865 173.625 26.4854 173.864 27.1236 174.263C28.1607 174.821 29.5169 175.458 30.7135 176.096M70.0427 52.7489C68.9259 52.7489 66.8517 52.7489 63.2618 52.2709C59.6719 51.7928 57.5978 52.0318 53.7685 52.7489C49.9393 53.3864 47.227 55.2191 47.227 55.2191M37.6539 62.7091C37.3348 62.9481 36.936 63.2669 36.6966 63.5059M96.8472 59.9203C96.2888 59.7609 95.7303 59.6812 95.2517 59.5218M89.5876 251.713C89.5876 251.713 93.9753 252.51 99.7989 251.713C105.702 250.837 110.329 245.498 110.329 245.498M89.109 256.335C89.109 256.335 96.6876 256.335 102.033 254.661M37.3348 254.582C39.3292 260.319 42.1214 267.649 43.6371 269.004C46.1899 271.155 50.0191 275.538 50.0191 275.538M87.4337 269.084C87.4337 269.084 93.9753 284.701 98.0438 286.613M30.873 77.2908C34.8618 83.5059 44.5146 98.4063 48.2641 102.151C53.1303 107.012 64.1393 101.434 70.7607 101.673C77.4618 101.833 82.727 104.143 85.5989 104.303C88.4708 104.462 95.9697 89.9601 98.2831 85.3386C99.6393 82.6294 101.634 78.4063 103.309 75.0597M104.585 322.39C104.585 322.39 104.187 329.801 103.149 334.821M38.691 368.127C37.973 365.498 37.5742 362.311 37.5742 362.311M41.0843 65.0199C40.6056 64.8605 40.2067 64.7011 39.8876 64.6215C38.9303 64.223 38.1326 63.5059 37.6539 62.7091C36.8562 61.5936 36.5371 60.239 36.3775 58.8047C35.9787 55.4581 36.8562 52.0318 36.8562 52.0318C37.1753 47.5697 43.6371 41.3545 47.3865 38.486C48.3438 37.7689 49.4607 37.0517 50.8169 36.4143C52.5719 36.2549 54.6461 36.1752 55.2045 36.1752C56.3214 36.1752 60.8685 35.4581 62.4641 35.4581C64.0596 35.4581 67.9685 35.2191 69.564 35.2191C71.1596 35.2191 74.1112 35.6971 75.2281 35.6971C76.0259 35.6971 77.8607 35.4581 79.6157 35.2987C87.5135 37.8485 94.6135 42.3107 95.8101 45.6573C96.4483 47.49 97.8045 53.4661 95.6506 58.486C95.5708 58.6454 95.5708 58.725 95.491 58.8844C95.4112 59.0438 95.3315 59.2828 95.1719 59.5218C94.5337 60.6374 93.4966 61.6732 92.2202 62.6294M74.3506 35.0597C75.3079 34.741 75.7865 32.9083 75.7865 32.9083M70.9202 35.1394C71.4787 35.0597 71.8775 33.5458 71.8775 33.5458M105.942 84.5418C105.702 81.8326 104.506 78.1673 103.309 75.0597C102.352 72.5896 101.474 70.5179 100.916 69.5617C100.836 69.4023 100.756 69.3226 100.676 69.1633C99.4798 67.4103 95.8899 64.7011 92.7787 62.9481C92.6191 62.8685 92.4596 62.7888 92.3 62.7091C91.3427 62.1513 90.4652 61.7529 89.6674 61.5936C86.0775 60.478 72.9944 59.3625 68.3674 59.1234C63.7405 58.8844 54.9652 59.9999 49.5405 61.1952C46.8281 61.7529 43.7169 63.4262 41.1641 65.0995C41.0843 65.1792 41.0843 65.1792 41.0045 65.2589C38.5315 67.0119 36.5371 68.7649 35.8989 69.8007C35.5798 70.3585 34.8618 71.3147 33.9843 72.5896C33.027 73.9442 31.9101 75.6175 30.873 77.4501C29.9955 78.9641 29.1978 80.6374 28.7191 82.1513C28.3202 83.2669 28.1607 84.3027 28.1607 85.2589C28.2405 90.4382 28.2405 93.3067 30.5539 97.2908C30.6337 97.4501 30.7135 97.6095 30.873 97.7689C32.4685 99.9999 36.6966 103.984 41.0045 107.331C41.6427 107.809 42.2809 108.366 42.9191 108.845C44.5944 110.119 46.2697 111.235 47.7056 112.032C48.1843 112.351 48.6629 112.59 49.0618 112.749C49.9393 113.147 50.5775 113.386 51.136 113.386C54.9652 113.466 64.5382 112.829 76.2652 113.147C80.8124 113.307 84.4023 112.829 87.2742 111.952C87.9921 111.713 88.7101 111.474 89.3483 111.235C91.1832 110.518 92.6191 109.721 93.8955 108.924C94.3742 108.606 94.9326 108.207 95.3315 107.888C95.8101 107.57 96.2888 107.171 96.7674 106.773C99.1607 104.781 102.91 97.2111 104.745 91.1553C105.622 88.3665 106.101 85.976 105.942 84.5418ZM54.8854 138.008L60.1506 132.749C60.5494 132.351 60.5494 131.713 60.1506 131.315L54.8854 126.056C54.4865 125.657 53.8483 125.657 53.4494 126.056L48.1843 131.315C47.7854 131.713 47.7854 132.351 48.1843 132.749L53.4494 138.008C53.8483 138.406 54.4865 138.406 54.8854 138.008ZM53.0506 133.944V130.04C53.0506 129.88 52.891 129.721 52.7315 129.721C52.5719 129.721 52.4124 129.88 52.4124 130.04V133.944C52.4124 134.104 52.5719 134.263 52.7315 134.263C52.891 134.263 53.0506 134.104 53.0506 133.944ZM56.082 133.944V130.04C56.082 129.88 55.9225 129.721 55.7629 129.721C55.6034 129.721 55.4438 129.88 55.4438 130.04V133.944C55.4438 134.104 55.6034 134.263 55.7629 134.263C55.9225 134.263 56.082 134.104 56.082 133.944ZM87.7528 134.104L87.1146 130.279C87.1146 130.119 86.9551 130.04 86.7955 130.04C86.7955 130.04 86.7955 130.04 86.7157 130.04C86.5562 130.04 86.3966 130.199 86.4764 130.438L87.1146 134.263C87.1146 134.422 87.2742 134.582 87.5135 134.502C87.673 134.422 87.7528 134.263 87.7528 134.104ZM90.7045 133.625L90.0663 129.801C90.0663 129.641 89.9067 129.562 89.7472 129.562C89.7472 129.562 89.7472 129.562 89.6674 129.562C89.5079 129.562 89.3483 129.721 89.4281 129.96L90.0663 133.785C90.0663 133.944 90.2258 134.104 90.4652 134.024C90.6247 133.944 90.7843 133.785 90.7045 133.625Z" stroke="#D8D2C5" stroke-miterlimit="10" stroke-linecap="round" stroke-linejoin="round"/>
</g>
<defs>
<clipPath id="clip0_929_3203">
<rect width="142" height="400" fill="white"/>
</clipPath>
</defs>
</svg>
