<svg width="198" height="492" viewBox="0 0 198 492" fill="none" xmlns="http://www.w3.org/2000/svg">
<g clip-path="url(#clip0_929_3199)">
<path d="M118.761 378.326C114.75 379.99 111.13 380.97 108.587 381.459C107.315 381.753 106.141 380.774 106.141 379.501L105.75 367.654M119.837 382.536C116.12 384.201 112.696 385.278 110.054 385.865C107.804 386.355 106.239 388.411 106.337 390.663L107.706 490.923M56.3478 373.528C61.1413 384.886 70.826 399.083 89.6086 405.447C92.4456 406.426 95.2826 404.272 95.3804 401.335V367.556M94.7934 491.021L95.2826 415.336C95.2826 413.084 93.8152 411.126 91.663 410.538C69.3586 404.174 57.913 387.823 52.3369 375.584M103.696 398.691L104.38 437.66M104.38 443.045L104.576 450.878M104.967 453.619L105.848 489.161M101.348 422.484L102.815 476.334M96.9456 420.134L97.1413 490.531M97.1413 371.962V388.411M100.076 398.691V404.566M62.5108 389.586C62.5108 389.586 72.1956 400.845 79.9239 404.37M112.5 382.047C112.5 382.047 115.826 381.067 118.761 379.893M48.0326 253.294C44.3152 253.98 42.163 258.875 44.2173 262.106C46.4673 265.631 52.7282 265.435 54.2934 261.323C54.5869 260.638 54.9782 259.952 55.5652 259.463C58.5978 256.917 61.2391 261.225 60.75 264.358C60.2608 267.1 58.6956 270.037 59.7717 272.681C61.0434 275.716 66.1304 276.01 67.6956 273.17C68.3804 271.897 68.4782 270.429 68.8695 269.156C69.3586 267.785 70.6304 266.512 71.9999 266.806C75.1304 267.491 72.8804 273.562 75.7173 275.03C77.576 276.01 79.6304 273.856 80.1195 271.897C80.1195 271.897 80.1195 271.897 80.1195 271.799C80.8043 268.96 84.1304 267.785 86.4782 269.547C86.6739 269.645 86.8695 269.841 86.9673 269.939C87.7499 270.527 88.6304 271.212 89.8043 270.527C90.8804 269.939 91.4673 268.666 91.2717 267.491C91.1739 266.708 90.7826 266.023 90.3913 265.435C88.0434 262.4 92.1521 258.386 95.0869 260.833C95.3804 261.127 95.6739 261.421 95.9673 261.813C96.3586 262.596 96.6521 263.477 97.1413 264.162C98.1195 265.337 100.174 265.533 101.25 264.456C101.641 264.064 101.935 263.477 102.033 262.987C102.62 259.952 106.63 258.973 108.293 261.617C108.489 261.91 108.685 262.302 108.783 262.694C109.37 264.848 108.391 267.198 107.315 269.254C106.239 271.31 104.185 272.681 104.576 274.835C104.87 276.303 105.163 277.38 106.337 277.772C107.902 278.261 109.467 277.184 109.859 275.716C110.152 274.639 110.446 273.464 111.424 273.17C115.435 271.799 116.413 275.226 118.565 275.128C120.717 275.03 122.87 274.149 122.87 272.093C122.87 269.743 119.543 268.079 120.326 265.925C120.717 264.652 122.283 264.162 123.554 264.064C124.826 263.967 126.293 264.064 127.37 263.379C128.446 262.596 128.641 260.638 127.467 260.246M93.1304 102.61C92.5434 103.198 92.1521 103.785 91.7608 104.47C90.5869 107.016 93.5217 109.366 95.7717 107.799C97.0434 106.918 98.9999 106.037 100.174 107.114C101.152 107.995 101.054 109.464 101.543 110.737C102.13 112.107 103.793 112.989 105.261 112.695C106.728 112.401 108 111.03 108 109.464C108 108.778 107.902 108.191 108.098 107.506C108.685 106.037 110.837 106.233 112.206 107.114C113.478 107.995 114.652 109.366 116.217 109.366C117.489 109.366 118.663 108.485 118.956 107.31C119.054 106.918 119.054 106.429 118.956 106.037C118.663 104.568 119.739 103.198 121.304 103.198C121.891 103.198 122.38 103.198 122.87 103.002C124.043 102.61 124.826 101.141 124.435 99.8686C124.043 98.5958 122.674 97.8125 121.402 98.1063M119.446 206.395C116.609 206.689 114.848 210.507 116.511 212.857C117 213.543 117.685 214.326 117.293 215.011C117 215.501 116.413 215.501 115.826 215.697C113.283 216.48 113.087 220.299 114.848 222.355C116.413 224.215 119.25 224.998 121.598 224.215C122.478 223.921 123.359 223.432 124.239 223.432C127.272 223.432 127.076 229.013 131.87 227.936C134.902 227.25 134.511 221.278 137.641 221.082C138.424 220.984 139.109 221.376 139.793 221.473C142.533 222.061 145.565 219.711 145.565 216.872C145.565 215.795 145.272 214.718 145.37 213.641C145.467 212.564 146.25 211.389 147.326 211.487C147.62 211.487 147.913 211.584 148.206 211.682C150.456 212.27 152.706 210.312 153.391 208.06C154.076 205.808 153.587 203.36 153 201.108M107.902 319.58C108.196 320.853 107.413 322.321 108.098 323.398C108.88 324.573 110.641 324.279 111.815 323.594C112.989 322.811 113.967 321.734 115.239 321.342C117 320.95 118.761 322.027 120.522 322.615C122.283 323.202 124.728 323.007 125.217 321.146C125.413 320.461 125.12 319.678 125.315 318.992C125.609 317.328 127.761 316.642 129.522 316.838C130.5 316.936 131.576 317.23 132.554 317.328C135.293 317.621 137.054 314.39 135.293 312.236C134.12 310.768 134.217 308.222 135.587 307.341C138.424 305.383 137.935 308.81 141.359 309.593C144.978 310.376 148.011 308.907 146.446 305.187C145.565 303.033 144.196 304.208 143.12 302.641C142.337 301.564 143.217 300.096 144.196 299.312C145.174 298.529 146.446 297.844 146.935 296.669C147.62 294.613 145.37 292.654 143.315 291.871M38.5434 205.71C39.7173 203.947 42.5543 203.556 44.1195 205.024C44.8043 205.71 45.2934 206.689 46.4673 206.787C47.5434 206.885 48.4239 206.101 48.7173 205.122C49.2065 203.36 47.7391 201.696 46.076 201.304C44.8043 201.01 43.3369 201.108 42.6521 199.933C42.2608 199.346 42.163 198.464 42.5543 197.779C43.2391 196.408 44.9021 195.919 46.2717 196.213C47.4456 196.408 48.5217 197.094 49.6956 196.506C50.2826 196.213 50.576 195.429 50.2826 194.842C50.2826 194.744 50.1847 194.744 50.1847 194.646C49.0108 193.275 49.6956 192.002 51.4565 192.1C52.2391 192.1 53.0217 192.296 53.6086 192.786C54 193.079 54.2934 193.569 54.5869 193.863C55.3695 194.45 56.5434 194.45 57.2282 193.863C58.0108 193.275 58.2065 192.1 57.8152 191.219C57.6195 190.925 57.4239 190.632 57.2282 190.436M53.3152 375.487C54.4891 375.291 55.4673 374.507 56.3478 373.626C56.9347 373.039 57.4239 372.353 57.8152 371.668C58.8913 369.906 59.9673 368.045 61.826 367.164C61.9239 367.164 61.9239 367.066 62.0217 367.066C64.1739 366.283 66.0326 368.927 64.5652 370.689C62.9999 372.647 62.8043 375.976 64.7608 377.738C67.4999 380.284 72.8804 378.62 73.2717 374.703C73.3695 374.214 73.4673 373.724 73.8586 373.333C75.4239 371.374 77.6739 374.018 79.826 373.724C81.3913 373.528 82.1739 371.766 82.5652 370.297C82.8586 368.731 83.1521 367.066 84.326 366.087C85.4999 365.108 87.9456 365.793 87.6521 367.36C86.576 369.612 90.1956 371.472 92.3478 370.297C93.5217 369.71 94.4999 368.633 95.3804 367.556C96.0652 366.675 96.75 365.793 97.6304 365.108C99.4891 363.541 103.206 363.444 103.696 365.891C103.793 366.283 103.793 366.773 103.989 367.066C104.38 367.85 105.065 367.85 105.848 367.556C107.217 367.164 108.978 365.989 110.152 366.773C112.206 367.947 109.663 370.689 108.098 372.353C105.652 374.899 106.826 380.48 110.348 380.284C112.109 380.186 113.576 378.718 114.946 377.347C116.217 376.172 118.174 376.759 118.761 378.228C118.859 378.62 118.956 378.913 118.859 379.305C118.859 379.501 118.859 379.599 118.859 379.795C118.859 379.893 118.859 379.99 118.859 380.186C118.859 381.067 119.25 381.851 119.935 382.536C121.109 383.711 122.967 384.299 124.63 384.005C127.174 383.515 126.489 380.186 130.206 378.424C134.511 376.368 137.152 379.795 139.011 377.934C141.065 375.878 134.022 372.06 138.424 368.633C140.674 366.87 142.337 370.199 145.272 370.004C149.185 369.906 145.859 365.01 148.5 363.541C151.435 361.877 152.12 363.933 153.978 363.052C155.446 362.367 153.978 357.471 160.533 361.29C162.783 362.66 166.891 361.779 166.989 359.038C167.087 356.884 164.446 355.219 164.935 353.163C165.326 351.303 167.87 350.617 168.163 348.757C168.456 346.701 165.815 345.526 163.663 345.526C162.978 345.526 162.293 345.526 161.609 345.428C160.239 345.33 159.75 343.568 160.826 342.687C162 341.805 162.783 340.337 162.685 338.868C162.489 336.42 159.946 334.364 157.5 334.756C156.13 334.952 154.956 335.833 153.685 336.029C152.413 336.224 150.652 335.539 150.652 334.168C150.75 331.329 157.402 331.721 156.326 328.979C156.13 328.587 155.837 328.196 155.446 327.902C152.804 326.14 155.739 321.93 158.283 323.104C159.163 323.496 159.75 324.279 160.435 324.867C163.467 327.021 168.456 323.594 167.38 319.971C166.793 317.719 164.543 315.076 166.304 313.509C168.163 311.845 170.511 314.88 172.761 315.957C175.891 317.426 179.902 313.313 178.337 310.18C177.75 309.005 176.674 308.026 176.478 306.753C176.185 303.816 180.391 303.033 183.228 303.424C186.163 303.718 190.37 302.543 189.587 299.704C189 297.354 184.891 295.885 186.065 293.731C186.848 292.458 188.706 292.85 190.174 292.459C191.837 291.969 193.011 290.109 192.522 288.444C192.424 287.857 191.935 287.367 191.348 286.878C190.174 285.898 188.609 285.409 187.043 285.409C186.652 285.409 186.163 285.311 185.772 285.115C185.38 284.919 185.087 284.528 184.989 284.136C184.696 283.157 185.674 282.374 186.554 281.982C187.337 281.688 188.217 281.493 188.902 281.003C189.88 280.22 189.978 278.555 189.196 277.576C188.413 276.597 186.946 276.205 185.772 276.597C184.891 276.891 184.206 277.478 183.326 277.478C182.446 277.478 181.467 276.891 181.272 276.01C181.076 275.128 181.467 274.051 182.25 273.66C183.326 273.072 184.598 273.562 185.772 273.464C187.728 273.366 189.489 271.897 189.783 269.939C190.076 268.373 189.685 266.121 191.152 265.533C192.228 265.044 193.402 265.827 194.576 265.729C196.141 265.631 197.413 263.967 197.12 262.4C196.924 260.833 195.554 259.561 193.989 259.169C193.5 259.071 192.913 258.973 192.815 258.386C192.717 258.092 192.815 257.7 193.011 257.504C193.598 256.819 194.38 256.819 195.065 256.427C196.141 255.84 196.826 254.567 196.533 253.392C196.239 252.217 195.163 251.238 193.891 251.238C193.402 251.238 192.913 251.336 192.522 250.944C192.13 250.553 192.228 249.965 192.522 249.574C193.206 248.693 194.38 248.79 195.261 248.301C197.12 247.322 197.12 244.384 195.75 242.818C194.185 240.958 191.641 240.468 189.293 239.978C188.804 239.881 188.315 239.587 188.022 239.195C187.043 238.02 188.413 236.845 188.413 235.573C188.413 234.985 188.12 234.496 187.826 234.104C186.848 232.733 184.989 232.048 183.326 232.341C182.739 232.439 182.054 232.733 181.467 232.537C180.978 232.439 180.587 232.146 180.391 231.656C179.902 230.677 180.391 229.502 181.467 229.11C182.152 228.817 183.326 228.719 183.326 227.348C183.326 226.173 182.348 225.194 181.272 224.704C180.098 224.313 178.435 223.823 178.924 222.453C179.022 222.159 179.315 221.865 179.609 221.669C181.37 220.494 181.565 217.655 180 216.186C179.609 215.795 179.12 215.501 178.63 215.501C177.261 215.403 176.185 216.676 174.913 216.676C174.033 216.676 173.054 215.99 172.859 215.109C172.663 214.228 173.152 213.249 174.033 212.857C174.522 212.661 175.011 212.661 175.5 212.466C176.87 212.074 177.848 210.605 177.554 209.235C177.456 208.451 176.967 207.766 176.38 207.374C175.304 206.493 175.011 204.927 175.696 203.752C175.891 203.458 176.087 203.164 176.283 202.87C176.576 202.479 176.87 202.185 177.261 201.793C178.239 200.912 178.337 199.052 177.456 197.975C176.478 196.702 174.717 196.31 173.152 196.506C171.783 196.702 170.022 197.29 169.141 196.213C168.946 195.919 168.848 195.625 168.652 195.331C167.87 193.765 166.011 192.884 164.348 193.275C163.467 193.471 162.685 193.961 161.902 194.352C160.924 194.842 159.848 195.136 158.87 194.646C158.38 194.352 157.989 193.863 157.989 193.275C157.989 192.394 158.576 192.1 159.065 191.513C159.946 190.534 159.848 188.967 158.967 188.086C157.891 187.107 156.033 187.205 155.152 188.478C154.956 188.771 154.761 188.967 154.565 189.163C153.196 190.24 152.217 188.576 152.413 187.303C152.511 186.324 153.098 185.344 153 184.365C152.902 183.288 152.022 182.407 150.946 182.113C149.576 181.722 148.011 182.211 146.935 182.995C146.348 183.484 145.467 183.484 144.88 182.995C143.511 182.016 145.174 180.253 144.783 178.882C144.587 178.001 143.609 177.512 142.728 177.316C141.848 177.12 140.87 177.12 140.087 176.63C139.109 176.141 138.424 175.064 138.815 173.889C138.913 173.497 139.206 173.204 139.598 173.008C140.478 172.518 141.163 173.008 141.946 173.204C143.12 173.399 144.196 172.812 145.272 172.518C146.348 172.127 147.815 172.127 148.5 173.008C149.283 173.987 148.696 175.456 148.793 176.728C149.087 178.687 151.728 179.861 153.391 178.784C153.88 178.393 154.467 177.903 155.054 178.295C155.25 178.393 155.348 178.687 155.348 178.882C155.641 180.351 156.033 181.82 156.913 182.995C157.696 184.072 158.967 184.953 160.435 184.953C161.413 184.953 162.293 184.561 163.174 184.072C164.152 183.582 165.13 182.995 165.717 182.113C166.402 181.232 166.696 180.057 166.304 178.98C166.011 178.197 165.228 177.414 165.424 176.533C165.522 176.043 165.913 175.651 166.206 175.26C166.891 174.085 166.402 172.518 165.228 171.833C164.446 171.441 163.37 171.343 163.076 170.462C162.978 170.07 162.978 169.679 163.174 169.287C163.663 168.406 164.446 168.014 165.13 167.427C165.913 166.644 166.5 165.567 166.402 164.49C166.304 163.413 165.522 162.336 164.446 162.042C163.272 161.748 161.609 162.14 161.217 160.671C161.12 160.084 161.217 159.496 161.609 159.007C162.783 157.244 161.804 154.894 160.043 153.915C158.38 153.034 156.228 153.328 154.565 154.307C154.272 154.503 153.88 154.601 153.587 154.601C152.315 154.601 152.315 153.524 151.826 152.838C150.946 151.663 149.087 152.153 147.815 152.936C146.543 153.719 145.174 154.796 143.804 154.405C142.826 154.111 142.141 153.132 142.141 152.153C142.239 151.174 143.022 150.195 144 150.097C144.587 149.999 145.272 150.195 145.859 150.293C148.011 150.586 150.163 149.803 151.728 148.236C152.804 147.061 153.391 145.103 152.315 144.026C151.337 143.047 149.772 143.243 148.598 143.733C148.109 143.928 147.424 144.124 147.033 143.733C146.837 143.537 146.739 143.243 146.739 142.949C146.739 142.068 147.522 141.383 147.717 140.599C148.011 139.327 146.935 138.054 145.663 137.662C144.391 137.27 143.022 137.662 141.75 137.956C140.478 138.25 139.109 138.543 137.837 138.054C137.543 137.956 137.25 137.76 137.054 137.466C136.859 137.173 136.859 136.879 136.859 136.487C136.859 136.389 136.859 136.389 136.859 136.291C137.152 134.235 139.109 132.767 141.163 132.962C142.728 133.06 145.272 133.256 146.739 132.864C148.891 132.179 150.946 130.613 151.533 128.458C152.12 126.304 150.946 123.563 148.793 122.976C147.522 122.682 145.859 122.878 145.076 121.801C144.587 121.115 144.685 120.234 144.489 119.353C144 117.199 141.261 115.828 139.304 116.807C138.13 117.297 136.956 118.472 135.783 117.884C135 117.493 134.804 116.513 135.098 115.73C135.783 114.164 137.446 113.772 138.717 112.989C139.696 112.303 140.576 111.128 140.087 110.051C139.598 108.876 138.13 108.681 137.054 108.289C135.783 107.799 134.609 105.841 136.37 105.254C136.859 105.156 137.25 105.254 137.739 105.45C139.109 106.135 140.674 104.96 140.87 103.589C141.065 102.512 140.478 101.337 139.598 100.652C139.011 100.26 138.228 99.8686 138.62 98.8895C138.717 98.5958 138.913 98.2042 139.206 98.0083C140.478 96.7355 140.576 94.4836 139.5 93.0149C138.522 91.7421 136.663 91.1546 135.098 91.6442C133.141 92.3295 131.087 94.5815 129.424 93.3086C128.446 92.6233 128.543 91.1546 128.641 90.0776C128.837 87.8257 129.424 85.0842 131.478 84.1051C132.359 83.7134 133.239 83.7134 134.12 83.5176C136.272 82.9301 137.739 79.9928 136.174 78.4263C135.685 77.9367 135.098 77.643 134.609 77.1534C132.946 75.391 134.022 71.8663 131.87 70.5934C130.011 69.5164 127.761 71.4746 125.609 71.1809C123.065 70.8872 122.185 66.7749 124.435 65.5021C125.609 64.8167 127.174 64.9146 128.152 63.9355C128.935 63.1522 129.033 62.0752 129.326 60.9982C129.815 59.2358 130.891 57.6692 131.185 55.9069C131.576 54.1445 130.989 51.8925 129.228 51.403C127.076 50.7176 124.043 52.8716 123.065 50.326C122.772 49.5427 122.87 48.6615 123.261 47.9761C124.533 45.3325 121.402 42.7869 119.054 43.766C117.978 44.2555 117.196 45.2346 115.826 45.2346C115.337 45.2346 114.946 44.9409 114.75 44.5492C113.87 42.6889 117.685 42.1994 117.685 40.3391C117.685 38.4788 113.772 38.1851 114.946 35.8352C115.141 35.5415 115.435 35.2478 115.728 35.0519C117.196 34.2686 118.272 32.5063 117.978 30.8418C117.783 29.3731 116.511 28.1003 115.043 28.1003C114.065 28.1003 112.989 28.5898 112.011 28.1003C111.522 27.9045 111.228 27.4149 111.326 26.9254C111.424 26.4358 111.913 26.24 112.304 26.0442C114.163 25.163 115.533 22.4215 113.772 21.3445C112.304 20.4633 109.565 21.6382 109.076 19.9737C108.783 18.8967 110.25 18.1134 111.326 18.0155C112.5 17.9176 113.967 17.7218 114.359 16.6448C114.554 16.0573 114.359 15.3719 113.87 14.8824C113.576 14.5886 113.185 14.2949 112.696 14.197C111.424 13.8054 110.935 12.043 111.913 11.0639C112.402 10.5743 112.793 9.98686 112.891 9.30148C112.989 8.12656 112.109 7.44118 110.935 7.04954C109.956 6.75581 109.076 5.87462 109.076 4.7976C108.88 2.54566 106.728 0.391632 104.38 1.07701C104.185 1.17492 103.891 1.37074 103.696 1.56656C103.011 2.34984 103.598 3.42686 104.087 4.40596C104.478 5.18924 103.598 6.07044 102.815 5.6788C101.837 5.18924 100.37 5.48298 99.6847 6.46208C99.1956 7.24536 99.0978 8.12656 99.2934 9.10566C99.3913 9.98686 98.9021 10.7701 98.1195 11.0639C97.5326 11.2597 96.9456 11.7492 96.8478 12.4346C96.6521 13.2179 96.9456 14.0991 97.4347 14.7845C97.826 15.3719 97.4347 16.1552 96.7499 16.2531C95.9673 16.4489 95.2826 16.6448 94.6956 17.1343C93.6195 17.9176 93.2282 19.68 94.3043 20.5612C95.0869 21.2466 96.3586 21.3445 96.5543 22.3236C96.6521 22.911 96.163 23.4985 95.576 23.5964C95.1847 23.6943 94.7934 23.5964 94.4999 23.4006C93.2282 22.6173 91.5652 23.3027 91.4673 24.7713C91.4673 24.9672 91.4673 25.163 91.4673 25.3588C91.5652 26.4358 92.3478 27.4149 93.326 27.8066C94.1086 28.1003 94.7934 28.6878 95.1847 29.3731C95.3804 29.7648 95.576 30.2543 95.576 30.646C95.4782 31.8209 94.6956 32.8979 93.6195 33.1916C92.9347 33.3875 92.2499 33.3875 91.5652 33.5833C90.0978 33.9749 89.1195 35.6394 89.413 37.206C89.6086 38.6746 90.8804 40.0454 92.3478 40.437C93.913 40.9266 95.8695 40.5349 97.0434 41.7098C98.2173 42.9827 97.6304 45.0388 96.9456 46.7033C96.8478 46.8991 96.7499 47.1928 96.4565 47.3886C96.163 47.5845 95.7717 47.5845 95.4782 47.5845C94.5978 47.4866 93.6195 47.3886 92.7391 47.3886C92.1521 47.2907 91.5652 47.2907 91.1739 47.6824C90.9782 47.8782 90.8804 48.1719 90.7826 48.4657C90.3913 50.0322 92.5434 52.0883 93.1304 52.6758C93.326 52.8716 93.5217 53.0675 93.7173 53.2633C95.0869 54.7319 96.163 56.5922 95.1847 58.5504C94.5978 59.7254 93.1304 60.117 92.0543 59.3337C90.9782 58.4525 91.3695 57.1797 91.1739 55.9069C90.8804 53.2633 87.4565 51.5988 85.1086 52.8716C82.8586 54.2424 82.663 58.0609 84.8152 59.6275C85.4999 60.117 86.2826 60.4107 86.8695 60.9982C86.9673 61.194 87.163 61.2919 87.163 61.4878C87.9456 63.0543 85.9891 64.6209 84.5217 63.5439C82.9565 62.3689 80.5108 62.3689 79.1413 63.7397C77.2826 65.6 77.8695 69.2227 80.2173 70.3976C80.8043 70.6913 81.3912 70.7892 81.8804 71.1809C83.0543 71.9642 83.0543 74.314 81.6847 74.6077C80.413 74.4119 79.4347 73.4328 78.2608 73.237C76.4999 72.8454 74.8369 74.4119 74.5434 76.1743C74.2499 77.9367 75.0326 79.6012 76.1086 81.0698C77.1847 82.4406 78.5543 83.7134 80.3152 84.1051C81.0978 84.3009 82.076 84.3009 82.8586 84.6925C84.326 85.3779 84.913 87.2382 84.7173 88.8048V88.9027C84.4239 90.5672 82.2717 90.9588 81.2934 89.588C80.8043 88.8048 80.0217 88.1194 79.0434 87.7277C77.8695 87.3361 76.4021 87.7278 75.913 88.9027C75.2282 90.1755 76.0108 91.5463 76.4999 92.8191C76.8912 93.994 76.7934 95.6585 75.7173 96.0501C75.326 96.246 74.9347 96.1481 74.4456 96.246C71.9021 96.4418 70.7282 99.477 70.0434 102.023C69.8478 102.708 69.6521 103.491 69.9456 104.177C70.3369 105.058 71.3152 105.45 72.0978 106.135C74.6412 108.191 73.7608 112.989 70.7282 113.968C70.1413 114.164 69.5543 114.261 69.163 114.751C68.8695 115.045 68.8695 115.534 68.8695 116.024C68.8695 117.493 69.5543 119.157 70.1412 120.528C70.6304 121.605 71.3152 122.584 72.0978 123.563C73.5652 125.227 74.1521 128.165 72.6847 129.536C70.9239 131.102 67.9891 131.004 66.2282 129.536C65.4456 128.948 64.8586 128.067 63.8804 127.675C62.413 126.99 60.163 127.381 59.4782 128.556C58.5978 130.025 60.6521 131.396 59.9673 133.158C59.0869 135.214 55.4673 134.823 55.076 136.781C54.9782 137.466 55.1739 138.347 55.663 138.739C56.3478 139.327 57.6195 138.935 58.1086 139.914C58.3043 140.306 58.3043 140.893 58.1086 141.285C57.5217 142.362 56.3478 142.753 55.5652 143.635C54.5869 144.81 54.4891 146.67 55.2717 147.943C56.0543 149.216 57.6195 149.999 59.0869 150.195C60.163 150.293 61.2391 150.097 62.3152 150.39C64.4673 150.88 65.8369 153.524 65.1521 155.58C64.3695 157.734 61.826 159.496 62.7065 161.552C63.5869 163.804 67.7934 163.804 67.4999 166.448C67.4021 166.839 67.3043 167.133 67.1086 167.427C66.0326 169.091 64.663 170.952 62.6086 171.05C61.4347 171.147 60.163 170.266 59.9673 169.091C59.7717 168.014 60.4565 167.525 60.9456 166.937C61.9239 165.567 61.6304 163.608 60.3586 162.433C58.9891 161.161 56.7391 160.867 54.9782 161.552C54.4891 161.748 54 161.846 53.5108 161.748C51.0652 161.552 51.4565 158.615 50.3804 156.853C49.5 155.384 47.7391 154.796 46.076 154.992C44.2173 155.09 42.5543 156.069 40.8913 156.853C40.5 157.048 40.2065 157.244 40.0108 157.636C39.326 158.909 40.4999 159.888 41.6739 160.377C42.75 160.769 44.0217 161.063 44.413 162.238C44.8043 163.217 44.3152 164.294 43.4347 164.881C41.7717 165.86 39.913 165.175 38.3478 164.49C37.076 163.902 35.7065 163.217 34.3369 163.217C31.4999 163.315 29.5434 166.937 30.913 169.385C31.5978 170.658 32.9673 172.127 31.2065 173.106C31.1086 173.204 30.913 173.204 30.7173 173.204C29.7391 173.301 26.8043 177.512 28.2717 180.841C29.7391 183.974 34.5326 184.659 37.2717 183.484C40.1086 182.309 40.3043 179.666 42.6521 179.568C44.6086 179.47 46.9565 181.232 46.663 182.701C46.3695 183.876 45.1956 184.659 44.6086 185.736C43.5326 187.596 43.6304 189.75 44.7065 190.534C47.0543 192.1 47.9347 188.967 50.4782 188.771C53.2173 188.673 54.2934 191.415 56.5434 190.827C56.7391 190.73 56.9347 190.73 57.1304 190.632C58.0108 190.142 58.3043 189.359 60.2608 188.869C61.0434 188.673 61.9239 188.771 62.6086 189.261C64.3695 190.534 63.3913 193.079 62.0217 194.646C60.75 196.115 59.1847 197.779 59.576 199.639C59.7717 201.01 61.1413 202.087 62.413 202.479C63.6847 202.87 65.1521 202.577 66.326 201.696C66.8152 201.304 67.5 201.206 68.2826 201.108C69.4565 201.01 70.5326 201.696 71.0217 202.675C71.3152 203.262 71.9021 203.752 72.5869 203.947C73.663 204.143 74.7391 203.654 75.2282 202.773C75.4239 202.381 75.8152 202.283 76.2065 202.283C76.3043 202.283 76.4021 202.283 76.4021 202.283C77.4782 202.577 77.576 205.122 76.2065 205.906C74.6413 206.787 72.3912 206.689 71.1195 207.962C69.5543 209.724 69.9456 212.074 71.9999 213.151C74.0543 214.228 78.163 212.661 80.5108 212.661C82.8586 212.564 84.7173 214.816 86.2826 216.578C87.8478 218.34 85.8913 221.376 83.6413 221.767C80.7065 222.257 81.0978 218.438 79.0434 216.284C76.8913 214.13 74.0543 215.207 72.3913 217.557C70.826 219.711 67.5 219.417 66.326 216.97C65.3478 214.718 64.3695 212.368 62.2173 212.466C60.3586 212.564 59.2826 214.62 58.2065 216.088C57.1304 217.557 54.5869 218.732 53.6086 217.165C52.826 215.99 53.7065 214.424 53.7065 213.053C53.7065 210.214 49.4021 208.745 47.7391 210.997C46.8586 212.27 46.4673 214.326 45 214.424C43.0434 214.62 42.75 211.78 42.3586 209.92C41.9673 208.06 40.4021 206.493 38.6413 205.808C37.4673 205.416 36.1956 205.318 34.9239 205.808C32.4782 206.885 31.5 210.312 32.7717 212.564C33.5543 213.934 32.576 215.795 31.0108 215.893C30.7173 215.893 30.4239 215.893 30.1304 215.795C28.5652 215.501 27.1956 214.522 25.6304 214.326C21.7173 213.738 18.3913 219.026 20.6413 222.355C21.2282 223.236 22.1086 224.117 21.913 225.096C21.7173 225.977 20.7391 226.565 20.25 227.348C19.1739 229.404 22.3043 231.46 24.4565 230.775C26.7065 230.09 28.3695 228.229 30.4239 227.348C32.4782 226.467 35.8043 227.838 35.413 230.09C35.2173 231.264 34.1413 231.852 32.9673 232.244C31.8913 232.635 31.7934 234.202 32.8695 234.593C34.0434 235.083 35.6086 235.083 36.5869 234.789C37.7608 234.398 38.9347 234.691 39.7173 235.67C41.576 238.02 38.8369 239.783 36.6847 239.587C34.9239 239.489 33.163 238.706 31.4021 239.097C30.0326 239.489 29.1521 241.251 29.6413 242.328C30.0326 243.307 29.0543 244.287 28.076 243.797C27.1956 243.307 26.7065 242.524 26.0217 241.839C24.4565 240.468 21.7173 240.468 20.1521 241.937C18.4891 243.503 18.2934 246.538 19.9565 248.203C20.0543 248.301 20.1521 248.399 20.25 248.497C22.8913 251.728 18.1956 253.588 15.163 253.196C12.4239 252.805 8.51082 253.098 8.41299 255.84C8.31517 257.602 10.076 258.777 11.2499 260.05C11.3478 260.05 11.3478 260.148 11.3478 260.148C12.6195 261.617 10.8586 263.771 9.09778 262.89C7.82604 262.302 6.45647 262.008 5.08691 262.596C4.01082 263.085 3.22821 264.162 3.13038 265.337C3.13038 268.666 8.70647 269.352 8.02169 272.289C7.33691 275.226 1.36951 273.953 0.880384 276.891C0.586906 278.947 3.32604 279.926 5.38038 280.22C7.43473 280.513 10.076 281.982 9.29343 283.842C8.8043 285.115 7.04343 285.311 6.16299 286.388C4.10865 288.738 7.82604 292.067 10.8586 291.969C12.4239 291.969 14.1847 291.675 15.7499 291.577C17.6086 291.577 18.9782 293.536 18.1956 295.2C17.9021 295.885 17.7065 296.571 17.5108 297.354C16.9239 300.389 20.2499 302.739 22.9891 301.27C23.7717 300.879 24.5543 300.389 25.3369 299.998C27.7826 298.823 31.7934 299.704 31.4021 302.347C31.2065 303.816 29.6413 304.795 29.3478 306.264C28.8586 308.712 32.0869 310.376 34.4347 309.789C36.7826 309.201 38.7391 307.439 41.0869 306.656C41.576 306.46 42.2608 306.362 42.8478 306.362C45 306.362 45.9782 309.005 44.413 310.376C43.5326 311.159 42.9456 312.236 42.8478 313.411C42.75 314.684 43.2391 315.957 44.1195 316.936C45.2934 318.111 44.6086 320.167 42.9456 320.461C42.4565 320.559 41.8695 320.657 41.3804 320.657C39.4239 320.755 37.4673 320.461 35.8043 321.44C35.7065 321.44 35.7065 321.538 35.6086 321.538C33.75 322.811 35.1195 325.748 37.2717 325.161C37.3695 325.161 37.4673 325.161 37.4673 325.063C40.0108 324.475 41.0869 328.098 38.6413 328.979C38.3478 329.077 38.0543 329.175 37.7608 329.175C35.7065 329.664 33.4565 329.567 31.6956 330.546C31.5978 330.644 31.4999 330.741 31.3043 330.839C29.2499 332.406 30.5217 335.637 33.0652 335.637C34.3369 335.637 35.6086 335.833 36.7826 336.518C38.5434 337.497 39.5217 340.141 38.25 341.707C36.8804 343.47 34.0434 342.882 31.8913 343.666C29.6413 344.547 28.3695 347.484 29.3478 349.736C30.326 351.988 33.2608 353.163 35.5108 352.086C36.8804 351.401 37.9565 350.128 39.2282 349.344C40.5978 348.561 42.75 348.659 43.2391 350.128C44.0217 352.282 40.5978 353.457 39.2282 355.219C37.4673 357.471 39.0326 360.996 41.576 362.269C42.75 362.856 44.0217 363.15 45.2934 363.15C47.1521 363.248 48.4239 365.01 47.8369 366.87C47.4456 368.045 47.3478 369.318 47.4456 370.591C47.7391 372.941 49.6956 375.193 51.9456 375.389C52.6304 375.487 52.9239 375.487 53.3152 375.487Z" stroke="#D8D2C5" stroke-miterlimit="10" stroke-linecap="round" stroke-linejoin="round"/>
</g>
<defs>
<clipPath id="clip0_929_3199">
<rect width="198" height="492" fill="white"/>
</clipPath>
</defs>
</svg>
