<svg width="120" height="120" viewBox="0 0 120 120" fill="none" xmlns="http://www.w3.org/2000/svg">
<path d="M-3.05176e-05 59.6057H9.43023" stroke="#7C8E74" stroke-miterlimit="10" stroke-linecap="round" stroke-linejoin="round"/>
<path d="M0.785828 50.3021L10.0589 51.7213" stroke="#7C8E74" stroke-miterlimit="10" stroke-linecap="round" stroke-linejoin="round"/>
<path d="M2.98621 41.1562L11.9449 44.0735" stroke="#7C8E74" stroke-miterlimit="10" stroke-linecap="round" stroke-linejoin="round"/>
<path d="M6.60114 32.4834L15.0098 36.8198" stroke="#7C8E74" stroke-miterlimit="10" stroke-linecap="round" stroke-linejoin="round"/>
<path d="M11.4734 24.5203L19.0962 30.0393" stroke="#7C8E74" stroke-miterlimit="10" stroke-linecap="round" stroke-linejoin="round"/>
<path d="M17.6031 17.3455L24.2829 24.0472" stroke="#7C8E74" stroke-miterlimit="10" stroke-linecap="round" stroke-linejoin="round"/>
<path d="M24.7544 11.2745L30.2554 19.0012" stroke="#7C8E74" stroke-miterlimit="10" stroke-linecap="round" stroke-linejoin="round"/>
<path d="M32.6915 6.46509L37.0137 14.8225" stroke="#7C8E74" stroke-miterlimit="10" stroke-linecap="round" stroke-linejoin="round"/>
<path d="M41.3359 2.83826L44.3222 11.9053" stroke="#7C8E74" stroke-miterlimit="10" stroke-linecap="round" stroke-linejoin="round"/>
<path d="M50.4518 0.709473L51.945 10.013" stroke="#7C8E74" stroke-miterlimit="10" stroke-linecap="round" stroke-linejoin="round"/>
<path d="M59.8035 -0.00012207V9.46111" stroke="#7C8E74" stroke-miterlimit="10" stroke-linecap="round" stroke-linejoin="round"/>
<path d="M69.1552 0.78833L67.662 10.0919" stroke="#7C8E74" stroke-miterlimit="10" stroke-linecap="round" stroke-linejoin="round"/>
<path d="M78.1925 2.99597L75.2849 11.9841" stroke="#7C8E74" stroke-miterlimit="10" stroke-linecap="round" stroke-linejoin="round"/>
<path d="M86.8369 6.6228L82.5933 15.0591" stroke="#7C8E74" stroke-miterlimit="10" stroke-linecap="round" stroke-linejoin="round"/>
<path d="M94.7741 11.511L89.2731 19.1588" stroke="#7C8E74" stroke-miterlimit="10" stroke-linecap="round" stroke-linejoin="round"/>
<path d="M101.925 17.6609L95.2455 24.3626" stroke="#7C8E74" stroke-miterlimit="10" stroke-linecap="round" stroke-linejoin="round"/>
<path d="M107.976 24.8356L100.354 30.3546" stroke="#7C8E74" stroke-miterlimit="10" stroke-linecap="round" stroke-linejoin="round"/>
<path d="M112.849 32.7988L104.44 37.1352" stroke="#7C8E74" stroke-miterlimit="10" stroke-linecap="round" stroke-linejoin="round"/>
<path d="M116.385 41.4717L107.426 44.4677" stroke="#7C8E74" stroke-miterlimit="10" stroke-linecap="round" stroke-linejoin="round"/>
<path d="M118.507 50.6174L109.234 52.1155" stroke="#7C8E74" stroke-miterlimit="10" stroke-linecap="round" stroke-linejoin="round"/>
<path d="M119.214 59.6057H109.784" stroke="#7C8E74" stroke-miterlimit="10" stroke-linecap="round" stroke-linejoin="round"/>
<path d="M0.785828 68.988L10.0589 67.49" stroke="#7C8E74" stroke-miterlimit="10" stroke-linecap="round" stroke-linejoin="round"/>
<path d="M2.98621 78.055L11.9449 75.1378" stroke="#7C8E74" stroke-miterlimit="10" stroke-linecap="round" stroke-linejoin="round"/>
<path d="M6.60114 86.7279L15.0098 82.4703" stroke="#7C8E74" stroke-miterlimit="10" stroke-linecap="round" stroke-linejoin="round"/>
<path d="M11.4734 94.7699L19.0962 89.172" stroke="#7C8E74" stroke-miterlimit="10" stroke-linecap="round" stroke-linejoin="round"/>
<path d="M17.6031 101.866L24.2829 95.1642" stroke="#7C8E74" stroke-miterlimit="10" stroke-linecap="round" stroke-linejoin="round"/>
<path d="M24.7544 107.937L30.2554 100.289" stroke="#7C8E74" stroke-miterlimit="10" stroke-linecap="round" stroke-linejoin="round"/>
<path d="M32.6915 112.825L37.0137 104.389" stroke="#7C8E74" stroke-miterlimit="10" stroke-linecap="round" stroke-linejoin="round"/>
<path d="M41.3359 116.373L44.3222 107.385" stroke="#7C8E74" stroke-miterlimit="10" stroke-linecap="round" stroke-linejoin="round"/>
<path d="M50.4518 118.502L51.945 109.198" stroke="#7C8E74" stroke-miterlimit="10" stroke-linecap="round" stroke-linejoin="round"/>
<path d="M59.8035 119.211V109.75" stroke="#7C8E74" stroke-miterlimit="10" stroke-linecap="round" stroke-linejoin="round"/>
<path d="M69.1552 118.502L67.662 109.12" stroke="#7C8E74" stroke-miterlimit="10" stroke-linecap="round" stroke-linejoin="round"/>
<path d="M78.1925 116.215L75.2849 107.227" stroke="#7C8E74" stroke-miterlimit="10" stroke-linecap="round" stroke-linejoin="round"/>
<path d="M86.8369 112.589L82.5933 104.231" stroke="#7C8E74" stroke-miterlimit="10" stroke-linecap="round" stroke-linejoin="round"/>
<path d="M94.7741 107.7L89.2731 100.052" stroke="#7C8E74" stroke-miterlimit="10" stroke-linecap="round" stroke-linejoin="round"/>
<path d="M101.925 101.55L95.2455 94.9276" stroke="#7C8E74" stroke-miterlimit="10" stroke-linecap="round" stroke-linejoin="round"/>
<path d="M107.976 94.4546L100.354 88.8567" stroke="#7C8E74" stroke-miterlimit="10" stroke-linecap="round" stroke-linejoin="round"/>
<path d="M112.849 86.4124L104.44 82.076" stroke="#7C8E74" stroke-miterlimit="10" stroke-linecap="round" stroke-linejoin="round"/>
<path d="M116.385 77.7397L107.426 74.8225" stroke="#7C8E74" stroke-miterlimit="10" stroke-linecap="round" stroke-linejoin="round"/>
<path d="M118.507 68.5939L109.234 67.0958" stroke="#7C8E74" stroke-miterlimit="10" stroke-linecap="round" stroke-linejoin="round"/>
</svg>
