<svg width="240" height="72" viewBox="0 0 240 72" fill="none" xmlns="http://www.w3.org/2000/svg">
<g clip-path="url(#clip0_909_5381)">
<path d="M27.8361 48.2734L27.7457 47.9512C29.525 45.3149 30.9123 43.0887 31.8472 41.3019C32.7821 39.4858 33.2646 38.2262 33.2646 37.4646C33.2646 35.6778 32.2091 34.7698 30.098 34.7698C28.9218 34.7698 27.9869 35.3556 27.3234 36.498L23.0108 44.319C16.4061 39.0757 12.4252 36.4394 11.0681 36.4394C9.10782 36.4394 8.14275 37.4354 8.14275 39.4272C8.14275 40.0131 8.56497 40.5989 9.43956 41.2433L19.3315 49.0643C15.0188 54.1904 9.95225 58.2913 4.22217 61.3377C2.86504 62.07 1.83966 62.8023 1.0857 63.5053C0.331742 64.2083 0 64.8821 0 65.4386C0 67.6941 1.02538 68.8365 3.07615 68.8365C4.52375 68.8365 7.47927 67.2254 11.9125 64.0326C16.5268 60.7812 20.5981 57.1196 24.1267 53.0773L24.3679 53.3996L32.1488 60.8105C33.6567 62.4508 34.9233 63.2417 35.9789 63.2417C38.2408 63.2417 39.3868 62.1872 39.3868 60.0782C39.3868 58.5257 35.5265 54.5712 27.8361 48.2734Z" fill="#5D5D5D"/>
<path d="M39.2963 9.6957H24.6695V3.95445C24.6695 2.6363 24.3981 1.66966 23.8553 1.02524C23.3124 0.380812 22.4981 0.0878906 21.4124 0.0878906C20.3267 0.0878906 19.5125 0.410104 18.9696 1.02524C18.4268 1.66966 18.1553 2.6363 18.1553 3.95445V9.72499H4.55392C2.17141 9.72499 0.995239 10.7209 0.995239 12.7128C0.995239 14.6168 2.17141 15.5541 4.55392 15.5541H39.2963C41.528 15.5541 42.6137 14.6168 42.6137 12.7128C42.6137 11.6583 42.3423 10.8967 41.8296 10.428C41.3471 9.93004 40.4725 9.6957 39.2963 9.6957Z" fill="#5D5D5D"/>
<path d="M11.2189 30.9032C15.2903 26.6851 17.3109 23.8731 17.3109 22.3792C17.3109 20.5924 16.3458 19.6843 14.3855 19.6843C13.0887 19.6843 11.8221 20.5338 10.5554 22.2034C8.32372 25.1912 5.69994 28.0033 2.68411 30.6396C1.11587 32.0163 0.331757 33.188 0.331757 34.1839C0.331757 36.2344 1.29682 37.2596 3.25711 37.2596C4.49361 37.2889 7.14754 35.1799 11.2189 30.9032Z" fill="#5D5D5D"/>
<path d="M65.8356 33.188C64.5388 32.0749 63.8754 31.1961 63.8754 30.4931C63.8754 29.8194 64.1769 28.9406 64.7801 27.8861C70.5102 17.1066 73.3752 10.721 73.3752 8.72909C73.3752 5.30191 70.9324 3.60297 66.0769 3.60297H52.3549C49.8216 3.45651 47.9517 3.95447 46.8057 5.09687C45.6296 6.23926 45.0565 8.11395 45.0565 10.6917V68.485C45.0565 70.7991 46.1423 71.9415 48.3136 71.9415C50.5454 71.9415 51.6311 70.7991 51.6311 68.485V12.2148C51.6311 10.6331 52.4453 9.84219 54.0739 9.84219H63.7246C64.9611 9.84219 65.5944 10.1937 65.5944 10.8674V11.0139L65.3531 12.0391L64.6293 13.533C62.3674 19.4207 60.5278 23.7266 59.1103 26.4508C57.9342 28.7649 57.331 30.2881 57.331 31.0204C57.331 32.1628 58.1453 33.5102 59.7738 35.0334C64.8103 39.6616 67.3134 44.2897 67.3134 48.9179C67.3134 51.437 66.7706 53.2238 65.6849 54.2783C65.2023 54.747 64.4484 55.1864 63.4531 55.5379C62.4579 55.9187 61.2817 56.1237 59.9246 56.1823C58.5072 56.2409 57.4516 56.5631 56.7278 57.1197C56.004 57.7055 55.6421 58.4671 55.6421 59.4044C55.6421 61.8357 56.8786 63.0367 59.3818 63.0367C69.1229 63.0367 74.0085 58.5843 74.0085 49.7087C73.9482 43.3524 71.2641 37.8162 65.8356 33.188Z" fill="#5D5D5D"/>
<path d="M34.6821 23.2579L32.0885 21.1196C30.7313 19.9772 29.6758 19.3914 28.9218 19.3914C26.66 19.3914 25.5139 20.2994 25.5139 22.1448C25.5139 22.7307 26.1774 23.7266 27.5346 25.1326C33.8075 31.284 37.4265 34.3596 38.4217 34.3596C40.6836 34.3596 41.8296 33.2758 41.8296 31.1375C41.7994 29.7901 39.4169 27.1538 34.6821 23.2579Z" fill="#5D5D5D"/>
<path d="M117.557 35.9707C117.075 35.5606 116.321 35.3263 115.295 35.3263C114.421 35.3263 113.727 35.5899 113.214 36.0879C112.702 36.5859 112.43 37.2889 112.43 38.1676C112.43 40.0716 113.637 42.8837 116.079 46.6038C117.437 48.7128 118.824 50.5875 120.211 52.2278C122.292 50.9097 123.981 49.5623 125.036 48.2734C122.232 45.2563 120.211 41.917 118.944 38.2555C118.492 37.1424 118.04 36.3808 117.557 35.9707Z" fill="#5D5D5D"/>
<path d="M152.481 10.8088H113.275C113.425 8.87552 113.637 6.32711 113.848 3.16356C113.908 2.22621 113.667 1.46462 113.124 0.90807C112.581 0.35152 111.737 0.0878906 110.621 0.0878906C108.389 0.0878906 107.213 1.25957 107.062 3.63224L106.489 10.8088H87.6401C84.9862 10.8088 83.6592 11.834 83.6592 13.8845C83.6592 15.9349 84.9862 16.9601 87.6401 16.9601H105.856C104.649 26.3043 102.418 34.5061 99.1304 41.5655C95.8432 48.6249 91.5004 54.7763 86.1322 60.1074C84.2925 62.0114 83.3576 63.5053 83.3576 64.5891C83.3576 65.4679 83.6291 66.2002 84.2021 66.7274C84.7751 67.2547 85.5592 67.5183 86.5846 67.5183C87.61 67.5183 89.1179 66.6103 91.1385 64.7942C93.1289 62.978 95.3607 60.371 97.8035 56.9439C102.93 49.7966 106.881 41.8291 109.565 33.0415H138.698C139.12 33.0415 139.482 33.1294 139.724 33.3051C139.965 33.4809 140.085 33.7445 140.085 34.0667V34.3011C139.663 36.3515 138.427 39.0464 136.436 42.3564C135.411 44.0846 134.265 45.7543 132.968 47.3361C134.054 48.4199 135.682 49.7966 137.884 51.3198C140.085 48.6249 142.106 45.6664 143.885 42.415C145.122 40.2474 146.147 38.0505 146.962 35.795C147.625 34.0667 147.927 32.6021 147.927 31.3719C147.927 28.2669 145.635 26.7144 141.02 26.7144H111.224C111.767 24.5175 112.249 21.2368 112.672 16.9309H152.36C154.954 16.9309 156.25 15.9056 156.25 13.8552C156.371 11.834 155.074 10.8088 152.481 10.8088Z" fill="#5D5D5D"/>
<path d="M195.336 9.31488H197.537V48.1855L195.909 48.5077C193.134 49.035 191.777 50.1774 191.777 51.9056C191.777 53.8975 192.682 54.8934 194.551 54.8934C196.662 54.8934 201.91 53.1359 210.294 49.6208V58.8478C210.294 60.8983 211.199 61.9235 212.978 61.9235C214.818 61.9235 215.753 60.8983 215.753 58.8478V9.31488H221.603C223.714 9.31488 224.77 8.37754 224.77 6.47355C224.77 4.62815 223.714 3.72009 221.603 3.72009H195.366C193.194 3.72009 192.109 4.62815 192.109 6.47355C192.078 8.34825 193.164 9.31488 195.336 9.31488ZM202.966 9.31488H210.264V17.5167H202.966V9.31488ZM202.966 22.7893H210.264V31.0789H202.966V22.7893ZM202.966 36.3515H210.264V44.4068L210.113 44.4947L202.966 46.7795V36.3515Z" fill="#5D5D5D"/>
<path d="M236.592 63.3881L216.205 63.7103C201.488 63.7103 191.536 62.5386 186.409 60.166V46.2815H191.445C193.707 46.2815 194.853 45.3149 194.853 43.3523C194.853 41.5069 193.707 40.5989 191.445 40.5989H186.409V31.1375H192.651C194.974 31.1375 196.15 30.2002 196.15 28.2962C196.15 26.3922 194.974 25.4548 192.651 25.4548H186.228V16.55H190.691C193.134 16.55 194.34 15.6127 194.34 13.7087C194.34 11.7754 193.134 10.7795 190.691 10.7795H186.228V3.16355C186.228 1.05452 185.232 0 183.212 0C181.252 0 180.286 1.05452 180.286 3.16355V10.8088H172.083C169.641 10.8088 168.434 11.7754 168.434 13.738C168.434 15.642 169.641 16.5793 172.083 16.5793H180.286V25.4841H169.882C167.499 25.4841 166.323 26.3922 166.323 28.2376C166.323 30.1709 167.499 31.1668 169.882 31.1668H180.769V56.2408C178.779 54.249 177.06 51.6127 175.642 48.3613L176.547 39.515C176.547 37.7282 175.612 36.8202 173.712 36.8202C171.872 36.8202 170.907 38.0797 170.787 40.5989C170.515 49.2107 169.249 56.6802 166.957 63.0073C166.293 64.9113 165.991 66.1709 165.991 66.786C165.991 68.7193 166.926 69.7152 168.826 69.7152C171.42 69.7152 173.41 64.9699 174.768 55.45C177.301 60.5468 181.131 64.1497 186.228 66.2587C190.782 68.1627 200.462 69.3051 215.3 69.7152H234.933C238.281 69.7152 239.97 68.6021 239.97 66.4052C240 64.384 238.854 63.3881 236.592 63.3881Z" fill="#5D5D5D"/>
<path d="M217.351 15.7006C217.351 17.6924 218.467 18.6884 220.668 18.6884H231.375C232.249 18.6884 232.672 19.0692 232.672 19.8015C232.672 21.8519 231.405 26.5972 228.841 34.0081L226.881 31.0789C223.895 27.0366 221.815 25.0155 220.638 25.0155C218.799 25.0155 217.864 25.9235 217.864 27.7103C217.864 27.974 217.984 28.3548 218.196 28.8234C218.407 29.2921 218.738 29.7608 219.161 30.2295C221.483 32.9536 223.835 36.3515 226.218 40.3938C225.614 41.712 224.951 42.9715 224.197 44.2311C223.443 45.4614 222.991 46.2522 222.81 46.5452C221.634 48.4784 220.307 50.1481 218.919 51.5248C217.472 52.9894 216.718 54.2197 216.718 55.157C216.718 56.153 216.959 56.9439 217.442 57.4711C217.924 57.9984 218.618 58.2913 219.553 58.2913C221.995 58.2913 225.343 54.3369 229.626 46.4573L232.792 52.4622C234.21 55.45 235.537 56.9439 236.773 56.9439C238.884 56.9439 239.94 55.9186 239.94 53.8682C239.94 52.14 237.497 47.4239 232.641 39.7494C236.743 29.6436 238.824 22.1448 238.824 17.1945C238.824 14.2653 236.924 12.7714 233.154 12.7714H220.638C218.437 12.7714 217.351 13.738 217.351 15.7006Z" fill="#5D5D5D"/>
<path d="M132.757 51.3491C132.666 51.2612 132.546 51.1734 132.455 51.0855C129.5 48.5664 127.057 50.9976 127.057 50.9976V50.9683C124.554 53.5167 121.025 55.9773 116.381 58.4378C109.987 61.8357 103.895 63.9154 103.624 64.0033C103.413 64.0619 103.202 64.1205 102.991 64.1205C102.538 64.3548 102.146 64.5891 101.845 64.7942C100.94 65.4386 100.518 66.4053 100.518 67.6648C100.518 70.1546 101.664 71.4142 103.926 71.4142C106.459 71.4142 110.289 70.0668 115.386 67.4012C121.025 64.4134 125.579 61.3377 129.108 58.1449C133.119 61.2498 137.884 64.2669 143.403 67.1961C148.379 69.8324 151.696 71.1213 153.385 71.1213C155.647 71.1213 156.793 69.6274 156.793 66.6396C156.793 65.4093 155.888 64.3255 154.079 63.3296C153.958 63.3003 153.807 63.271 153.687 63.2417C143.343 59.6388 136.617 54.7763 132.757 51.3491Z" fill="#A7B47F"/>
<path d="M125.036 67.4598C123.348 67.4598 121.719 66.8447 120.181 65.6437C118.764 64.5306 116.049 65.7609 116.019 65.7901C115.416 66.0831 114.692 65.8487 114.391 65.2629C114.089 64.677 114.33 63.974 114.933 63.6811C115.114 63.5932 119.035 61.7185 121.689 63.8276C123.77 65.4972 126.002 65.5265 128.294 63.974C132.154 61.3085 135.23 63.5347 135.351 63.6518C135.893 64.0326 135.984 64.7942 135.562 65.2922C135.17 65.8194 134.386 65.9073 133.873 65.4972C132.124 64.267 129.922 65.7316 129.681 65.878C128.203 66.9325 126.605 67.4598 125.036 67.4598Z" fill="#A7B47F"/>
</g>
<defs>
<clipPath id="clip0_909_5381">
<rect width="240" height="72" fill="white"/>
</clipPath>
</defs>
</svg>
