<svg width="120" height="36" viewBox="0 0 120 36" fill="none" xmlns="http://www.w3.org/2000/svg">
<g clip-path="url(#clip0_909_4883)">
<path d="M13.9181 24.1367L13.8728 23.9756C14.7625 22.6575 15.4561 21.5444 15.9236 20.651C16.3911 19.7429 16.6323 19.1131 16.6323 18.7323C16.6323 17.8389 16.1045 17.3849 15.049 17.3849C14.4609 17.3849 13.9935 17.6778 13.6617 18.249L11.5054 22.1595C8.20307 19.5379 6.21262 18.2197 5.53405 18.2197C4.55391 18.2197 4.07137 18.7177 4.07137 19.7136C4.07137 20.0065 4.28248 20.2995 4.71978 20.6217L9.66574 24.5322C7.50942 27.0952 4.97612 29.1457 2.11108 30.6689C1.43252 31.035 0.919829 31.4012 0.54285 31.7527C0.165871 32.1042 0 32.441 0 32.7193C0 33.847 0.512692 34.4182 1.53807 34.4182C2.26187 34.4182 3.73963 33.6127 5.95627 32.0163C8.26338 30.3906 10.2991 28.5598 12.0633 26.5387L12.184 26.6998L16.0744 30.4052C16.8283 31.2254 17.4617 31.6208 17.9894 31.6208C19.1204 31.6208 19.6934 31.0936 19.6934 30.0391C19.6934 29.2628 17.7633 27.2856 13.9181 24.1367Z" fill="#5D5D5D"/>
<path d="M19.6482 4.84785H12.3348V1.97722C12.3348 1.31815 12.1991 0.834832 11.9276 0.512619C11.6562 0.190406 11.2491 0.0439453 10.7062 0.0439453C10.1634 0.0439453 9.75623 0.205052 9.4848 0.512619C9.21338 0.834832 9.07767 1.31815 9.07767 1.97722V4.8625H2.27696C1.08571 4.8625 0.49762 5.36046 0.49762 6.35639C0.49762 7.30839 1.08571 7.77706 2.27696 7.77706H19.6482C20.764 7.77706 21.3069 7.30839 21.3069 6.35639C21.3069 5.82914 21.1712 5.44834 20.9148 5.214C20.6735 4.96502 20.2362 4.84785 19.6482 4.84785Z" fill="#5D5D5D"/>
<path d="M5.60944 15.4516C7.64513 13.3426 8.65543 11.9365 8.65543 11.1896C8.65543 10.2962 8.1729 9.84216 7.19275 9.84216C6.54435 9.84216 5.91103 10.2669 5.2777 11.1017C4.16184 12.5956 2.84995 14.0016 1.34204 15.3198C0.557921 16.0082 0.165863 16.594 0.165863 17.092C0.165863 18.1172 0.648396 18.6298 1.62854 18.6298C2.24679 18.6444 3.57375 17.5899 5.60944 15.4516Z" fill="#5D5D5D"/>
<path d="M32.9178 16.5939C32.2694 16.0374 31.9377 15.598 31.9377 15.2465C31.9377 14.9096 32.0885 14.4703 32.39 13.943C35.2551 8.55325 36.6876 5.36041 36.6876 4.36448C36.6876 2.65089 35.4662 1.80142 33.0384 1.80142H26.1774C24.9108 1.72819 23.9759 1.97718 23.4029 2.54837C22.8148 3.11957 22.5283 4.05692 22.5283 5.34577V34.2424C22.5283 35.3995 23.0711 35.9707 24.1568 35.9707C25.2727 35.9707 25.8155 35.3995 25.8155 34.2424V6.10736C25.8155 5.31648 26.2227 4.92103 27.0369 4.92103H31.8623C32.4805 4.92103 32.7972 5.09678 32.7972 5.43364V5.50687L32.6765 6.01949L32.3146 6.76644C31.1837 9.71029 30.2639 11.8633 29.5552 13.2253C28.9671 14.3824 28.6655 15.144 28.6655 15.5101C28.6655 16.0813 29.0726 16.755 29.8869 17.5166C32.4051 19.8307 33.6567 22.1448 33.6567 24.4589C33.6567 25.7184 33.3853 26.6118 32.8424 27.1391C32.6011 27.3734 32.2242 27.5931 31.7266 27.7689C31.2289 27.9593 30.6409 28.0618 29.9623 28.0911C29.2536 28.1204 28.7258 28.2815 28.3639 28.5598C28.002 28.8527 27.821 29.2335 27.821 29.7022C27.821 30.9178 28.4393 31.5183 29.6909 31.5183C34.5614 31.5183 37.0043 29.2921 37.0043 24.8543C36.9741 21.6761 35.6321 18.908 32.9178 16.5939Z" fill="#5D5D5D"/>
<path d="M17.3411 11.629L16.0442 10.5598C15.3657 9.9886 14.8379 9.69568 14.4609 9.69568C13.33 9.69568 12.757 10.1497 12.757 11.0724C12.757 11.3653 13.0887 11.8633 13.7673 12.5663C16.9038 15.642 18.7133 17.1798 19.2109 17.1798C20.3418 17.1798 20.9148 16.6379 20.9148 15.5687C20.8997 14.895 19.7085 13.5769 17.3411 11.629Z" fill="#5D5D5D"/>
<path d="M58.7786 17.9853C58.5373 17.7803 58.1603 17.6631 57.6476 17.6631C57.2103 17.6631 56.8635 17.7949 56.6072 18.0439C56.3508 18.2929 56.2151 18.6444 56.2151 19.0838C56.2151 20.0357 56.8183 21.4418 58.0397 23.3018C58.7183 24.3563 59.4119 25.2937 60.1055 26.1139C61.146 25.4548 61.9904 24.7811 62.5182 24.1366C61.1158 22.6281 60.1055 20.9584 59.4722 19.1277C59.246 18.5711 59.0198 18.1903 58.7786 17.9853Z" fill="#5D5D5D"/>
<path d="M76.2403 5.4044H56.6374C56.7128 4.43776 56.8183 3.16355 56.9239 1.58178C56.954 1.11311 56.8334 0.73231 56.562 0.454035C56.2905 0.17576 55.8683 0.0439453 55.3104 0.0439453C54.1945 0.0439453 53.6065 0.629787 53.5311 1.81612L53.2446 5.4044H43.8201C42.4931 5.4044 41.8296 5.91701 41.8296 6.94224C41.8296 7.96746 42.4931 8.48007 43.8201 8.48007H52.9279C52.3247 13.1522 51.2089 17.2531 49.5652 20.7828C47.9216 24.3125 45.7502 27.3881 43.0661 30.0537C42.1463 31.0057 41.6788 31.7527 41.6788 32.2946C41.6788 32.7339 41.8145 33.1001 42.1011 33.3637C42.3876 33.6273 42.7796 33.7592 43.2923 33.7592C43.805 33.7592 44.559 33.3051 45.5693 32.3971C46.5645 31.489 47.6803 30.1855 48.9018 28.4719C51.4652 24.8983 53.4406 20.9146 54.7826 16.5208H69.3491C69.5602 16.5208 69.7412 16.5647 69.8618 16.6526C69.9824 16.7404 70.0427 16.8723 70.0427 17.0334V17.1505C69.8316 18.1758 69.2134 19.5232 68.2182 21.1782C67.7055 22.0423 67.1325 22.8771 66.4841 23.668C67.0269 24.2099 67.8412 24.8983 68.942 25.6599C70.0427 24.3125 71.0531 22.8332 71.9427 21.2075C72.561 20.1237 73.0737 19.0252 73.4808 17.8975C73.8125 17.0334 73.9633 16.3011 73.9633 15.6859C73.9633 14.1334 72.8173 13.3572 70.5102 13.3572H55.612C55.8834 12.2588 56.1247 10.6184 56.3358 8.46543H76.18C77.4768 8.46543 78.1252 7.95282 78.1252 6.92759C78.1855 5.91701 77.5371 5.4044 76.2403 5.4044Z" fill="#5D5D5D"/>
<path d="M97.6678 4.6575H98.7685V24.0928L97.9543 24.2539C96.567 24.5176 95.8884 25.0887 95.8884 25.9529C95.8884 26.9488 96.3408 27.4468 97.2757 27.4468C98.3312 27.4468 100.955 26.568 105.147 24.8105V29.424C105.147 30.4492 105.599 30.9618 106.489 30.9618C107.409 30.9618 107.876 30.4492 107.876 29.424V4.6575H110.802C111.857 4.6575 112.385 4.18883 112.385 3.23684C112.385 2.31414 111.857 1.86011 110.802 1.86011H97.6828C96.5971 1.86011 96.0543 2.31414 96.0543 3.23684C96.0392 4.17418 96.5821 4.6575 97.6678 4.6575ZM101.483 4.6575H105.132V8.7584H101.483V4.6575ZM101.483 11.3947H105.132V15.5395H101.483V11.3947ZM101.483 18.1758H105.132V22.2035L105.057 22.2474L101.483 23.3898V18.1758Z" fill="#5D5D5D"/>
<path d="M118.296 31.6941L108.103 31.8552C100.744 31.8552 95.7678 31.2693 93.2043 30.083V23.1408H95.7225C96.8535 23.1408 97.4265 22.6574 97.4265 21.6762C97.4265 20.7535 96.8535 20.2994 95.7225 20.2994H93.2043V15.5688H96.3257C97.4868 15.5688 98.0749 15.1001 98.0749 14.1481C98.0749 13.1961 97.4868 12.7274 96.3257 12.7274H93.1138V8.27502H95.3456C96.567 8.27502 97.1701 7.80635 97.1701 6.85435C97.1701 5.88771 96.567 5.38975 95.3456 5.38975H93.1138V1.58177C93.1138 0.527258 92.6162 0 91.6059 0C90.6258 0 90.1432 0.527258 90.1432 1.58177V5.40439H86.0417C84.8203 5.40439 84.2171 5.88771 84.2171 6.869C84.2171 7.82099 84.8203 8.28967 86.0417 8.28967H90.1432V12.7421H84.9409C83.7497 12.7421 83.1616 13.1961 83.1616 14.1188C83.1616 15.0854 83.7497 15.5834 84.9409 15.5834H90.3845V28.1204C89.3893 27.1245 88.5298 25.8063 87.8211 24.1806L88.2734 19.7575C88.2734 18.8641 87.806 18.4101 86.856 18.4101C85.9362 18.4101 85.4536 19.0399 85.3933 20.2994C85.2576 24.6054 84.6243 28.3401 83.4783 31.5037C83.1465 32.4557 82.9957 33.0854 82.9957 33.393C82.9957 34.3596 83.4632 34.8576 84.4132 34.8576C85.71 34.8576 86.7052 32.4849 87.3838 27.725C88.6504 30.2734 90.5655 32.0749 93.1138 33.1294C95.3908 34.0814 100.231 34.6526 107.65 34.8576H117.467C119.14 34.8576 119.985 34.3011 119.985 33.2026C120 32.192 119.427 31.6941 118.296 31.6941Z" fill="#5D5D5D"/>
<path d="M108.676 7.85023C108.676 8.84616 109.233 9.34412 110.334 9.34412H115.687C116.125 9.34412 116.336 9.53452 116.336 9.90067C116.336 10.9259 115.702 13.2986 114.421 17.004L113.441 15.5394C111.948 13.5182 110.907 12.5077 110.319 12.5077C109.399 12.5077 108.932 12.9617 108.932 13.8551C108.932 13.9869 108.992 14.1773 109.098 14.4117C109.203 14.646 109.369 14.8803 109.58 15.1147C110.741 16.4768 111.918 18.1757 113.109 20.1968C112.807 20.8559 112.476 21.4857 112.099 22.1155C111.722 22.7306 111.495 23.1261 111.405 23.2725C110.817 24.2392 110.153 25.074 109.46 25.7623C108.736 26.4947 108.359 27.1098 108.359 27.5785C108.359 28.0764 108.48 28.4719 108.721 28.7355C108.962 28.9991 109.309 29.1456 109.776 29.1456C110.998 29.1456 112.672 27.1684 114.813 23.2286L116.396 26.231C117.105 27.7249 117.768 28.4719 118.387 28.4719C119.442 28.4719 119.97 27.9593 119.97 26.934C119.97 26.0699 118.748 23.7119 116.321 19.8746C118.371 14.8217 119.412 11.0724 119.412 8.59717C119.412 7.13257 118.462 6.38562 116.577 6.38562H110.319C109.218 6.38562 108.676 6.86894 108.676 7.85023Z" fill="#5D5D5D"/>
<path d="M66.3785 25.6746C66.3332 25.6306 66.2729 25.5867 66.2277 25.5427C64.7499 24.2832 63.5285 25.4988 63.5285 25.4988V25.4842C62.2769 26.7584 60.5127 27.9886 58.1905 29.2189C54.9937 30.9178 51.9477 31.9577 51.812 32.0017C51.7065 32.0309 51.6009 32.0602 51.4953 32.0602C51.2692 32.1774 51.0731 32.2946 50.9223 32.3971C50.47 32.7193 50.2589 33.2026 50.2589 33.8324C50.2589 35.0773 50.8319 35.7071 51.9628 35.7071C53.2294 35.7071 55.1445 35.0334 57.6929 33.7006C60.5127 32.2067 62.7896 30.6689 64.5539 29.0724C66.5594 30.6249 68.9419 32.1335 71.7014 33.5981C74.1895 34.9162 75.8482 35.5606 76.6926 35.5606C77.8236 35.5606 78.3966 34.8137 78.3966 33.3198C78.3966 32.7047 77.9442 32.1628 77.0394 31.6648C76.9791 31.6501 76.9037 31.6355 76.8434 31.6209C71.6713 29.8194 68.3086 27.3881 66.3785 25.6746Z" fill="#A7B47F"/>
<path d="M62.5182 33.7299C61.6738 33.7299 60.8595 33.4223 60.0905 32.8218C59.3817 32.2653 58.0246 32.8804 58.0095 32.8951C57.708 33.0415 57.346 32.9244 57.1953 32.6314C57.0445 32.3385 57.1651 31.987 57.4667 31.8406C57.5572 31.7966 59.5175 30.8593 60.8444 31.9138C61.8849 32.7486 63.0007 32.7633 64.1468 31.987C66.0769 30.6542 67.615 31.7673 67.6753 31.8259C67.9467 32.0163 67.9919 32.3971 67.7808 32.6461C67.5848 32.9097 67.1927 32.9537 66.9364 32.7486C66.0618 32.1335 64.961 32.8658 64.8404 32.939C64.1015 33.4663 63.3023 33.7299 62.5182 33.7299Z" fill="#A7B47F"/>
</g>
<defs>
<clipPath id="clip0_909_4883">
<rect width="120" height="36" fill="white"/>
</clipPath>
</defs>
</svg>
