<svg width="312" height="694" viewBox="0 0 312 694" fill="none" xmlns="http://www.w3.org/2000/svg">
<g clip-path="url(#clip0_929_3201)">
<path d="M175.761 580.326C171.75 581.99 168.13 582.97 165.587 583.459C164.315 583.753 163.141 582.774 163.141 581.501L162.75 569.654M176.837 584.536C173.12 586.201 169.696 587.278 167.054 587.865C164.804 588.355 163.239 590.411 163.337 592.663L164.706 692.923M113.348 575.528C118.141 586.886 127.826 601.083 146.609 607.447C149.446 608.426 152.283 606.272 152.38 603.335V569.556M151.793 693.021L152.283 617.336C152.283 615.084 150.815 613.126 148.663 612.538C126.359 606.174 114.913 589.823 109.337 577.584M160.696 600.691L161.38 639.66M161.38 645.045L161.576 652.878M161.967 655.619L162.848 691.161M158.348 624.484L159.815 678.334M153.946 622.134L154.141 692.531M154.141 573.962V590.411M157.076 600.691V606.566M119.511 591.586C119.511 591.586 129.196 602.845 136.924 606.37M169.5 584.047C169.5 584.047 172.826 583.067 175.761 581.893M105.033 455.294C101.315 455.98 99.163 460.875 101.217 464.106C103.467 467.631 109.728 467.435 111.293 463.323C111.587 462.638 111.978 461.952 112.565 461.463C115.598 458.917 118.239 463.225 117.75 466.358C117.261 469.1 115.696 472.037 116.772 474.681C118.043 477.716 123.13 478.01 124.696 475.17C125.38 473.897 125.478 472.429 125.87 471.156C126.359 469.785 127.63 468.512 129 468.806C132.13 469.491 129.88 475.562 132.717 477.03C134.576 478.01 136.63 475.856 137.12 473.897C137.12 473.897 137.12 473.897 137.12 473.799C137.804 470.96 141.13 469.785 143.478 471.547C143.674 471.645 143.87 471.841 143.967 471.939C144.75 472.527 145.63 473.212 146.804 472.527C147.88 471.939 148.467 470.666 148.272 469.491C148.174 468.708 147.783 468.023 147.391 467.435C145.043 464.4 149.152 460.386 152.087 462.833C152.38 463.127 152.674 463.421 152.967 463.813C153.359 464.596 153.652 465.477 154.141 466.162C155.12 467.337 157.174 467.533 158.25 466.456C158.641 466.064 158.935 465.477 159.033 464.987C159.62 461.952 163.63 460.973 165.293 463.617C165.489 463.91 165.685 464.302 165.783 464.694C166.37 466.848 165.391 469.198 164.315 471.254C163.239 473.31 161.185 474.681 161.576 476.835C161.87 478.303 162.163 479.38 163.337 479.772C164.902 480.261 166.467 479.184 166.859 477.716C167.152 476.639 167.446 475.464 168.424 475.17C172.435 473.799 173.413 477.226 175.565 477.128C177.717 477.03 179.87 476.149 179.87 474.093C179.87 471.743 176.543 470.079 177.326 467.925C177.717 466.652 179.283 466.162 180.554 466.064C181.826 465.967 183.293 466.064 184.37 465.379C185.446 464.596 185.641 462.638 184.467 462.246M150.13 304.61C149.543 305.198 149.152 305.785 148.761 306.47C147.587 309.016 150.522 311.366 152.772 309.799C154.043 308.918 156 308.037 157.174 309.114C158.152 309.995 158.054 311.464 158.543 312.737C159.13 314.107 160.793 314.989 162.261 314.695C163.728 314.401 165 313.03 165 311.464C165 310.778 164.902 310.191 165.098 309.506C165.685 308.037 167.837 308.233 169.206 309.114C170.478 309.995 171.652 311.366 173.217 311.366C174.489 311.366 175.663 310.485 175.956 309.31C176.054 308.918 176.054 308.429 175.956 308.037C175.663 306.568 176.739 305.198 178.304 305.198C178.891 305.198 179.38 305.198 179.87 305.002C181.043 304.61 181.826 303.141 181.435 301.869C181.043 300.596 179.674 299.813 178.402 300.106M176.446 408.395C173.609 408.689 171.848 412.507 173.511 414.857C174 415.543 174.685 416.326 174.293 417.011C174 417.501 173.413 417.501 172.826 417.697C170.283 418.48 170.087 422.299 171.848 424.355C173.413 426.215 176.25 426.998 178.598 426.215C179.478 425.921 180.359 425.432 181.239 425.432C184.272 425.432 184.076 431.013 188.87 429.936C191.902 429.25 191.511 423.278 194.641 423.082C195.424 422.984 196.109 423.376 196.793 423.473C199.533 424.061 202.565 421.711 202.565 418.872C202.565 417.795 202.272 416.718 202.37 415.641C202.467 414.564 203.25 413.389 204.326 413.487C204.62 413.487 204.913 413.584 205.206 413.682C207.456 414.27 209.706 412.312 210.391 410.06C211.076 407.808 210.587 405.36 210 403.108M164.902 521.58C165.196 522.853 164.413 524.321 165.098 525.398C165.88 526.573 167.641 526.279 168.815 525.594C169.989 524.811 170.967 523.734 172.239 523.342C174 522.95 175.761 524.027 177.522 524.615C179.283 525.202 181.728 525.007 182.217 523.146C182.413 522.461 182.12 521.678 182.315 520.992C182.609 519.328 184.761 518.642 186.522 518.838C187.5 518.936 188.576 519.23 189.554 519.328C192.293 519.621 194.054 516.39 192.293 514.236C191.12 512.768 191.217 510.222 192.587 509.341C195.424 507.383 194.935 510.81 198.359 511.593C201.978 512.376 205.011 510.907 203.446 507.187C202.565 505.033 201.196 506.208 200.12 504.641C199.337 503.564 200.217 502.096 201.196 501.312C202.174 500.529 203.446 499.844 203.935 498.669C204.62 496.613 202.37 494.654 200.315 493.871M95.5434 407.71C96.7173 405.947 99.5543 405.556 101.12 407.024C101.804 407.71 102.293 408.689 103.467 408.787C104.543 408.885 105.424 408.101 105.717 407.122C106.206 405.36 104.739 403.696 103.076 403.304C101.804 403.01 100.337 403.108 99.6521 401.933C99.2608 401.346 99.163 400.464 99.5543 399.779C100.239 398.408 101.902 397.919 103.272 398.213C104.446 398.408 105.522 399.094 106.696 398.506C107.283 398.213 107.576 397.429 107.283 396.842C107.283 396.744 107.185 396.744 107.185 396.646C106.011 395.275 106.696 394.002 108.456 394.1C109.239 394.1 110.022 394.296 110.609 394.786C111 395.079 111.293 395.569 111.587 395.863C112.37 396.45 113.543 396.45 114.228 395.863C115.011 395.275 115.206 394.1 114.815 393.219C114.62 392.925 114.424 392.632 114.228 392.436M110.315 577.487C111.489 577.291 112.467 576.507 113.348 575.626C113.935 575.039 114.424 574.353 114.815 573.668C115.891 571.906 116.967 570.045 118.826 569.164C118.924 569.164 118.924 569.066 119.022 569.066C121.174 568.283 123.033 570.927 121.565 572.689C120 574.647 119.804 577.976 121.761 579.738C124.5 582.284 129.88 580.62 130.272 576.703C130.37 576.214 130.467 575.724 130.859 575.333C132.424 573.374 134.674 576.018 136.826 575.724C138.391 575.528 139.174 573.766 139.565 572.297C139.859 570.731 140.152 569.066 141.326 568.087C142.5 567.108 144.946 567.793 144.652 569.36C143.576 571.612 147.196 573.472 149.348 572.297C150.522 571.71 151.5 570.633 152.38 569.556C153.065 568.675 153.75 567.793 154.63 567.108C156.489 565.541 160.206 565.444 160.696 567.891C160.793 568.283 160.793 568.773 160.989 569.066C161.38 569.85 162.065 569.85 162.848 569.556C164.217 569.164 165.978 567.989 167.152 568.773C169.206 569.947 166.663 572.689 165.098 574.353C162.652 576.899 163.826 582.48 167.348 582.284C169.109 582.186 170.576 580.718 171.946 579.347C173.217 578.172 175.174 578.759 175.761 580.228C175.859 580.62 175.956 580.913 175.859 581.305C175.859 581.501 175.859 581.599 175.859 581.795C175.859 581.893 175.859 581.99 175.859 582.186C175.859 583.067 176.25 583.851 176.935 584.536C178.109 585.711 179.967 586.299 181.63 586.005C184.174 585.515 183.489 582.186 187.206 580.424C191.511 578.368 194.152 581.795 196.011 579.934C198.065 577.878 191.022 574.06 195.424 570.633C197.674 568.87 199.337 572.199 202.272 572.004C206.185 571.906 202.859 567.01 205.5 565.541C208.435 563.877 209.12 565.933 210.978 565.052C212.446 564.367 210.978 559.471 217.533 563.29C219.783 564.66 223.891 563.779 223.989 561.038C224.087 558.884 221.446 557.219 221.935 555.163C222.326 553.303 224.87 552.617 225.163 550.757C225.456 548.701 222.815 547.526 220.663 547.526C219.978 547.526 219.293 547.526 218.609 547.428C217.239 547.33 216.75 545.568 217.826 544.687C219 543.805 219.783 542.337 219.685 540.868C219.489 538.42 216.946 536.364 214.5 536.756C213.13 536.952 211.956 537.833 210.685 538.029C209.413 538.224 207.652 537.539 207.652 536.168C207.75 533.329 214.402 533.721 213.326 530.979C213.13 530.587 212.837 530.196 212.446 529.902C209.804 528.14 212.739 523.93 215.283 525.104C216.163 525.496 216.75 526.279 217.435 526.867C220.467 529.021 225.456 525.594 224.38 521.971C223.793 519.719 221.543 517.076 223.304 515.509C225.163 513.845 227.511 516.88 229.761 517.957C232.891 519.426 236.902 515.313 235.337 512.18C234.75 511.005 233.674 510.026 233.478 508.753C233.185 505.816 237.391 505.033 240.228 505.424C243.163 505.718 247.37 504.543 246.587 501.704C246 499.354 241.891 497.885 243.065 495.731C243.848 494.458 245.706 494.85 247.174 494.459C248.837 493.969 250.011 492.109 249.522 490.444C249.424 489.857 248.935 489.367 248.348 488.878C247.174 487.898 245.609 487.409 244.043 487.409C243.652 487.409 243.163 487.311 242.772 487.115C242.38 486.919 242.087 486.528 241.989 486.136C241.696 485.157 242.674 484.374 243.554 483.982C244.337 483.688 245.217 483.493 245.902 483.003C246.88 482.22 246.978 480.555 246.196 479.576C245.413 478.597 243.946 478.205 242.772 478.597C241.891 478.891 241.206 479.478 240.326 479.478C239.446 479.478 238.467 478.891 238.272 478.01C238.076 477.128 238.467 476.051 239.25 475.66C240.326 475.072 241.598 475.562 242.772 475.464C244.728 475.366 246.489 473.897 246.783 471.939C247.076 470.373 246.685 468.121 248.152 467.533C249.228 467.044 250.402 467.827 251.576 467.729C253.141 467.631 254.413 465.967 254.12 464.4C253.924 462.833 252.554 461.561 250.989 461.169C250.5 461.071 249.913 460.973 249.815 460.386C249.717 460.092 249.815 459.7 250.011 459.504C250.598 458.819 251.38 458.819 252.065 458.427C253.141 457.84 253.826 456.567 253.533 455.392C253.239 454.217 252.163 453.238 250.891 453.238C250.402 453.238 249.913 453.336 249.522 452.944C249.13 452.553 249.228 451.965 249.522 451.574C250.206 450.693 251.38 450.79 252.261 450.301C254.12 449.322 254.12 446.384 252.75 444.818C251.185 442.958 248.641 442.468 246.293 441.978C245.804 441.881 245.315 441.587 245.022 441.195C244.043 440.02 245.413 438.845 245.413 437.573C245.413 436.985 245.12 436.496 244.826 436.104C243.848 434.733 241.989 434.048 240.326 434.341C239.739 434.439 239.054 434.733 238.467 434.537C237.978 434.439 237.587 434.146 237.391 433.656C236.902 432.677 237.391 431.502 238.467 431.11C239.152 430.817 240.326 430.719 240.326 429.348C240.326 428.173 239.348 427.194 238.272 426.704C237.098 426.313 235.435 425.823 235.924 424.453C236.022 424.159 236.315 423.865 236.609 423.669C238.37 422.494 238.565 419.655 237 418.186C236.609 417.795 236.12 417.501 235.63 417.501C234.261 417.403 233.185 418.676 231.913 418.676C231.033 418.676 230.054 417.99 229.859 417.109C229.663 416.228 230.152 415.249 231.033 414.857C231.522 414.661 232.011 414.661 232.5 414.466C233.87 414.074 234.848 412.605 234.554 411.235C234.456 410.451 233.967 409.766 233.38 409.374C232.304 408.493 232.011 406.927 232.696 405.752C232.891 405.458 233.087 405.164 233.283 404.87C233.576 404.479 233.87 404.185 234.261 403.793C235.239 402.912 235.337 401.052 234.456 399.975C233.478 398.702 231.717 398.31 230.152 398.506C228.783 398.702 227.022 399.29 226.141 398.213C225.946 397.919 225.848 397.625 225.652 397.331C224.87 395.765 223.011 394.884 221.348 395.275C220.467 395.471 219.685 395.961 218.902 396.352C217.924 396.842 216.848 397.136 215.87 396.646C215.38 396.352 214.989 395.863 214.989 395.275C214.989 394.394 215.576 394.1 216.065 393.513C216.946 392.534 216.848 390.967 215.967 390.086C214.891 389.107 213.033 389.205 212.152 390.478C211.956 390.771 211.761 390.967 211.565 391.163C210.196 392.24 209.217 390.576 209.413 389.303C209.511 388.324 210.098 387.344 210 386.365C209.902 385.288 209.022 384.407 207.946 384.113C206.576 383.722 205.011 384.211 203.935 384.995C203.348 385.484 202.467 385.484 201.88 384.995C200.511 384.016 202.174 382.253 201.783 380.882C201.587 380.001 200.609 379.512 199.728 379.316C198.848 379.12 197.87 379.12 197.087 378.63C196.109 378.141 195.424 377.064 195.815 375.889C195.913 375.497 196.206 375.204 196.598 375.008C197.478 374.518 198.163 375.008 198.946 375.204C200.12 375.399 201.196 374.812 202.272 374.518C203.348 374.127 204.815 374.127 205.5 375.008C206.283 375.987 205.696 377.456 205.793 378.728C206.087 380.687 208.728 381.861 210.391 380.784C210.88 380.393 211.467 379.903 212.054 380.295C212.25 380.393 212.348 380.687 212.348 380.882C212.641 382.351 213.033 383.82 213.913 384.995C214.696 386.072 215.967 386.953 217.435 386.953C218.413 386.953 219.293 386.561 220.174 386.072C221.152 385.582 222.13 384.995 222.717 384.113C223.402 383.232 223.696 382.057 223.304 380.98C223.011 380.197 222.228 379.414 222.424 378.533C222.522 378.043 222.913 377.651 223.206 377.26C223.891 376.085 223.402 374.518 222.228 373.833C221.446 373.441 220.37 373.343 220.076 372.462C219.978 372.07 219.978 371.679 220.174 371.287C220.663 370.406 221.446 370.014 222.13 369.427C222.913 368.644 223.5 367.567 223.402 366.49C223.304 365.413 222.522 364.336 221.446 364.042C220.272 363.748 218.609 364.14 218.217 362.671C218.12 362.084 218.217 361.496 218.609 361.007C219.783 359.244 218.804 356.894 217.043 355.915C215.38 355.034 213.228 355.328 211.565 356.307C211.272 356.503 210.88 356.601 210.587 356.601C209.315 356.601 209.315 355.524 208.826 354.838C207.946 353.663 206.087 354.153 204.815 354.936C203.543 355.719 202.174 356.796 200.804 356.405C199.826 356.111 199.141 355.132 199.141 354.153C199.239 353.174 200.022 352.195 201 352.097C201.587 351.999 202.272 352.195 202.859 352.293C205.011 352.586 207.163 351.803 208.728 350.236C209.804 349.061 210.391 347.103 209.315 346.026C208.337 345.047 206.772 345.243 205.598 345.733C205.109 345.928 204.424 346.124 204.033 345.733C203.837 345.537 203.739 345.243 203.739 344.949C203.739 344.068 204.522 343.383 204.717 342.599C205.011 341.327 203.935 340.054 202.663 339.662C201.391 339.27 200.022 339.662 198.75 339.956C197.478 340.25 196.109 340.543 194.837 340.054C194.543 339.956 194.25 339.76 194.054 339.466C193.859 339.173 193.859 338.879 193.859 338.487C193.859 338.389 193.859 338.389 193.859 338.291C194.152 336.235 196.109 334.767 198.163 334.962C199.728 335.06 202.272 335.256 203.739 334.864C205.891 334.179 207.946 332.613 208.533 330.458C209.12 328.304 207.946 325.563 205.793 324.976C204.522 324.682 202.859 324.878 202.076 323.801C201.587 323.115 201.685 322.234 201.489 321.353C201 319.199 198.261 317.828 196.304 318.807C195.13 319.297 193.956 320.472 192.783 319.884C192 319.493 191.804 318.513 192.098 317.73C192.783 316.164 194.446 315.772 195.717 314.989C196.696 314.303 197.576 313.128 197.087 312.051C196.598 310.876 195.13 310.681 194.054 310.289C192.783 309.799 191.609 307.841 193.37 307.254C193.859 307.156 194.25 307.254 194.739 307.45C196.109 308.135 197.674 306.96 197.87 305.589C198.065 304.512 197.478 303.337 196.598 302.652C196.011 302.26 195.228 301.869 195.62 300.89C195.717 300.596 195.913 300.204 196.206 300.008C197.478 298.736 197.576 296.484 196.5 295.015C195.522 293.742 193.663 293.155 192.098 293.644C190.141 294.33 188.087 296.581 186.424 295.309C185.446 294.623 185.543 293.155 185.641 292.078C185.837 289.826 186.424 287.084 188.478 286.105C189.359 285.713 190.239 285.713 191.12 285.518C193.272 284.93 194.739 281.993 193.174 280.426C192.685 279.937 192.098 279.643 191.609 279.153C189.946 277.391 191.022 273.866 188.87 272.593C187.011 271.516 184.761 273.475 182.609 273.181C180.065 272.887 179.185 268.775 181.435 267.502C182.609 266.817 184.174 266.915 185.152 265.936C185.935 265.152 186.033 264.075 186.326 262.998C186.815 261.236 187.891 259.669 188.185 257.907C188.576 256.144 187.989 253.893 186.228 253.403C184.076 252.718 181.043 254.872 180.065 252.326C179.772 251.543 179.87 250.661 180.261 249.976C181.533 247.333 178.402 244.787 176.054 245.766C174.978 246.256 174.196 247.235 172.826 247.235C172.337 247.235 171.946 246.941 171.75 246.549C170.87 244.689 174.685 244.199 174.685 242.339C174.685 240.479 170.772 240.185 171.946 237.835C172.141 237.541 172.435 237.248 172.728 237.052C174.196 236.269 175.272 234.506 174.978 232.842C174.783 231.373 173.511 230.1 172.043 230.1C171.065 230.1 169.989 230.59 169.011 230.1C168.522 229.904 168.228 229.415 168.326 228.925C168.424 228.436 168.913 228.24 169.304 228.044C171.163 227.163 172.533 224.421 170.772 223.344C169.304 222.463 166.565 223.638 166.076 221.974C165.783 220.897 167.25 220.113 168.326 220.016C169.5 219.918 170.967 219.722 171.359 218.645C171.554 218.057 171.359 217.372 170.87 216.882C170.576 216.589 170.185 216.295 169.696 216.197C168.424 215.805 167.935 214.043 168.913 213.064C169.402 212.574 169.793 211.987 169.891 211.301C169.989 210.127 169.109 209.441 167.935 209.05C166.956 208.756 166.076 207.875 166.076 206.798C165.88 204.546 163.728 202.392 161.38 203.077C161.185 203.175 160.891 203.371 160.696 203.567C160.011 204.35 160.598 205.427 161.087 206.406C161.478 207.189 160.598 208.07 159.815 207.679C158.837 207.189 157.37 207.483 156.685 208.462C156.196 209.245 156.098 210.127 156.293 211.106C156.391 211.987 155.902 212.77 155.12 213.064C154.533 213.26 153.946 213.749 153.848 214.435C153.652 215.218 153.946 216.099 154.435 216.784C154.826 217.372 154.435 218.155 153.75 218.253C152.967 218.449 152.283 218.645 151.696 219.134C150.62 219.918 150.228 221.68 151.304 222.561C152.087 223.247 153.359 223.344 153.554 224.324C153.652 224.911 153.163 225.498 152.576 225.596C152.185 225.694 151.793 225.596 151.5 225.401C150.228 224.617 148.565 225.303 148.467 226.771C148.467 226.967 148.467 227.163 148.467 227.359C148.565 228.436 149.348 229.415 150.326 229.807C151.109 230.1 151.793 230.688 152.185 231.373C152.38 231.765 152.576 232.254 152.576 232.646C152.478 233.821 151.696 234.898 150.62 235.192C149.935 235.387 149.25 235.387 148.565 235.583C147.098 235.975 146.12 237.639 146.413 239.206C146.609 240.675 147.88 242.045 149.348 242.437C150.913 242.927 152.87 242.535 154.043 243.71C155.217 244.983 154.63 247.039 153.946 248.703C153.848 248.899 153.75 249.193 153.456 249.389C153.163 249.584 152.772 249.584 152.478 249.584C151.598 249.487 150.62 249.389 149.739 249.389C149.152 249.291 148.565 249.291 148.174 249.682C147.978 249.878 147.88 250.172 147.783 250.466C147.391 252.032 149.543 254.088 150.13 254.676C150.326 254.872 150.522 255.067 150.717 255.263C152.087 256.732 153.163 258.592 152.185 260.55C151.598 261.725 150.13 262.117 149.054 261.334C147.978 260.453 148.37 259.18 148.174 257.907C147.88 255.263 144.456 253.599 142.109 254.872C139.859 256.242 139.663 260.061 141.815 261.627C142.5 262.117 143.283 262.411 143.87 262.998C143.967 263.194 144.163 263.292 144.163 263.488C144.946 265.054 142.989 266.621 141.522 265.544C139.956 264.369 137.511 264.369 136.141 265.74C134.283 267.6 134.87 271.223 137.217 272.398C137.804 272.691 138.391 272.789 138.88 273.181C140.054 273.964 140.054 276.314 138.685 276.608C137.413 276.412 136.435 275.433 135.261 275.237C133.5 274.845 131.837 276.412 131.543 278.174C131.25 279.937 132.033 281.601 133.109 283.07C134.185 284.441 135.554 285.713 137.315 286.105C138.098 286.301 139.076 286.301 139.859 286.693C141.326 287.378 141.913 289.238 141.717 290.805V290.903C141.424 292.567 139.272 292.959 138.293 291.588C137.804 290.805 137.022 290.119 136.043 289.728C134.87 289.336 133.402 289.728 132.913 290.903C132.228 292.176 133.011 293.546 133.5 294.819C133.891 295.994 133.793 297.658 132.717 298.05C132.326 298.246 131.935 298.148 131.446 298.246C128.902 298.442 127.728 301.477 127.043 304.023C126.848 304.708 126.652 305.491 126.946 306.177C127.337 307.058 128.315 307.45 129.098 308.135C131.641 310.191 130.761 314.989 127.728 315.968C127.141 316.164 126.554 316.261 126.163 316.751C125.87 317.045 125.87 317.534 125.87 318.024C125.87 319.493 126.554 321.157 127.141 322.528C127.63 323.605 128.315 324.584 129.098 325.563C130.565 327.227 131.152 330.165 129.685 331.536C127.924 333.102 124.989 333.004 123.228 331.536C122.446 330.948 121.859 330.067 120.88 329.675C119.413 328.99 117.163 329.381 116.478 330.556C115.598 332.025 117.652 333.396 116.967 335.158C116.087 337.214 112.467 336.823 112.076 338.781C111.978 339.466 112.174 340.347 112.663 340.739C113.348 341.327 114.62 340.935 115.109 341.914C115.304 342.306 115.304 342.893 115.109 343.285C114.522 344.362 113.348 344.753 112.565 345.635C111.587 346.81 111.489 348.67 112.272 349.943C113.054 351.216 114.62 351.999 116.087 352.195C117.163 352.293 118.239 352.097 119.315 352.39C121.467 352.88 122.837 355.524 122.152 357.58C121.37 359.734 118.826 361.496 119.706 363.552C120.587 365.804 124.793 365.804 124.5 368.448C124.402 368.839 124.304 369.133 124.109 369.427C123.033 371.091 121.663 372.952 119.609 373.05C118.435 373.147 117.163 372.266 116.967 371.091C116.772 370.014 117.456 369.525 117.946 368.937C118.924 367.567 118.63 365.608 117.359 364.433C115.989 363.161 113.739 362.867 111.978 363.552C111.489 363.748 111 363.846 110.511 363.748C108.065 363.552 108.456 360.615 107.38 358.853C106.5 357.384 104.739 356.796 103.076 356.992C101.217 357.09 99.5543 358.069 97.8913 358.853C97.5 359.048 97.2065 359.244 97.0108 359.636C96.326 360.909 97.4999 361.888 98.6739 362.377C99.75 362.769 101.022 363.063 101.413 364.238C101.804 365.217 101.315 366.294 100.435 366.881C98.7717 367.86 96.913 367.175 95.3478 366.49C94.076 365.902 92.7065 365.217 91.3369 365.217C88.4999 365.315 86.5434 368.937 87.913 371.385C88.5978 372.658 89.9673 374.127 88.2065 375.106C88.1086 375.204 87.913 375.204 87.7173 375.204C86.7391 375.301 83.8043 379.512 85.2717 382.841C86.7391 385.974 91.5326 386.659 94.2717 385.484C97.1086 384.309 97.3043 381.666 99.6521 381.568C101.609 381.47 103.956 383.232 103.663 384.701C103.37 385.876 102.196 386.659 101.609 387.736C100.533 389.596 100.63 391.75 101.706 392.534C104.054 394.1 104.935 390.967 107.478 390.771C110.217 390.673 111.293 393.415 113.543 392.827C113.739 392.73 113.935 392.73 114.13 392.632C115.011 392.142 115.304 391.359 117.261 390.869C118.043 390.673 118.924 390.771 119.609 391.261C121.37 392.534 120.391 395.079 119.022 396.646C117.75 398.115 116.185 399.779 116.576 401.639C116.772 403.01 118.141 404.087 119.413 404.479C120.685 404.87 122.152 404.577 123.326 403.696C123.815 403.304 124.5 403.206 125.283 403.108C126.456 403.01 127.533 403.696 128.022 404.675C128.315 405.262 128.902 405.752 129.587 405.947C130.663 406.143 131.739 405.654 132.228 404.773C132.424 404.381 132.815 404.283 133.206 404.283C133.304 404.283 133.402 404.283 133.402 404.283C134.478 404.577 134.576 407.122 133.206 407.906C131.641 408.787 129.391 408.689 128.12 409.962C126.554 411.724 126.946 414.074 129 415.151C131.054 416.228 135.163 414.661 137.511 414.661C139.859 414.564 141.717 416.816 143.283 418.578C144.848 420.34 142.891 423.376 140.641 423.767C137.706 424.257 138.098 420.438 136.043 418.284C133.891 416.13 131.054 417.207 129.391 419.557C127.826 421.711 124.5 421.417 123.326 418.97C122.348 416.718 121.37 414.368 119.217 414.466C117.359 414.564 116.283 416.62 115.206 418.088C114.13 419.557 111.587 420.732 110.609 419.165C109.826 417.99 110.706 416.424 110.706 415.053C110.706 412.214 106.402 410.745 104.739 412.997C103.859 414.27 103.467 416.326 102 416.424C100.043 416.62 99.75 413.78 99.3586 411.92C98.9673 410.06 97.4021 408.493 95.6413 407.808C94.4673 407.416 93.1956 407.318 91.9239 407.808C89.4782 408.885 88.5 412.312 89.7717 414.564C90.5543 415.934 89.576 417.795 88.0108 417.893C87.7173 417.893 87.4239 417.893 87.1304 417.795C85.5652 417.501 84.1956 416.522 82.6304 416.326C78.7173 415.738 75.3913 421.026 77.6413 424.355C78.2282 425.236 79.1086 426.117 78.913 427.096C78.7173 427.977 77.7391 428.565 77.25 429.348C76.1739 431.404 79.3043 433.46 81.4565 432.775C83.7065 432.09 85.3695 430.229 87.4239 429.348C89.4782 428.467 92.8043 429.838 92.413 432.09C92.2173 433.264 91.1413 433.852 89.9673 434.244C88.8913 434.635 88.7934 436.202 89.8695 436.593C91.0434 437.083 92.6086 437.083 93.5869 436.789C94.7608 436.398 95.9347 436.691 96.7173 437.67C98.576 440.02 95.8369 441.783 93.6847 441.587C91.9239 441.489 90.163 440.706 88.4021 441.097C87.0326 441.489 86.1521 443.251 86.6413 444.328C87.0326 445.307 86.0543 446.287 85.076 445.797C84.1956 445.307 83.7065 444.524 83.0217 443.839C81.4565 442.468 78.7173 442.468 77.1521 443.937C75.4891 445.503 75.2934 448.538 76.9565 450.203C77.0543 450.301 77.1521 450.399 77.25 450.497C79.8913 453.728 75.1956 455.588 72.163 455.196C69.4239 454.805 65.5108 455.098 65.413 457.84C65.3152 459.602 67.076 460.777 68.2499 462.05C68.3478 462.05 68.3478 462.148 68.3478 462.148C69.6195 463.617 67.8586 465.771 66.0978 464.89C64.826 464.302 63.4565 464.008 62.0869 464.596C61.0108 465.085 60.2282 466.162 60.1304 467.337C60.1304 470.666 65.7065 471.352 65.0217 474.289C64.3369 477.226 58.3695 475.953 57.8804 478.891C57.5869 480.947 60.326 481.926 62.3804 482.22C64.4347 482.513 67.076 483.982 66.2934 485.842C65.8043 487.115 64.0434 487.311 63.163 488.388C61.1086 490.738 64.826 494.067 67.8586 493.969C69.4239 493.969 71.1847 493.675 72.7499 493.577C74.6086 493.577 75.9782 495.536 75.1956 497.2C74.9021 497.885 74.7065 498.571 74.5108 499.354C73.9239 502.389 77.2499 504.739 79.9891 503.27C80.7717 502.879 81.5543 502.389 82.3369 501.998C84.7826 500.823 88.7934 501.704 88.4021 504.347C88.2065 505.816 86.6413 506.795 86.3478 508.264C85.8586 510.712 89.0869 512.376 91.4347 511.789C93.7826 511.201 95.7391 509.439 98.0869 508.656C98.576 508.46 99.2608 508.362 99.8478 508.362C102 508.362 102.978 511.005 101.413 512.376C100.533 513.159 99.9456 514.236 99.8478 515.411C99.75 516.684 100.239 517.957 101.12 518.936C102.293 520.111 101.609 522.167 99.9456 522.461C99.4565 522.559 98.8695 522.657 98.3804 522.657C96.4239 522.755 94.4673 522.461 92.8043 523.44C92.7065 523.44 92.7065 523.538 92.6086 523.538C90.75 524.811 92.1195 527.748 94.2717 527.161C94.3695 527.161 94.4673 527.161 94.4673 527.063C97.0108 526.475 98.0869 530.098 95.6413 530.979C95.3478 531.077 95.0543 531.175 94.7608 531.175C92.7065 531.664 90.4565 531.567 88.6956 532.546C88.5978 532.644 88.4999 532.741 88.3043 532.839C86.2499 534.406 87.5217 537.637 90.0652 537.637C91.3369 537.637 92.6086 537.833 93.7826 538.518C95.5434 539.497 96.5217 542.141 95.25 543.707C93.8804 545.47 91.0434 544.882 88.8913 545.666C86.6413 546.547 85.3695 549.484 86.3478 551.736C87.326 553.988 90.2608 555.163 92.5108 554.086C93.8804 553.401 94.9565 552.128 96.2282 551.344C97.5978 550.561 99.75 550.659 100.239 552.128C101.022 554.282 97.5978 555.457 96.2282 557.219C94.4673 559.471 96.0326 562.996 98.576 564.269C99.75 564.856 101.022 565.15 102.293 565.15C104.152 565.248 105.424 567.01 104.837 568.87C104.446 570.045 104.348 571.318 104.446 572.591C104.739 574.941 106.696 577.193 108.946 577.389C109.63 577.487 109.924 577.487 110.315 577.487Z" stroke="#D8D2C5" stroke-miterlimit="10" stroke-linecap="round" stroke-linejoin="round"/>
</g>
<defs>
<clipPath id="clip0_929_3201">
<rect width="198" height="492" fill="white" transform="translate(57 202)"/>
</clipPath>
</defs>
</svg>
